STARTFONT 2.1
FONT -GB2312-Medium-R-Normal
SIZE 24 75 75
FONTBOUNDINGBOX 24 24 0 -2
STARTPROPERTIES 2
FONT_ASCENT 22
FONT_DESCENT 2
ENDPROPERTIES
CHARS 6869
STARTCHAR char0
ENCODING 0
SWIDTH 722 0
DWIDTH 13 0
BBX 11 13 1 0
BITMAP
AAA0
0000
8020
0000
8020
0000
8020
0000
8020
0000
8020
0000
AAA0
ENDCHAR
STARTCHAR space
ENCODING 32
SWIDTH 278 0
DWIDTH 5 0
BBX 1 1 0 0
BITMAP
00
ENDCHAR
STARTCHAR exclam
ENCODING 33
SWIDTH 300 0
DWIDTH 8 0
BBX 8 24 0 -2
BITMAP
00
00
18
3c
3c
3c
3c
3c
3c
3c
3c
18
18
18
18
18
18
00
00
18
3c
18
00
00
ENDCHAR
STARTCHAR quotedbl
ENCODING 34
SWIDTH 300 0
DWIDTH 9 0
BBX 12 24 0 -2
BITMAP
0000
0000
7700
7700
3300
6600
0000
0000
0000
0000
0000
0000
0000
0000
0000
0000
0000
0000
0000
0000
0000
0000
0000
0000
ENDCHAR
STARTCHAR numbersign
ENCODING 35
SWIDTH 300 0
DWIDTH 12 0
BBX 12 24 0 -2
BITMAP
0000
0000
18c0
18c0
18c0
18c0
18c0
ffe0
ffe0
3180
3180
3180
3180
3180
ffe0
ffe0
6300
6300
6300
6300
6300
6300
0000
0000
ENDCHAR
STARTCHAR dollar
ENCODING 36
SWIDTH 300 0
DWIDTH 12 0
BBX 12 24 0 -2
BITMAP
0000
0000
0600
0600
1f80
7fc0
e6e0
c660
c600
e600
7e00
3f80
0fc0
06e0
0660
0660
c660
e6e0
7fc0
3f80
0600
0600
0000
0000
ENDCHAR
STARTCHAR percent
ENCODING 37
SWIDTH 300 0
DWIDTH 12 0
BBX 12 24 0 -2
BITMAP
0000
0000
3860
7c60
eee0
c6c0
c7c0
ef80
7f80
3b00
0700
0e00
0e00
1c00
1b80
3fc0
3ee0
7c60
6c60
eee0
c7c0
c380
0000
0000
ENDCHAR
STARTCHAR ampersand
ENCODING 38
SWIDTH 300 0
DWIDTH 12 0
BBX 12 24 0 -2
BITMAP
0000
0000
0e00
1f00
3b80
3180
3180
3180
3b80
1f00
0e00
1c00
3c00
7e00
e660
c360
c3e0
c1c0
c1c0
e3e0
7f60
3e60
0000
0000
ENDCHAR
STARTCHAR quotesingle
ENCODING 39
SWIDTH 300 0
DWIDTH 7 0
BBX 8 24 0 -2
BITMAP
00
00
30
78
78
38
30
60
00
00
00
00
00
00
00
00
00
00
00
00
00
00
00
00
ENDCHAR
STARTCHAR parenleft
ENCODING 40
SWIDTH 300 0
DWIDTH 9 0
BBX 12 24 0 -2
BITMAP
0000
0000
0300
0e00
1c00
3800
3800
7000
7000
7000
e000
e000
e000
e000
7000
7000
7000
3800
3800
1c00
0e00
0300
0000
0000
ENDCHAR
STARTCHAR parenright
ENCODING 41
SWIDTH 300 0
DWIDTH 9 0
BBX 12 24 0 -2
BITMAP
0000
0000
c000
7000
3800
1c00
1c00
0e00
0e00
0e00
0700
0700
0700
0700
0e00
0e00
0e00
1c00
1c00
3800
7000
c000
0000
0000
ENDCHAR
STARTCHAR asterisk
ENCODING 42
SWIDTH 300 0
DWIDTH 11 0
BBX 12 24 0 -2
BITMAP
0000
0000
0000
0000
0000
0000
0c00
ccc0
edc0
7f80
3f00
1e00
0c00
1e00
3f00
7f80
edc0
ccc0
0c00
0c00
0000
0000
0000
0000
ENDCHAR
STARTCHAR plus
ENCODING 43
SWIDTH 300 0
DWIDTH 11 0
BBX 12 24 0 -2
BITMAP
0000
0000
0000
0000
0000
0000
0c00
0c00
0c00
0c00
0c00
0c00
ffc0
ffc0
0c00
0c00
0c00
0c00
0c00
0c00
0000
0000
0000
0000
ENDCHAR
STARTCHAR comma
ENCODING 44
SWIDTH 300 0
DWIDTH 7 0
BBX 8 24 0 -2
BITMAP
00
00
00
00
00
00
00
00
00
00
00
00
00
00
00
00
00
30
78
78
38
30
60
00
ENDCHAR
STARTCHAR hyphen
ENCODING 45
SWIDTH 300 0
DWIDTH 11 0
BBX 12 24 0 -2
BITMAP
0000
0000
0000
0000
0000
0000
0000
0000
0000
0000
0000
0000
ffc0
ffc0
0000
0000
0000
0000
0000
0000
0000
0000
0000
0000
ENDCHAR
STARTCHAR period
ENCODING 46
SWIDTH 300 0
DWIDTH 7 0
BBX 8 24 0 -2
BITMAP
00
00
00
00
00
00
00
00
00
00
00
00
00
00
00
00
00
00
30
78
78
30
00
00
ENDCHAR
STARTCHAR slash
ENCODING 47
SWIDTH 300 0
DWIDTH 12 0
BBX 12 24 0 -2
BITMAP
0000
0000
0060
0060
00c0
00c0
0180
0180
0300
0300
0600
0600
0c00
0c00
1800
1800
3000
3000
6000
6000
c000
c000
0000
0000
ENDCHAR
STARTCHAR zero
ENCODING 48
SWIDTH 300 0
DWIDTH 12 0
BBX 12 24 0 -2
BITMAP
0000
0000
3f80
7fc0
e0e0
c060
c1e0
c1e0
c360
c360
c660
c660
cc60
cc60
d860
d860
f060
f060
c060
e0e0
7fc0
3f80
0000
0000
ENDCHAR
STARTCHAR one
ENCODING 49
SWIDTH 300 0
DWIDTH 12 0
BBX 12 24 0 -2
BITMAP
0000
0000
0600
0e00
1e00
0600
0600
0600
0600
0600
0600
0600
0600
0600
0600
0600
0600
0600
0600
0600
0600
1f80
0000
0000
ENDCHAR
STARTCHAR two
ENCODING 50
SWIDTH 300 0
DWIDTH 12 0
BBX 12 24 0 -2
BITMAP
0000
0000
0e00
3f80
71c0
e0e0
c060
0060
0060
0060
00e0
01c0
0380
0700
0e00
1c00
3800
7000
e000
c000
ffe0
ffe0
0000
0000
ENDCHAR
STARTCHAR three
ENCODING 51
SWIDTH 300 0
DWIDTH 12 0
BBX 12 24 0 -2
BITMAP
0000
0000
0e00
3f80
71c0
60c0
c060
c060
00e0
01c0
0f80
0f80
01c0
00e0
0060
0060
c060
c060
60c0
71c0
3f80
0e00
0000
0000
ENDCHAR
STARTCHAR four
ENCODING 52
SWIDTH 300 0
DWIDTH 12 0
BBX 12 24 0 -2
BITMAP
0000
0000
0300
0300
0300
0700
0700
0f00
0b00
1b00
1b00
3300
3300
6300
6300
c300
c300
ffe0
ffe0
0300
0300
0780
0000
0000
ENDCHAR
STARTCHAR five
ENCODING 53
SWIDTH 300 0
DWIDTH 12 0
BBX 12 24 0 -2
BITMAP
0000
0000
ffc0
ffc0
c000
c000
c000
c000
c000
ce00
ff80
f1c0
e0e0
0060
0060
0060
c060
c060
e0e0
71c0
3f80
0e00
0000
0000
ENDCHAR
STARTCHAR six
ENCODING 54
SWIDTH 300 0
DWIDTH 12 0
BBX 12 24 0 -2
BITMAP
0000
0000
0f80
3f80
7000
e000
c000
c000
c000
ce00
ff80
f1c0
e0e0
c060
c060
c060
c060
c060
e0e0
71c0
3f80
0e00
0000
0000
ENDCHAR
STARTCHAR seven
ENCODING 55
SWIDTH 300 0
DWIDTH 12 0
BBX 12 24 0 -2
BITMAP
0000
0000
ffe0
ffe0
c060
c060
c060
c060
00c0
01c0
0180
0380
0300
0300
0700
0600
0600
0e00
0c00
0c00
0c00
0c00
0000
0000
ENDCHAR
STARTCHAR eight
ENCODING 56
SWIDTH 300 0
DWIDTH 12 0
BBX 12 24 0 -2
BITMAP
0000
0000
0e00
3f80
71c0
60c0
c060
c060
c060
60c0
7fc0
3f80
71c0
60c0
c060
c060
c060
c060
60c0
71c0
3f80
0e00
0000
0000
ENDCHAR
STARTCHAR nine
ENCODING 57
SWIDTH 300 0
DWIDTH 12 0
BBX 12 24 0 -2
BITMAP
0000
0000
0e00
3f80
71c0
e0e0
c060
c060
c060
c060
e0e0
71e0
3f60
0e60
0060
0060
0060
0060
00e0
01c0
3f80
3e00
0000
0000
ENDCHAR
STARTCHAR colon
ENCODING 58
SWIDTH 300 0
DWIDTH 7 0
BBX 8 24 0 -2
BITMAP
0000
0000
0000
0000
3000
7800
7800
3000
0000
0000
0000
0000
0000
0000
0000
0000
3000
7800
7800
3000
0000
0000
0000
0000
ENDCHAR
STARTCHAR semicolon
ENCODING 59
SWIDTH 300 0
DWIDTH 7 0
BBX 8 24 0 -2
BITMAP
0000
0000
0000
0000
3000
7800
7800
3000
0000
0000
0000
0000
0000
0000
0000
0000
3000
7800
7800
3800
3000
6000
0000
0000
ENDCHAR
STARTCHAR less
ENCODING 60
SWIDTH 300 0
DWIDTH 11 0
BBX 12 24 0 -2
BITMAP
0000
0000
0000
00c0
0180
0300
0600
0c00
1800
3000
6000
c000
c000
6000
3000
1800
0c00
0600
0300
0180
00c0
0000
0000
0000
ENDCHAR
STARTCHAR equal
ENCODING 61
SWIDTH 300 0
DWIDTH 11 0
BBX 12 24 0 -2
BITMAP
0000
0000
0000
0000
0000
0000
0000
0000
ffc0
ffc0
0000
0000
0000
0000
ffc0
ffc0
0000
0000
0000
0000
0000
0000
0000
0000
ENDCHAR
STARTCHAR greater
ENCODING 62
SWIDTH 300 0
DWIDTH 11 0
BBX 12 24 0 -2
BITMAP
0000
0000
0000
c000
6000
3000
1800
0c00
0600
0300
0180
00c0
00c0
0180
0300
0600
0c00
1800
3000
6000
c000
0000
0000
0000
ENDCHAR
STARTCHAR question
ENCODING 63
SWIDTH 300 0
DWIDTH 12 0
BBX 12 24 0 -2
BITMAP
0000
0000
0e00
3f80
71c0
60e0
c060
c060
0060
00e0
01c0
0380
0700
0e00
0c00
0c00
0c00
0000
0000
0c00
1e00
0c00
0000
0000
ENDCHAR
STARTCHAR at
ENCODING 64
SWIDTH 300 0
DWIDTH 12 0
BBX 12 24 0 -2
BITMAP
0000
0000
0700
1f80
38c0
7060
6660
ef60
cf60
df60
db60
db60
db60
db60
dbe0
dfc0
df80
ec20
6060
78e0
3fc0
0700
0000
0000
ENDCHAR
STARTCHAR A
ENCODING 65
SWIDTH 300 0
DWIDTH 11 0
BBX 12 24 0 -2
BITMAP
0000
0000
0c00
1e00
3f00
7380
e1c0
c0c0
c0c0
c0c0
c0c0
c0c0
ffc0
ffc0
c0c0
c0c0
c0c0
c0c0
c0c0
c0c0
c0c0
c0c0
0000
0000
ENDCHAR
STARTCHAR B
ENCODING 66
SWIDTH 300 0
DWIDTH 12 0
BBX 12 24 0 -2
BITMAP
0000
0000
fc00
ff00
c380
c1c0
c0c0
c0c0
c0c0
c1c0
c380
ff00
ff80
c1c0
c0e0
c060
c060
c060
c0e0
c1c0
ff80
ff00
0000
0000
ENDCHAR
STARTCHAR C
ENCODING 67
SWIDTH 300 0
DWIDTH 12 0
BBX 12 24 0 -2
BITMAP
0000
0000
0e00
3f80
71c0
60c0
e060
c060
c000
c000
c000
c000
c000
c000
c000
c000
c060
e060
e0c0
71c0
3f80
0e00
0000
0000
ENDCHAR
STARTCHAR D
ENCODING 68
SWIDTH 300 0
DWIDTH 11 0
BBX 12 24 0 -2
BITMAP
0000
0000
fc00
fe00
c700
c380
c1c0
c0c0
c0c0
c0c0
c0c0
c0c0
c0c0
c0c0
c0c0
c0c0
c0c0
c1c0
c380
c700
fe00
fc00
0000
0000
ENDCHAR
STARTCHAR E
ENCODING 69
SWIDTH 300 0
DWIDTH 11 0
BBX 12 24 0 -2
BITMAP
0000
0000
ffc0
ffc0
c000
c000
c000
c000
c000
c000
c000
ff80
ff80
c000
c000
c000
c000
c000
c000
c000
ffc0
ffc0
0000
0000
ENDCHAR
STARTCHAR F
ENCODING 70
SWIDTH 300 0
DWIDTH 11 0
BBX 12 24 0 -2
BITMAP
0000
0000
ffc0
ffc0
c000
c000
c000
c000
c000
c000
ff80
ff80
c000
c000
c000
c000
c000
c000
c000
c000
c000
c000
0000
0000
ENDCHAR
STARTCHAR G
ENCODING 71
SWIDTH 300 0
DWIDTH 12 0
BBX 12 24 0 -2
BITMAP
0000
0000
0f80
3fc0
70e0
6060
e000
c000
c000
c000
c000
c000
c1e0
c1e0
c060
c060
c060
e060
e0e0
71e0
3fe0
0e60
0000
0000
ENDCHAR
STARTCHAR H
ENCODING 72
SWIDTH 300 0
DWIDTH 11 0
BBX 12 24 0 -2
BITMAP
0000
0000
c0c0
c0c0
c0c0
c0c0
c0c0
c0c0
c0c0
c0c0
c0c0
ffc0
ffc0
c0c0
c0c0
c0c0
c0c0
c0c0
c0c0
c0c0
c0c0
c0c0
0000
0000
ENDCHAR
STARTCHAR I
ENCODING 73
SWIDTH 300 0
DWIDTH 7 0
BBX 8 24 0 -2
BITMAP
00
00
78
30
30
30
30
30
30
30
30
30
30
30
30
30
30
30
30
30
30
78
00
00
ENDCHAR
STARTCHAR J
ENCODING 74
SWIDTH 300 0
DWIDTH 11 0
BBX 12 24 0 -2
BITMAP
0000
0000
03c0
0180
0180
0180
0180
0180
0180
0180
0180
0180
0180
0180
c180
c180
c180
c180
e180
7380
3f00
0e00
0000
0000
ENDCHAR
STARTCHAR K
ENCODING 75
SWIDTH 300 0
DWIDTH 11 0
BBX 12 24 0 -2
BITMAP
0000
0000
c0c0
c1c0
c380
c700
ce00
dc00
f800
f000
f000
f000
d800
dc00
cc00
ce00
c600
c700
c300
c380
c1c0
c1c0
0000
0000
ENDCHAR
STARTCHAR L
ENCODING 76
SWIDTH 300 0
DWIDTH 11 0
BBX 12 24 0 -2
BITMAP
0000
0000
c000
c000
c000
c000
c000
c000
c000
c000
c000
c000
c000
c000
c000
c000
c000
c000
c000
c000
ffc0
ffc0
0000
0000
ENDCHAR
STARTCHAR M
ENCODING 77
SWIDTH 300 0
DWIDTH 12 0
BBX 12 24 0 -2
BITMAP
0000
0000
c060
e0e0
e0e0
f1e0
fbe0
ffe0
df60
ce60
c460
c060
c060
c060
c060
c060
c060
c060
c060
c060
c060
c060
0000
0000
ENDCHAR
STARTCHAR N
ENCODING 78
SWIDTH 300 0
DWIDTH 11 0
BBX 12 24 0 -2
BITMAP
0000
0000
c0c0
e0c0
e0c0
e0c0
f0c0
f0c0
d8c0
d8c0
dcc0
ccc0
ccc0
c6c0
c6c0
c6c0
c3c0
c3c0
c1c0
c1c0
c1c0
c0c0
0000
0000
ENDCHAR
STARTCHAR O
ENCODING 79
SWIDTH 300 0
DWIDTH 12 0
BBX 12 24 0 -2
BITMAP
0000
0000
0e00
1f00
3f80
7bc0
71c0
e0e0
c060
c060
c060
c060
c060
c060
c060
c060
e0e0
71c0
7bc0
3f80
1f00
0e00
0000
0000
ENDCHAR
STARTCHAR P
ENCODING 80
SWIDTH 300 0
DWIDTH 10 0
BBX 12 24 0 -2
BITMAP
0000
0000
fc00
fe00
c700
c380
c180
c180
c180
c380
c700
fe00
fc00
c000
c000
c000
c000
c000
c000
c000
c000
c000
0000
0000
ENDCHAR
STARTCHAR Q
ENCODING 81
SWIDTH 300 0
DWIDTH 12 0
BBX 12 24 0 -2
BITMAP
0000
0000
0e00
1f00
3b80
71c0
60c0
e0e0
c060
c060
c060
c060
c060
ce60
df60
f360
e1e0
61c0
70c0
3be0
1f60
0e60
0000
0000
ENDCHAR
STARTCHAR R
ENCODING 82
SWIDTH 300 0
DWIDTH 10 0
BBX 12 24 0 -2
BITMAP
0000
0000
fc00
fe00
c700
c380
c180
c180
c180
c380
c700
fe00
fc00
cc00
ce00
c600
c700
c300
c380
c180
c1c0
c0c0
0000
0000
ENDCHAR
STARTCHAR S
ENCODING 83
SWIDTH 300 0
DWIDTH 12 0
BBX 12 24 0 -2
BITMAP
0000
0000
0e00
3f80
71c0
60e0
c060
c060
c000
6000
7800
3e00
0f80
03c0
00e0
0060
c060
c060
e0c0
71c0
3f80
0e00
0000
0000
ENDCHAR
STARTCHAR T
ENCODING 84
SWIDTH 300 0
DWIDTH 11 0
BBX 12 24 0 -2
BITMAP
0000
0000
ffc0
ffc0
0c00
0c00
0c00
0c00
0c00
0c00
0c00
0c00
0c00
0c00
0c00
0c00
0c00
0c00
0c00
0c00
0c00
0c00
0000
0000
ENDCHAR
STARTCHAR U
ENCODING 85
SWIDTH 300 0
DWIDTH 11 0
BBX 12 24 0 -2
BITMAP
0000
0000
c0c0
c0c0
c0c0
c0c0
c0c0
c0c0
c0c0
c0c0
c0c0
c0c0
c0c0
c0c0
c0c0
c0c0
c0c0
c0c0
c0c0
e1c0
7f80
3f00
0000
0000
ENDCHAR
STARTCHAR V
ENCODING 86
SWIDTH 300 0
DWIDTH 10 0
BBX 12 24 0 -2
BITMAP
0000
0000
c180
c180
c180
c180
c180
c180
c180
c180
c180
c180
c180
e380
6300
7700
3600
3e00
1c00
1c00
0800
0800
0000
0000
ENDCHAR
STARTCHAR W
ENCODING 87
SWIDTH 300 0
DWIDTH 12 0
BBX 12 24 0 -2
BITMAP
0000
0000
c060
c060
c060
c060
c060
c060
c060
c060
c460
c460
ce60
ce60
df60
ffe0
fbe0
7bc0
71c0
3180
3180
3180
0000
0000
ENDCHAR
STARTCHAR X
ENCODING 88
SWIDTH 300 0
DWIDTH 12 0
BBX 12 24 0 -2
BITMAP
0000
0000
c060
c060
e0e0
60c0
71c0
3180
3b80
1b00
1f00
0e00
0e00
1f00
1b00
3b80
3180
71c0
60c0
e0e0
c060
c060
0000
0000
ENDCHAR
STARTCHAR Y
ENCODING 89
SWIDTH 300 0
DWIDTH 11 0
BBX 12 24 0 -2
BITMAP
0000
0000
c0c0
c0c0
c0c0
c0c0
c0c0
c0c0
6180
6180
3300
3300
3f00
1e00
0c00
0c00
0c00
0c00
0c00
0c00
0c00
0c00
0000
0000
ENDCHAR
STARTCHAR Z
ENCODING 90
SWIDTH 300 0
DWIDTH 11 0
BBX 12 24 0 -2
BITMAP
0000
0000
ffc0
ffc0
01c0
01c0
0380
0380
0700
0700
0e00
0e00
1c00
1c00
3800
3800
7000
7000
e000
e000
ffc0
ffc0
0000
0000
ENDCHAR
STARTCHAR bracketleft
ENCODING 91
SWIDTH 300 0
DWIDTH 8 0
BBX 8 24 0 -2
BITMAP
00
00
7c
7c
60
60
60
60
60
60
60
60
60
60
60
60
60
60
60
60
7c
7c
00
00
ENDCHAR
STARTCHAR backslash
ENCODING 92
SWIDTH 300 0
DWIDTH 12 0
BBX 12 24 0 -2
BITMAP
0000
0000
c000
c000
6000
6000
3000
3000
1800
1800
0c00
0c00
0600
0600
0300
0300
0180
0180
00c0
00c0
0060
0060
0000
0000
ENDCHAR
STARTCHAR bracketright
ENCODING 93
SWIDTH 300 0
DWIDTH 8 0
BBX 8 24 0 -2
BITMAP
00
00
7c
7c
0c
0c
0c
0c
0c
0c
0c
0c
0c
0c
0c
0c
0c
0c
0c
0c
7c
7c
00
00
ENDCHAR
STARTCHAR asciicircum
ENCODING 94
SWIDTH 300 0
DWIDTH 8 0
BBX 8 24 0 -2
BITMAP
00
00
18
3c
66
42
00
00
00
00
00
00
00
00
00
00
00
00
00
00
00
00
00
00
ENDCHAR
STARTCHAR underscore
ENCODING 95
SWIDTH 300 0
DWIDTH 12 0
BBX 12 24 0 -2
BITMAP
0000
0000
0000
0000
0000
0000
0000
0000
0000
0000
0000
0000
0000
0000
0000
0000
0000
0000
0000
0000
ffe0
ffe0
0000
0000
ENDCHAR
STARTCHAR grave
ENCODING 96
SWIDTH 300 0
DWIDTH 7 0
BBX 8 24 0 -2
BITMAP
00
00
60
30
38
18
0c
00
00
00
00
00
00
00
00
00
00
00
00
00
00
00
00
00
ENDCHAR
STARTCHAR a
ENCODING 97
SWIDTH 300 0
DWIDTH 11 0
BBX 12 24 0 -2
BITMAP
0000
0000
0000
0000
0000
0000
0000
0000
0f00
1f80
3bc0
71c0
60c0
01c0
0fc0
3fc0
71c0
e0c0
c0c0
e1c0
7fc0
3ec0
0000
0000
ENDCHAR
STARTCHAR b
ENCODING 98
SWIDTH 300 0
DWIDTH 11 0
BBX 12 24 0 -2
BITMAP
0000
0000
0000
c000
c000
c000
c000
c000
de00
ff00
f380
e1c0
c0c0
c0c0
c0c0
c0c0
c0c0
c0c0
e1c0
f380
ff00
de00
0000
0000
ENDCHAR
STARTCHAR c
ENCODING 99
SWIDTH 300 0
DWIDTH 12 0
BBX 12 24 0 -2
BITMAP
0000
0000
0000
0000
0000
0000
0000
0000
0e00
3f80
71c0
60c0
c060
c000
c000
c000
c000
c000
e060
70e0
3fc0
0f00
0000
0000
ENDCHAR
STARTCHAR d
ENCODING 100
SWIDTH 300 0
DWIDTH 11 0
BBX 12 24 0 -2
BITMAP
0000
0000
0000
00c0
00c0
00c0
00c0
00c0
1ec0
3fc0
73c0
e1c0
c0c0
c0c0
c0c0
c0c0
c0c0
c0c0
e1c0
73c0
3fc0
1ec0
0000
0000
ENDCHAR
STARTCHAR e
ENCODING 101
SWIDTH 300 0
DWIDTH 12 0
BBX 12 24 0 -2
BITMAP
0000
0000
0000
0000
0000
0000
0000
0000
0e00
3f80
71c0
60c0
c060
ffe0
ffe0
c000
c000
c000
e060
70e0
3fc0
0f00
0000
0000
ENDCHAR
STARTCHAR f
ENCODING 102
SWIDTH 300 0
DWIDTH 11 0
BBX 12 24 0 -2
BITMAP
0000
0000
0f00
1f80
19c0
18c0
1800
1800
ffc0
ffc0
1800
1800
1800
1800
1800
1800
1800
1800
1800
1800
1800
1800
0000
0000
ENDCHAR
STARTCHAR g
ENCODING 103
SWIDTH 300 0
DWIDTH 11 0
BBX 12 24 0 -2
BITMAP
0000
0000
0000
0000
0000
0000
0000
0000
1d80
7f80
6380
c180
c180
c180
c180
6380
7f80
1d80
0180
0180
c180
e380
7f00
3c00
ENDCHAR
STARTCHAR h
ENCODING 104
SWIDTH 300 0
DWIDTH 11 0
BBX 12 24 0 -2
BITMAP
0000
0000
c000
c000
c000
c000
c000
c000
cf00
df80
fbc0
f1c0
e0c0
c0c0
c0c0
c0c0
c0c0
c0c0
c0c0
c0c0
c0c0
c0c0
0000
0000
ENDCHAR
STARTCHAR i
ENCODING 105
SWIDTH 300 0
DWIDTH 5 0
BBX 8 24 0 -2
BITMAP
0000
0000
0000
0000
6000
6000
0000
0000
6000
6000
6000
6000
6000
6000
6000
6000
6000
6000
6000
6000
6000
6000
0000
0000
ENDCHAR
STARTCHAR j
ENCODING 106
SWIDTH 300 0
DWIDTH 9 0
BBX 12 24 0 -2
BITMAP
0000
0000
0000
0000
0300
0300
0000
0000
0300
0300
0300
0300
0300
0300
0300
0300
0300
0300
0300
c300
c300
e700
7e00
3c00
ENDCHAR
STARTCHAR k
ENCODING 107
SWIDTH 300 0
DWIDTH 10 0
BBX 12 24 0 -2
BITMAP
0000
0000
c000
c000
c000
c000
c000
c000
c380
c700
ce00
dc00
f800
f800
fc00
cc00
ce00
c600
c700
c300
c380
c180
0000
0000
ENDCHAR
STARTCHAR l
ENCODING 108
SWIDTH 300 0
DWIDTH 6 0
BBX 8 24 0 -2
BITMAP
00
00
70
30
30
30
30
30
30
30
30
30
30
30
30
30
30
30
30
30
30
30
00
00
ENDCHAR
STARTCHAR m
ENCODING 109
SWIDTH 300 0
DWIDTH 11 0
BBX 12 24 0 -2
BITMAP
0000
0000
0000
0000
0000
0000
0000
0000
4480
cdc0
ffc0
ffc0
eec0
ccc0
ccc0
ccc0
ccc0
ccc0
ccc0
ccc0
ccc0
ccc0
0000
0000
ENDCHAR
STARTCHAR n
ENCODING 110
SWIDTH 300 0
DWIDTH 10 0
BBX 12 24 0 -2
BITMAP
0000
0000
0000
0000
0000
0000
0000
0000
ce00
df00
ff80
f380
e180
c180
c180
c180
c180
c180
c180
c180
c180
c180
0000
0000
ENDCHAR
STARTCHAR o
ENCODING 111
SWIDTH 300 0
DWIDTH 12 0
BBX 12 24 0 -2
BITMAP
0000
0000
0000
0000
0000
0000
0000
0000
0e00
3f80
7bc0
71c0
e0e0
c060
c060
c060
c060
e0e0
71c0
7bc0
3f80
0e00
0000
0000
ENDCHAR
STARTCHAR p
ENCODING 112
SWIDTH 300 0
DWIDTH 12 0
BBX 12 24 0 -2
BITMAP
0000
0000
0000
0000
0000
0000
0000
0000
cf00
df80
f9c0
f0e0
e060
e060
e060
e060
f0e0
f9c0
df80
cf00
c000
c000
c000
c000
ENDCHAR
STARTCHAR q
ENCODING 113
SWIDTH 300 0
DWIDTH 12 0
BBX 12 24 0 -2
BITMAP
0000
0000
0000
0000
0000
0000
0000
0000
1e60
3f60
73e0
e1e0
c0e0
c0e0
c0e0
c0e0
e1e0
73e0
3f60
1e60
0060
0060
0060
0060
ENDCHAR
STARTCHAR r
ENCODING 114
SWIDTH 300 0
DWIDTH 9 0
BBX 12 24 0 -2
BITMAP
0000
0000
0000
0000
0000
0000
0000
0000
ce00
df00
fb00
f100
e000
c000
c000
c000
c000
c000
c000
c000
c000
c000
0000
0000
ENDCHAR
STARTCHAR s
ENCODING 115
SWIDTH 300 0
DWIDTH 11 0
BBX 12 24 0 -2
BITMAP
0000
0000
0000
0000
0000
0000
0000
0000
0c00
3f00
7380
e1c0
e0c0
7800
3e00
0f80
01c0
c0c0
e0c0
71c0
3f80
0e00
0000
0000
ENDCHAR
STARTCHAR t
ENCODING 116
SWIDTH 300 0
DWIDTH 12 0
BBX 12 24 0 -2
BITMAP
0000
0000
0000
1800
1800
1800
1800
1800
ffc0
ffc0
1800
1800
1800
1800
1800
1800
1800
1860
1860
1ce0
0fc0
0300
0000
0000
ENDCHAR
STARTCHAR u
ENCODING 117
SWIDTH 300 0
DWIDTH 10 0
BBX 12 24 0 -2
BITMAP
0000
0000
0000
0000
0000
0000
0000
0000
c180
c180
c180
c180
c180
c180
c180
c180
c180
c380
e780
7f80
3d80
1980
0000
0000
ENDCHAR
STARTCHAR v
ENCODING 118
SWIDTH 300 0
DWIDTH 10 0
BBX 12 24 0 -2
BITMAP
0000
0000
0000
0000
0000
0000
0000
0000
c180
c180
c180
c180
c180
e380
e380
7700
7700
3e00
3e00
1c00
1c00
0800
0000
0000
ENDCHAR
STARTCHAR w
ENCODING 119
SWIDTH 300 0
DWIDTH 10 0
BBX 12 24 0 -2
BITMAP
0000
0000
0000
0000
0000
0000
0000
0000
c060
c060
c060
c060
c460
c460
ce60
ce60
df60
ffe0
fbe0
71c0
71c0
2080
0000
0000
ENDCHAR
STARTCHAR x
ENCODING 120
SWIDTH 300 0
DWIDTH 12 0
BBX 12 24 0 -2
BITMAP
0000
0000
0000
0000
0000
0000
0000
0000
e0e0
60c0
71c0
3180
3b80
1f00
0e00
1f00
1b00
3b80
3180
71c0
60c0
e0e0
0000
0000
ENDCHAR
STARTCHAR y
ENCODING 121
SWIDTH 300 0
DWIDTH 10 0
BBX 12 24 0 -2
BITMAP
0000
0000
0000
0000
0000
0000
0000
0000
c180
c180
c180
c180
c180
c180
e180
7180
3980
1f80
0f80
0700
0e00
1c00
3800
7000
ENDCHAR
STARTCHAR z
ENCODING 122
SWIDTH 300 0
DWIDTH 11 0
BBX 12 24 0 -2
BITMAP
0000
0000
0000
0000
0000
0000
0000
0000
ffc0
ffc0
00c0
01c0
0380
0700
0e00
1c00
3800
7000
e000
ffc0
ffc0
0000
0000
0000
ENDCHAR
STARTCHAR braceleft
ENCODING 123
SWIDTH 300 0
DWIDTH 10 0
BBX 12 24 0 -2
BITMAP
0000
0000
0700
0e00
1c00
1800
1800
1800
1800
1800
1800
7800
7800
1800
1800
1800
1800
1800
1800
1c00
0e00
0700
0000
0000
ENDCHAR
STARTCHAR bar
ENCODING 124
SWIDTH 300 0
DWIDTH 5 0
BBX 8 24 0 -2
BITMAP
00
00
60
60
60
60
60
60
60
60
60
60
60
60
60
60
60
60
60
60
60
60
00
00
ENDCHAR
STARTCHAR braceright
ENCODING 125
SWIDTH 300 0
DWIDTH 10 0
BBX 12 24 0 -2
BITMAP
0000
0000
7000
3800
1c00
0c00
0c00
0c00
0c00
0c00
0c00
0f00
0f00
0c00
0c00
0c00
0c00
0c00
0c00
1c00
3800
7000
0000
0000
ENDCHAR
STARTCHAR asciitilde
ENCODING 126
SWIDTH 300 0
DWIDTH 12 0
BBX 12 24 0 -2
BITMAP
0000
0000
3820
7c60
eee0
c7c0
8380
0000
0000
0000
0000
0000
0000
0000
0000
0000
0000
0000
0000
0000
0000
0000
0000
0000
ENDCHAR
STARTCHAR degree
ENCODING 176
SWIDTH 300 0
DWIDTH 9 0
BBX 12 24 0 -2
BITMAP
0000
0000
3c00
7e00
6600
6600
7e00
3c00
0000
0000
0000
0000
0000
0000
0000
0000
0000
0000
0000
0000
0000
0000
0000
0000
ENDCHAR
STARTCHAR micro
ENCODING 181
SWIDTH 300 0
DWIDTH 12 0
BBX 12 24 0 -2
BITMAP
0000
0000
0000
0000
0000
0000
0000
0000
18c0
18c0
18c0
18c0
18c0
38c0
3180
3180
3180
3180
3380
7f80
7fe0
ece0
c000
0000
ENDCHAR
STARTCHAR periodcentered
ENCODING 183
SWIDTH 300 0
DWIDTH 5 0
BBX 8 24 0 -2
BITMAP
00
00
00
00
00
00
00
00
00
00
60
f0
f0
60
00
00
00
00
00
00
00
00
00
00
ENDCHAR
STARTCHAR ohm
ENCODING 937
SWIDTH 300 0
DWIDTH 12 0
BBX 12 24 0 -2
BITMAP
0000
0000
1f00
3f80
7fc0
e0e0
c060
c060
c060
c060
c060
c060
c060
c060
e0e0
7bc0
3b00
1b00
1b00
1b00
fbe0
fbe0
0000
0000
ENDCHAR
STARTCHAR U+3001
ENCODING 12289
SWIDTH 600 0
DWIDTH 24 0
BBX 24 24 0 -2
BITMAP 
000000
000000
000000
000000
000000
000000
000000
000000
000000
000000
000000
000000
000000
000000
000000
000000
000000
000000
000000
100000
0C0000
070000
038000
018000
ENDCHAR
STARTCHAR U+3002
ENCODING 12290
SWIDTH 600 0
DWIDTH 24 0
BBX 24 24 0 -2
BITMAP 
000000
000000
000000
000000
000000
000000
000000
000000
000000
000000
000000
000000
000000
000000
000000
000000
000000
000000
060000
090000
108000
108000
090000
060000
ENDCHAR
STARTCHAR 4E00
ENCODING 19968
SWIDTH 600 0
DWIDTH 24 0
BBX 24 24 0 -2
BITMAP
000000
000000
000000
000000
000000
000000
000000
000000
000000
000000
00000C
7FFFFE
000000
000000
000000
000000
000000
000000
000000
000000
000000
000000
000000
000000
ENDCHAR
STARTCHAR 4E01
ENCODING 19969
SWIDTH 600 0
DWIDTH 24 0
BBX 24 24 0 -2
BITMAP
000000
000000
00000C
7FFFFE
001800
001800
001800
001800
001800
001800
001800
001800
001800
001800
001800
001800
001800
001800
001800
001800
00F800
003000
002000
000000
ENDCHAR
STARTCHAR 4E03
ENCODING 19971
SWIDTH 600 0
DWIDTH 24 0
BBX 24 24 0 -2
BITMAP
000000
008000
00E000
00C000
00C000
00C000
00C00C
00C01E
00C0E0
00C700
00F800
07C000
78C000
00C000
00C008
00C008
00C008
00C008
00C008
00C00C
00FFFC
007FF8
000000
000000
ENDCHAR
STARTCHAR 4E07
ENCODING 19975
SWIDTH 600 0
DWIDTH 24 0
BBX 24 24 0 -2
BITMAP
000000
000000
00000C
7FFFFE
006000
006000
006000
006000
006060
007FF0
006060
006060
006060
00C060
00C060
00C060
018060
018060
030060
0600E0
0C1FC0
180380
600100
000000
ENDCHAR
STARTCHAR 4E08
ENCODING 19976
SWIDTH 600 0
DWIDTH 24 0
BBX 24 24 0 -2
BITMAP
000800
000E00
000C00
000C00
000C00
000C0C
7FFFFE
000C00
040C00
040C00
040C00
020C00
020C00
010C00
019800
00D800
007000
007000
00DC00
018700
0703FE
1800F8
600010
000000
ENDCHAR
STARTCHAR 4E09
ENCODING 19977
SWIDTH 600 0
DWIDTH 24 0
BBX 24 24 0 -2
BITMAP
000000
000000
000030
3FFFF8
000000
000000
000000
000000
000000
000000
000060
1FFFF0
000000
000000
000000
000000
000000
000000
000000
00000C
7FFFFE
000000
000000
000000
ENDCHAR
STARTCHAR 4E0A
ENCODING 19978
SWIDTH 600 0
DWIDTH 24 0
BBX 24 24 0 -2
BITMAP
002000
003800
003000
003000
003000
003000
003000
003000
003030
003FF8
003000
003000
003000
003000
003000
003000
003000
003000
003000
003000
00300C
7FFFFE
000000
000000
ENDCHAR
STARTCHAR 4E0B
ENCODING 19979
SWIDTH 600 0
DWIDTH 24 0
BBX 24 24 0 -2
BITMAP
000000
000000
00000C
7FFFFE
003000
003000
003000
003000
003000
003700
0031C0
0030F0
003030
003010
003000
003000
003000
003000
003000
003000
003000
003000
003000
002000
ENDCHAR
STARTCHAR 4E0C
ENCODING 19980
SWIDTH 600 0
DWIDTH 24 0
BBX 24 24 0 -2
BITMAP
000000
00000C
7FFFFE
018180
018180
018180
018180
018180
018180
018180
018180
018180
018180
018180
030180
030180
030180
060180
060180
0C0180
180180
300180
400100
000000
ENDCHAR
STARTCHAR 4E0D
ENCODING 19981
SWIDTH 600 0
DWIDTH 24 0
BBX 24 24 0 -2
BITMAP
000000
000000
00000C
7FFFFE
001C00
001800
003800
003000
007C00
007800
00D980
00D8C0
019870
031838
06181C
0C180E
181806
601804
801800
001800
001800
001800
001800
001000
ENDCHAR
STARTCHAR 4E0E
ENCODING 19982
SWIDTH 600 0
DWIDTH 24 0
BBX 24 24 0 -2
BITMAP
010000
01C000
018000
018000
018018
01FFFC
030000
030000
030000
030030
07FFF8
020030
000030
000030
000630
3FFF30
000030
000030
000030
000030
000070
000FE0
0001C0
000080
ENDCHAR
STARTCHAR 4E10
ENCODING 19984
SWIDTH 600 0
DWIDTH 24 0
BBX 24 24 0 -2
BITMAP
000000
000000
00000C
7FFFFE
001800
001800
081800
0E1830
0C1FF8
0C1800
0C1800
0C1800
0C1818
1FFFFC
080018
000018
000018
000018
000038
000030
000070
0007E0
0001C0
000080
ENDCHAR
STARTCHAR 4E11
ENCODING 19985
SWIDTH 600 0
DWIDTH 24 0
BBX 24 24 0 -2
BITMAP
000000
000000
000060
1FFFF0
003060
003060
003060
003060
003060
006060
006060
0FFFE0
006060
006060
00C060
00C060
00C060
00C060
018060
018060
01806C
7FFFFE
000000
000000
ENDCHAR
STARTCHAR 4E13
ENCODING 19987
SWIDTH 600 0
DWIDTH 24 0
BBX 24 24 0 -2
BITMAP
002000
003800
003000
003000
003060
1FFFF0
006000
006000
00600C
7FFFFE
00C000
00C000
018020
03FFF0
010060
0000C0
000180
018300
007600
001C00
000E00
000380
000180
000080
ENDCHAR
STARTCHAR 4E14
ENCODING 19988
SWIDTH 600 0
DWIDTH 24 0
BBX 24 24 0 -2
BITMAP
000000
0200C0
03FFE0
0300C0
0300C0
0300C0
0300C0
0300C0
03FFC0
0300C0
0300C0
0300C0
0300C0
0300C0
03FFC0
0300C0
0300C0
0300C0
0300C0
0300C0
0300CC
7FFFFE
000000
000000
ENDCHAR
STARTCHAR 4E15
ENCODING 19989
SWIDTH 600 0
DWIDTH 24 0
BBX 24 24 0 -2
BITMAP
000000
000000
000018
3FFFFC
000C00
000C00
001800
001800
003C00
003900
0078C0
00D860
019838
03181C
06180C
181804
601800
001800
001800
001000
00000C
7FFFFE
000000
000000
ENDCHAR
STARTCHAR 4E16
ENCODING 19990
SWIDTH 600 0
DWIDTH 24 0
BBX 24 24 0 -2
BITMAP
002080
0038E0
0830C0
0E30C0
0C30C0
0C30C0
0C30C0
0C30CC
7FFFFE
0C30C0
0C30C0
0C30C0
0C30C0
0C30C0
0C30C0
0C30C0
0C3FC0
0C30C0
0C2080
0C0000
0C0018
1FFFFC
080000
000000
ENDCHAR
STARTCHAR 4E18
ENCODING 19992
SWIDTH 600 0
DWIDTH 24 0
BBX 24 24 0 -2
BITMAP
000000
000040
0003E0
043FF0
07F000
060000
060000
060000
060000
060000
060018
07FFFC
060300
060300
060300
060300
060300
060300
060300
060300
06030C
7FFFFE
000000
000000
ENDCHAR
STARTCHAR 4E19
ENCODING 19993
SWIDTH 600 0
DWIDTH 24 0
BBX 24 24 0 -2
BITMAP
000000
00000C
7FFFFE
001800
001800
001800
101818
1FFFFC
181818
181818
181818
181818
183618
183318
186198
18C0D8
198098
1A0018
180018
180018
1800F8
180030
100020
000000
ENDCHAR
STARTCHAR 4E1A
ENCODING 19994
SWIDTH 600 0
DWIDTH 24 0
BBX 24 24 0 -2
BITMAP
008200
00E380
00C300
00C300
00C300
00C300
00C310
20C31C
10C318
08C338
0CC330
0CC320
06C360
06C340
06C340
06C380
04C300
00C300
00C300
00C300
00C30C
7FFFFE
000000
000000
ENDCHAR
STARTCHAR 4E1B
ENCODING 19995
SWIDTH 600 0
DWIDTH 24 0
BBX 24 24 0 -2
BITMAP
000000
020200
038380
030300
030300
030300
030300
030300
030300
030380
068280
0666C0
063640
0C2C60
0C0C60
181830
301838
20301E
406008
018000
00000C
7FFFFE
000000
000000
ENDCHAR
STARTCHAR 4E1C
ENCODING 19996
SWIDTH 600 0
DWIDTH 24 0
BBX 24 24 0 -2
BITMAP
002000
003800
003000
006000
00600C
7FFFFE
00C000
019000
031C00
031800
061800
0C1830
1FFFF8
081800
021900
0398C0
031860
061830
0C1818
18181C
30180C
60F808
803000
002000
ENDCHAR
STARTCHAR 4E1D
ENCODING 19997
SWIDTH 600 0
DWIDTH 24 0
BBX 24 24 0 -2
BITMAP
000000
020080
0380E0
0300C0
060180
062180
0C3B10
0C731C
186618
10C430
3FCFF0
118460
0300C0
020180
060300
0C0600
180400
3FEFF8
1E0780
000000
00000C
7FFFFE
000000
000000
ENDCHAR
STARTCHAR 4E1E
ENCODING 19998
SWIDTH 600 0
DWIDTH 24 0
BBX 24 24 0 -2
BITMAP
000000
000060
0FFFF0
0000E0
000180
001600
019C08
3FDA1C
019A30
019A60
019980
031900
031980
061880
0618C0
0C1860
181838
20181E
40F808
003000
002030
3FFFF8
000000
000000
ENDCHAR
STARTCHAR 4E22
ENCODING 20002
SWIDTH 600 0
DWIDTH 24 0
BBX 24 24 0 -2
BITMAP
000000
0000E0
000FF0
01FE00
1F1800
001800
001800
001860
0FFFF0
001800
001800
001800
00180C
7FFFFE
002000
003800
006000
00C100
0180C0
030060
040030
1FFFF8
0E0018
000010
ENDCHAR
STARTCHAR 4E24
ENCODING 20004
SWIDTH 600 0
DWIDTH 24 0
BBX 24 24 0 -2
BITMAP
000000
00000C
7FFFFE
00C300
00C300
00C300
10C318
1FFFFC
18C318
18C318
18C318
18C318
18E318
19B398
1996D8
1B1678
1A0C58
1C0818
181018
180018
180018
1800F8
180030
100020
ENDCHAR
STARTCHAR 4E25
ENCODING 20005
SWIDTH 600 0
DWIDTH 24 0
BBX 24 24 0 -2
BITMAP
000000
000018
3FFFFC
006600
086620
046638
066660
036640
026680
10660C
1FFFFE
180000
180000
180000
180000
180000
180000
180000
180000
300000
300000
600000
400000
800000
ENDCHAR
STARTCHAR 4E27
ENCODING 20007
SWIDTH 600 0
DWIDTH 24 0
BBX 24 24 0 -2
BITMAP
001000
001C00
001800
001830
1FFFF8
001800
061880
0318E0
019980
011900
001A0C
7FFFFE
062000
062020
061070
0610C0
060980
060E00
060600
060380
0661E0
07807E
0E0018
040000
ENDCHAR
STARTCHAR 4E28
ENCODING 20008
SWIDTH 600 0
DWIDTH 24 0
BBX 24 24 0 -2
BITMAP
001000
001C00
001800
001800
001800
001800
001800
001800
001800
001800
001800
001800
001800
001800
001800
001800
001800
001800
001800
001800
001800
001800
001800
001000
ENDCHAR
STARTCHAR 4E2A
ENCODING 20010
SWIDTH 600 0
DWIDTH 24 0
BBX 24 24 0 -2
BITMAP
001000
001C00
003800
003400
006600
00C300
018180
0310C0
061C60
0C1838
18181F
60180C
801800
001800
001800
001800
001800
001800
001800
001800
001800
001800
001800
001000
ENDCHAR
STARTCHAR 4E2B
ENCODING 20011
SWIDTH 600 0
DWIDTH 24 0
BBX 24 24 0 -2
BITMAP
000010
10001C
0C0030
070060
0380C0
01C180
00C200
009400
001800
001800
001800
001800
001800
001800
001800
001800
001800
001800
001800
001800
001800
001800
001800
001000
ENDCHAR
STARTCHAR 4E2C
ENCODING 20012
SWIDTH 600 0
DWIDTH 24 0
BBX 24 24 0 -2
BITMAP
000800
000E00
000C00
080C00
060C00
030C00
018C00
00CC00
00EC00
006C00
004C00
000C00
000C00
000C00
003C00
00EC00
038C00
1E0C00
0C0C00
000C00
000C00
000C00
000C00
000800
ENDCHAR
STARTCHAR 4E2D
ENCODING 20013
SWIDTH 600 0
DWIDTH 24 0
BBX 24 24 0 -2
BITMAP
001000
001C00
001800
001800
001800
101818
1FFFFC
181818
181818
181818
181818
181818
181818
1FFFF8
181818
101810
001800
001800
001800
001800
001800
001800
001800
001000
ENDCHAR
STARTCHAR 4E30
ENCODING 20016
SWIDTH 600 0
DWIDTH 24 0
BBX 24 24 0 -2
BITMAP
001000
001C00
001800
001800
001818
3FFFFC
001800
001800
001800
001860
1FFFF0
001800
001800
001800
001800
00180C
7FFFFE
001800
001800
001800
001800
001800
001800
001000
ENDCHAR
STARTCHAR 4E32
ENCODING 20018
SWIDTH 600 0
DWIDTH 24 0
BBX 24 24 0 -2
BITMAP
001000
001C00
001800
081830
0FFFF8
0C1830
0C1830
0C1830
0FFFF0
081820
001800
101818
1FFFFC
181818
181818
181818
181818
1FFFF8
181818
101810
001800
001800
001800
001000
ENDCHAR
STARTCHAR 4E34
ENCODING 20020
SWIDTH 600 0
DWIDTH 24 0
BBX 24 24 0 -2
BITMAP
020400
038700
030600
030600
230C0C
3B0FFE
331A00
331900
333180
3360C0
338080
33200C
333FFE
33318C
33318C
33318C
33318C
33318C
33318C
23318C
033FFC
03300C
032008
020000
ENDCHAR
STARTCHAR 4E36
ENCODING 20022
SWIDTH 600 0
DWIDTH 24 0
BBX 24 24 0 -2
BITMAP
000000
000000
000000
000000
000000
000000
000000
000000
000000
020000
018000
00E000
007000
003800
001800
001000
000000
000000
000000
000000
000000
000000
000000
000000
ENDCHAR
STARTCHAR 4E38
ENCODING 20024
SWIDTH 600 0
DWIDTH 24 0
BBX 24 24 0 -2
BITMAP
004000
007000
006000
006000
006000
006180
3FFFC0
006180
006180
00C180
08C180
06C180
038180
01C180
01E180
037184
033184
062184
060184
0C0186
1801FE
3000FC
400000
000000
ENDCHAR
STARTCHAR 4E39
ENCODING 20025
SWIDTH 600 0
DWIDTH 24 0
BBX 24 24 0 -2
BITMAP
000000
020060
03FFF0
030060
032060
031060
031860
030C60
030C60
030860
030066
7FFFFF
030060
030060
030060
030060
030060
030060
030060
060060
060060
0C03E0
0800C0
100080
ENDCHAR
STARTCHAR 4E3A
ENCODING 20026
SWIDTH 600 0
DWIDTH 24 0
BBX 24 24 0 -2
BITMAP
001000
001C00
0C1800
061800
031800
019800
011800
001818
3FFFFC
003018
003018
003018
006418
006618
006318
00C198
00C118
018018
030018
060018
0C0038
1807F0
2000E0
400040
ENDCHAR
STARTCHAR 4E3B
ENCODING 20027
SWIDTH 600 0
DWIDTH 24 0
BBX 24 24 0 -2
BITMAP
006000
003800
001C00
000C00
000800
000018
1FFFFC
001800
001800
001800
001800
001800
001830
1FFFF8
001800
001800
001800
001800
001800
001800
00180C
7FFFFE
000000
000000
ENDCHAR
STARTCHAR 4E3D
ENCODING 20029
SWIDTH 600 0
DWIDTH 24 0
BBX 24 24 0 -2
BITMAP
000000
00000C
7FFFFE
000000
000000
106418
1FF7FC
186618
186618
186618
1C6718
1A6698
1B66D8
196658
186658
186618
186618
186618
186618
186618
1BE6F8
18C630
108420
000000
ENDCHAR
STARTCHAR 4E3E
ENCODING 20030
SWIDTH 600 0
DWIDTH 24 0
BBX 24 24 0 -2
BITMAP
004040
0C2070
063060
0318C0
031880
021100
00010C
7FFFFE
00C200
019100
031CC0
061870
0C193F
1BFF8C
601800
801800
001830
1FFFF8
001800
001800
001800
001800
001800
001000
ENDCHAR
STARTCHAR 4E3F
ENCODING 20031
SWIDTH 600 0
DWIDTH 24 0
BBX 24 24 0 -2
BITMAP
000000
000800
000E00
000C00
000C00
000C00
000C00
000C00
000C00
000C00
000C00
000C00
000C00
001800
001800
003000
003000
006000
00C000
018000
030000
0C0000
300000
000000
ENDCHAR
STARTCHAR 4E43
ENCODING 20035
SWIDTH 600 0
DWIDTH 24 0
BBX 24 24 0 -2
BITMAP
000000
000060
1FFFF0
00C060
00C060
00C0C0
00C0C0
00C180
00C18C
00C3FE
00C10C
01800C
01800C
01800C
01800C
03000C
03000C
060018
0C0018
080038
1007F0
2000E0
400040
000000
ENDCHAR
STARTCHAR 4E45
ENCODING 20037
SWIDTH 600 0
DWIDTH 24 0
BBX 24 24 0 -2
BITMAP
008000
00E000
00C000
018000
018300
03FF80
030700
060600
060C00
0C0C00
180E00
101A00
201A00
003300
003100
006180
00C080
0180C0
030060
060070
0C003C
30001F
400008
000000
ENDCHAR
STARTCHAR 4E47
ENCODING 20039
SWIDTH 600 0
DWIDTH 24 0
BBX 24 24 0 -2
BITMAP
000000
0001C0
001FE0
00FC00
1FE000
006000
006000
006000
006000
00600C
0061FE
01FE00
FE6000
006000
006000
006000
006008
006008
006008
006008
00600C
007FFC
003FF8
000000
ENDCHAR
STARTCHAR 4E48
ENCODING 20040
SWIDTH 600 0
DWIDTH 24 0
BBX 24 24 0 -2
BITMAP
000000
000800
000E00
001C00
003800
003000
006000
00C200
018380
030700
060600
0C0C00
101800
203000
406080
004040
008060
010030
020018
0FFFFC
07F81C
02000C
000008
000000
ENDCHAR
STARTCHAR 4E49
ENCODING 20041
SWIDTH 600 0
DWIDTH 24 0
BBX 24 24 0 -2
BITMAP
000000
006040
003070
041860
041C60
020CC0
0208C0
0300C0
010180
018180
008300
00C300
004600
006600
003C00
001800
003C00
006600
00C300
0381C0
0600F0
18003E
600018
000000
ENDCHAR
STARTCHAR 4E4B
ENCODING 20043
SWIDTH 600 0
DWIDTH 24 0
BBX 24 24 0 -2
BITMAP
006000
003000
001800
001800
001000
000030
3FFFF8
000060
0000C0
000180
000300
000600
000C00
001800
003000
006000
00C000
038000
060000
1B0000
71FFFF
207FFC
000000
000000
ENDCHAR
STARTCHAR 4E4C
ENCODING 20044
SWIDTH 600 0
DWIDTH 24 0
BBX 24 24 0 -2
BITMAP
002000
003800
003000
0420C0
07FFE0
0600C0
0600C0
0600C0
0601C0
061F80
060700
060200
060018
0FFFFC
040018
000018
000198
7FFFD8
000018
000018
000038
0007F0
0000E0
000040
ENDCHAR
STARTCHAR 4E4D
ENCODING 20045
SWIDTH 600 0
DWIDTH 24 0
BBX 24 24 0 -2
BITMAP
008000
00E000
00C000
01800C
01FFFE
033000
033000
063000
0C3000
083030
103FF8
203000
403000
003000
003000
003018
003FFC
003000
003000
003000
003000
003000
003000
002000
ENDCHAR
STARTCHAR 4E4E
ENCODING 20046
SWIDTH 600 0
DWIDTH 24 0
BBX 24 24 0 -2
BITMAP
000020
0007F0
007FF8
1FF800
001820
001838
041870
021860
0318C0
019980
019900
011A0C
7FFFFE
001800
001800
001800
001800
001800
001800
001800
001800
00F800
003000
002000
ENDCHAR
STARTCHAR 4E4F
ENCODING 20047
SWIDTH 600 0
DWIDTH 24 0
BBX 24 24 0 -2
BITMAP
000000
000040
0007E0
00FFF0
3F8000
006000
003000
001800
001060
1FFFF0
0001C0
000380
000600
000C00
003000
00C000
018000
060000
1E0000
718000
20FFFE
007FF8
000000
000000
ENDCHAR
STARTCHAR 4E50
ENCODING 20048
SWIDTH 600 0
DWIDTH 24 0
BBX 24 24 0 -2
BITMAP
000000
0000F0
040FF8
07FE00
060000
060800
060E00
060C00
0C0C00
0C0C00
0C0C0C
1FFFFE
080C00
010C00
01CC80
038C60
030C30
060C18
0C0C0C
180C0E
600C06
807C04
001800
001000
ENDCHAR
STARTCHAR 4E52
ENCODING 20050
SWIDTH 600 0
DWIDTH 24 0
BBX 24 24 0 -2
BITMAP
000000
0001E0
021FF0
03FC00
030000
030000
030000
030030
03FFF8
030600
030600
030600
030600
030600
03060C
7FFFFE
000000
004000
00F000
01C000
030000
0C0000
300000
400000
ENDCHAR
STARTCHAR 4E53
ENCODING 20051
SWIDTH 600 0
DWIDTH 24 0
BBX 24 24 0 -2
BITMAP
000000
0000E0
020FF0
03FC00
030000
030000
030000
030030
03FFF8
030600
030600
030600
030600
030600
03060C
7FFFFE
000000
000C00
000380
0000E0
000070
000038
000018
000010
ENDCHAR
STARTCHAR 4E54
ENCODING 20052
SWIDTH 600 0
DWIDTH 24 0
BBX 24 24 0 -2
BITMAP
000040
0003E0
003FF0
1FFC00
003000
003000
00600C
7FFFFE
00C200
018100
018180
0300C0
068270
0CE3BE
30C318
40C300
00C300
00C300
018300
018300
030300
060300
040300
080200
ENDCHAR
STARTCHAR 4E56
ENCODING 20054
SWIDTH 600 0
DWIDTH 24 0
BBX 24 24 0 -2
BITMAP
000020
0003F0
00FFF8
1FF800
001800
00180C
7FFFFE
001800
011900
01D9C0
019990
3F999C
0199B0
0199E0
0199C4
019984
0F9984
7999FE
2118FC
001800
001800
001800
001800
001000
ENDCHAR
STARTCHAR 4E58
ENCODING 20056
SWIDTH 600 0
DWIDTH 24 0
BBX 24 24 0 -2
BITMAP
0003C0
003FE0
1FF800
001800
00180C
7FFFFE
011900
01D9C8
01999C
3F99B0
0199C4
019984
07B984
3D7DFE
105AFC
00DB00
019980
0318C0
061860
0C1838
30181F
40180C
001800
001000
ENDCHAR
STARTCHAR 4E59
ENCODING 20057
SWIDTH 600 0
DWIDTH 24 0
BBX 24 24 0 -2
BITMAP
000000
000000
000180
3FFFC0
000180
000300
000600
000C00
001800
003000
006000
00C000
018000
030000
060010
0C0010
0C0010
180010
180010
180018
1FFFF8
0FFFF0
000000
000000
ENDCHAR
STARTCHAR 4E5C
ENCODING 20060
SWIDTH 600 0
DWIDTH 24 0
BBX 24 24 0 -2
BITMAP
000000
020000
038000
030000
030040
0300E0
0301C0
0306C0
0338C0
03C0C0
0300C0
0F00C0
7300C0
0300C0
0300C0
0301C0
031F84
030704
030204
030004
030006
03FFFE
01FFFC
000000
ENDCHAR
STARTCHAR 4E5D
ENCODING 20061
SWIDTH 600 0
DWIDTH 24 0
BBX 24 24 0 -2
BITMAP
008000
00E000
00C000
00C000
00C000
00C300
00FF80
3FC300
00C300
00C300
00C300
00C300
00C300
018300
018300
018304
030304
030304
060304
0C0306
1803FE
3001FC
400000
000000
ENDCHAR
STARTCHAR 4E5E
ENCODING 20062
SWIDTH 600 0
DWIDTH 24 0
BBX 24 24 0 -2
BITMAP
004000
007000
00E000
00C000
018018
03FFFC
030000
060000
0C0000
180300
27FF80
400E00
001C00
003800
007000
00E000
01C004
038004
030004
060004
060006
07FFFE
03FFFC
000000
ENDCHAR
STARTCHAR 4E5F
ENCODING 20063
SWIDTH 600 0
DWIDTH 24 0
BBX 24 24 0 -2
BITMAP
001000
001C00
001800
001800
041860
071870
0619E0
061E60
067860
079860
1E1860
661860
061860
061860
061860
061BE0
0618C4
061884
061004
060004
060006
07FFFE
03FFFC
000000
ENDCHAR
STARTCHAR 4E60
ENCODING 20064
SWIDTH 600 0
DWIDTH 24 0
BBX 24 24 0 -2
BITMAP
000000
000000
000030
3FFFF8
000030
010030
008030
00C030
00C030
006030
006030
0041B0
000E30
007830
01E030
0F8030
7E0030
380070
100060
0000E0
000FC0
000380
000100
000000
ENDCHAR
STARTCHAR 4E61
ENCODING 20065
SWIDTH 600 0
DWIDTH 24 0
BBX 24 24 0 -2
BITMAP
001000
001800
003C00
003000
006040
00C060
0180F0
0201C0
0FFF00
070600
000C00
003820
00E038
010070
07FFE0
03C0C0
000180
000300
000600
001C00
007000
01C000
0E0000
300000
ENDCHAR
STARTCHAR 4E66
ENCODING 20070
SWIDTH 600 0
DWIDTH 24 0
BBX 24 24 0 -2
BITMAP
002000
003860
003038
00301C
00300C
003064
1FFFF0
003060
003060
003060
003060
00306C
7FFFFE
00300C
00300C
00300C
00300C
003018
003038
0033F0
0030E0
003040
003000
002000
ENDCHAR
STARTCHAR 4E69
ENCODING 20073
SWIDTH 600 0
DWIDTH 24 0
BBX 24 24 0 -2
BITMAP
020100
0381C0
030180
030180
030180
031980
03FD80
030180
030180
030180
030180
233180
3FF980
303180
303180
303180
303184
303184
303184
303184
3FF186
3031FE
2020FC
000000
ENDCHAR
STARTCHAR 4E70
ENCODING 20080
SWIDTH 600 0
DWIDTH 24 0
BBX 24 24 0 -2
BITMAP
000000
00000C
3FFFFE
00000C
040818
030E10
018C20
01CC00
188C00
0E0C00
060C00
030C00
020C00
000C0C
7FFFFE
001800
003400
003300
0060C0
00C070
018038
06001C
18000C
600004
ENDCHAR
STARTCHAR 4E71
ENCODING 20081
SWIDTH 600 0
DWIDTH 24 0
BBX 24 24 0 -2
BITMAP
000100
0071C0
03F980
3F8180
030180
030180
030180
031980
7FFD80
030180
030180
030180
233180
3FF980
303180
303180
303180
303184
303184
303184
3FF186
3031FE
2020FC
000000
ENDCHAR
STARTCHAR 4E73
ENCODING 20083
SWIDTH 600 0
DWIDTH 24 0
BBX 24 24 0 -2
BITMAP
000100
0039C0
07FD80
780180
020980
211D80
119980
193180
084980
7FFD80
001980
002180
014180
018180
019D80
03E180
7F8180
3D8184
118184
018184
018186
0F81FE
0300FC
020000
ENDCHAR
STARTCHAR 4E7E
ENCODING 20094
SWIDTH 600 0
DWIDTH 24 0
BBX 24 24 0 -2
BITMAP
020100
0381C0
030180
033180
7FFB0C
0303FE
030600
233400
3FF800
303010
3037F8
3FF030
303030
303060
3FF060
2320C0
0300C4
033184
7FF984
030304
030306
0303FE
0301FC
020000
ENDCHAR
STARTCHAR 4E86
ENCODING 20102
SWIDTH 600 0
DWIDTH 24 0
BBX 24 24 0 -2
BITMAP
000000
000018
3FFFFC
000030
0000E0
000180
000200
001400
001800
001800
001800
001800
001800
001800
001800
001800
001800
001800
001800
001800
001800
00F800
003000
002000
ENDCHAR
STARTCHAR 4E88
ENCODING 20104
SWIDTH 600 0
DWIDTH 24 0
BBX 24 24 0 -2
BITMAP
000000
000030
0FFFF8
000070
0000E0
030180
00E300
003C00
001C0C
7FFFFE
00180C
001818
001810
001820
001800
001800
001800
001800
001800
001800
001800
00F800
003000
002000
ENDCHAR
STARTCHAR 4E89
ENCODING 20105
SWIDTH 600 0
DWIDTH 24 0
BBX 24 24 0 -2
BITMAP
008000
00E000
00C180
01FFC0
018300
030600
060860
0FFFF0
181860
201860
001866
7FFFFF
001860
001860
001860
001860
0FFFE0
001860
001840
001800
001800
00F800
003000
002000
ENDCHAR
STARTCHAR 4E8B
ENCODING 20107
SWIDTH 600 0
DWIDTH 24 0
BBX 24 24 0 -2
BITMAP
001000
001C00
00180C
7FFFFE
001800
041860
07FFF0
061860
061860
07FFE0
041840
001830
1FFFF8
001830
001836
7FFFFF
001830
001830
1FFFF0
001820
001800
00F800
003000
002000
ENDCHAR
STARTCHAR 4E8C
ENCODING 20108
SWIDTH 600 0
DWIDTH 24 0
BBX 24 24 0 -2
BITMAP
000000
000000
000000
000000
000030
1FFFF8
000000
000000
000000
000000
000000
000000
000000
000000
000000
000000
000000
000000
00000C
7FFFFE
000000
000000
000000
000000
ENDCHAR
STARTCHAR 4E8D
ENCODING 20109
SWIDTH 600 0
DWIDTH 24 0
BBX 24 24 0 -2
BITMAP
000000
000000
000060
0FFFF0
000000
000000
000000
000000
00000C
7FFFFE
001800
001800
001800
001800
001800
001800
001800
001800
001800
001800
001800
00F800
003000
002000
ENDCHAR
STARTCHAR 4E8E
ENCODING 20110
SWIDTH 600 0
DWIDTH 24 0
BBX 24 24 0 -2
BITMAP
000000
000000
000030
1FFFF8
001800
001800
001800
001800
001800
00180C
7FFFFE
001800
001800
001800
001800
001800
001800
001800
001800
001800
001800
00F800
003000
002000
ENDCHAR
STARTCHAR 4E8F
ENCODING 20111
SWIDTH 600 0
DWIDTH 24 0
BBX 24 24 0 -2
BITMAP
000000
000060
0FFFF0
000000
000000
000000
000000
00000C
7FFFFE
00E000
00C000
018000
018060
03FFF0
010060
000060
000060
000060
000060
0000C0
0001C0
003F80
000700
000200
ENDCHAR
STARTCHAR 4E91
ENCODING 20113
SWIDTH 600 0
DWIDTH 24 0
BBX 24 24 0 -2
BITMAP
000000
000000
000060
0FFFF0
000000
000000
000000
000000
00000C
7FFFFE
002000
003800
006000
006000
00C100
018080
0300C0
060060
0C0030
3FFFF8
1F8018
080010
000000
000000
ENDCHAR
STARTCHAR 4E92
ENCODING 20114
SWIDTH 600 0
DWIDTH 24 0
BBX 24 24 0 -2
BITMAP
000000
000018
3FFFFC
006000
006000
006000
00C000
00C180
00FFC0
018180
018180
018180
030300
030300
030300
07FF00
020600
000600
000600
000C00
000C0C
7FFFFE
000000
000000
ENDCHAR
STARTCHAR 4E93
ENCODING 20115
SWIDTH 600 0
DWIDTH 24 0
BBX 24 24 0 -2
BITMAP
000000
000030
1FFFF8
000000
000000
000000
000000
00000C
7FFFFE
00C180
00C180
00C180
00C180
00C180
00C180
00C180
018180
018180
030180
030180
060180
0C0180
100180
200100
ENDCHAR
STARTCHAR 4E94
ENCODING 20116
SWIDTH 600 0
DWIDTH 24 0
BBX 24 24 0 -2
BITMAP
000000
000018
3FFFFC
003000
003000
003000
003000
006000
006000
0060C0
0FFFE0
0060C0
00C0C0
00C0C0
00C0C0
00C0C0
00C0C0
0180C0
0180C0
0180C0
0180C6
7FFFFF
000000
000000
ENDCHAR
STARTCHAR 4E95
ENCODING 20117
SWIDTH 600 0
DWIDTH 24 0
BBX 24 24 0 -2
BITMAP
008100
00E1C0
00C180
00C180
00C180
00C198
3FFFFC
00C180
00C180
00C180
00C180
00C180
00C18C
7FFFFE
018180
018180
018180
030180
030180
060180
0C0180
180180
200180
400100
ENDCHAR
STARTCHAR 4E98
ENCODING 20120
SWIDTH 600 0
DWIDTH 24 0
BBX 24 24 0 -2
BITMAP
000000
000000
000018
3FFFFC
000000
000000
040060
07FFF0
060060
060060
060060
060060
07FFE0
060060
060060
060060
060060
07FFE0
040040
000000
00000C
7FFFFE
000000
000000
ENDCHAR
STARTCHAR 4E9A
ENCODING 20122
SWIDTH 600 0
DWIDTH 24 0
BBX 24 24 0 -2
BITMAP
000000
000000
000018
3FFFFC
006600
006600
006600
106610
08661C
086618
0C6630
046630
066660
066640
0666C0
066680
046700
006600
006600
006600
00660C
7FFFFE
000000
000000
ENDCHAR
STARTCHAR 4E9B
ENCODING 20123
SWIDTH 600 0
DWIDTH 24 0
BBX 24 24 0 -2
BITMAP
000400
010700
01C600
118610
1D861C
198638
19A660
19F6C4
198704
198604
198604
198604
19F606
1F87FE
7803FC
200000
0000C0
0FFFE0
000000
000000
00000C
7FFFFE
000000
000000
ENDCHAR
STARTCHAR 4E9F
ENCODING 20127
SWIDTH 600 0
DWIDTH 24 0
BBX 24 24 0 -2
BITMAP
000000
000030
0FFFF8
000030
0000C0
001300
001C00
119818
1FDBFC
199818
199818
199918
199898
199870
199830
1F9870
1118D8
00198C
00FA04
003000
00200C
7FFFFE
000000
000000
ENDCHAR
STARTCHAR 4EA0
ENCODING 20128
SWIDTH 600 0
DWIDTH 24 0
BBX 24 24 0 -2
BITMAP
000000
003000
001800
000C00
000C00
000800
00000C
7FFFFE
000000
000000
000000
000000
000000
000000
000000
000000
000000
000000
000000
000000
000000
000000
000000
000000
ENDCHAR
STARTCHAR 4EA1
ENCODING 20129
SWIDTH 600 0
DWIDTH 24 0
BBX 24 24 0 -2
BITMAP
000000
003000
001800
000C00
000C00
00080C
7FFFFE
060000
060000
060000
060000
060000
060000
060000
060000
060000
060000
060000
060000
060018
0FFFFC
040000
000000
000000
ENDCHAR
STARTCHAR 4EA2
ENCODING 20130
SWIDTH 600 0
DWIDTH 24 0
BBX 24 24 0 -2
BITMAP
006000
003000
001800
001800
00100C
7FFFFE
000000
000000
010300
01FF80
018300
018300
018300
018300
018300
018300
018304
030304
030304
060304
0C0306
1803FE
6001FC
000000
ENDCHAR
STARTCHAR 4EA4
ENCODING 20132
SWIDTH 600 0
DWIDTH 24 0
BBX 24 24 0 -2
BITMAP
006000
003000
001800
001800
00100C
7FFFFE
010200
01C180
030060
060038
0C811C
1881CC
208188
404300
004300
002600
001C00
001800
003C00
00E700
0383E0
0E00FE
700038
000000
ENDCHAR
STARTCHAR 4EA5
ENCODING 20133
SWIDTH 600 0
DWIDTH 24 0
BBX 24 24 0 -2
BITMAP
003000
001800
000C00
00080C
7FFFFE
004000
00E000
018200
030380
020700
0FFE00
078C40
001870
0030E0
0061C0
018300
060600
180D00
0018C0
006060
018038
060018
180008
000000
ENDCHAR
STARTCHAR 4EA6
ENCODING 20134
SWIDTH 600 0
DWIDTH 24 0
BBX 24 24 0 -2
BITMAP
003000
001800
000C00
000800
00000C
7FFFFE
00C300
00C300
00C300
08C300
0EC340
0CC330
18C318
18C30C
10C30C
20C306
20C306
418304
018300
030300
061F00
180600
600400
000000
ENDCHAR
STARTCHAR 4EA7
ENCODING 20135
SWIDTH 600 0
DWIDTH 24 0
BBX 24 24 0 -2
BITMAP
003000
001800
000C00
00080C
3FFFFE
010080
0080C0
00C180
006100
08420C
0FFFFE
0C0000
0C0000
0C0000
0C0000
0C0000
0C0000
0C0000
180000
180000
300000
200000
400000
000000
ENDCHAR
STARTCHAR 4EA8
ENCODING 20136
SWIDTH 600 0
DWIDTH 24 0
BBX 24 24 0 -2
BITMAP
006000
003000
001800
00100C
7FFFFE
000000
040060
07FFF0
060060
060060
07FFE0
040000
000020
3FFFF0
000060
001180
001E00
001800
001800
001800
001800
00F800
003000
002000
ENDCHAR
STARTCHAR 4EA9
ENCODING 20137
SWIDTH 600 0
DWIDTH 24 0
BBX 24 24 0 -2
BITMAP
003000
001800
000C00
00080C
7FFFFE
000000
000000
080030
0FFFF8
0C1830
0C1830
0C1830
0C1830
0C1830
0FFFF0
0C1830
0C1830
0C1830
0C1830
0C1830
0FFFF0
0C0030
080020
000000
ENDCHAR
STARTCHAR 4EAB
ENCODING 20139
SWIDTH 600 0
DWIDTH 24 0
BBX 24 24 0 -2
BITMAP
003000
001800
00100C
7FFFFE
000000
0400C0
07FFE0
0600C0
0600C0
07FFC0
040080
000020
0FFFF0
0000C0
001300
001C0C
7FFFFE
001800
001800
001800
001800
00F800
003000
002000
ENDCHAR
STARTCHAR 4EAC
ENCODING 20140
SWIDTH 600 0
DWIDTH 24 0
BBX 24 24 0 -2
BITMAP
003000
001800
000C00
00080C
7FFFFE
000000
040060
07FFF0
060060
060060
060060
060060
060060
07FFE0
041840
011800
01D980
0318E0
061830
0C1818
18181C
20F808
403000
002000
ENDCHAR
STARTCHAR 4EAD
ENCODING 20141
SWIDTH 600 0
DWIDTH 24 0
BBX 24 24 0 -2
BITMAP
003000
001800
001018
3FFFFC
000000
0200C0
03FFE0
0300C0
0300C0
03FFC0
0300C0
20000C
3FFFFE
60000C
600048
4FFFE0
001800
001800
001800
001800
001800
00F800
003000
002000
ENDCHAR
STARTCHAR 4EAE
ENCODING 20142
SWIDTH 600 0
DWIDTH 24 0
BBX 24 24 0 -2
BITMAP
003000
001800
001018
3FFFFC
000000
0200C0
03FFE0
0300C0
0300C0
03FFC0
020080
10000C
1FFFFE
30000C
310310
61FFA0
018300
018304
018304
018304
030306
0603FE
1801FC
E00000
ENDCHAR
STARTCHAR 4EB2
ENCODING 20146
SWIDTH 600 0
DWIDTH 24 0
BBX 24 24 0 -2
BITMAP
003000
001800
000C00
000830
1FFFF8
000100
018180
00C300
006200
00440C
7FFFFE
001800
001800
001830
1FFFF8
001800
021900
0398C0
061870
0C1838
101818
60F810
003000
002000
ENDCHAR
STARTCHAR 4EB3
ENCODING 20147
SWIDTH 600 0
DWIDTH 24 0
BBX 24 24 0 -2
BITMAP
003000
001800
001018
3FFFFC
000000
03FFC0
0300C0
0300C0
03FFC0
020080
20000C
3FFFFE
60010C
600F90
41F800
1E3030
0031F8
00FF00
3F3004
003004
003004
003FFE
001FFC
000000
ENDCHAR
STARTCHAR 4EB5
ENCODING 20149
SWIDTH 600 0
DWIDTH 24 0
BBX 24 24 0 -2
BITMAP
003000
001800
00100C
7FFFFE
020400
038700
030660
3FDFF0
030660
03D660
7F0E68
231B28
033138
1F501C
063C4C
047070
00C8C0
038700
078300
198180
6198E0
01E07E
03C030
010000
ENDCHAR
STARTCHAR 4EBA
ENCODING 20154
SWIDTH 600 0
DWIDTH 24 0
BBX 24 24 0 -2
BITMAP
001000
001C00
001800
001800
001800
001800
003800
003800
003400
003400
006400
006200
00C200
00C300
018100
018180
0300C0
060060
0C0070
08003C
10001F
200008
400000
000000
ENDCHAR
STARTCHAR 4EBB
ENCODING 20155
SWIDTH 600 0
DWIDTH 24 0
BBX 24 24 0 -2
BITMAP
020000
038000
030000
030000
070000
060000
060000
0C0000
0F0000
1E0000
360000
260000
460000
860000
060000
060000
060000
060000
060000
060000
060000
060000
060000
040000
ENDCHAR
STARTCHAR 4EBF
ENCODING 20159
SWIDTH 600 0
DWIDTH 24 0
BBX 24 24 0 -2
BITMAP
020000
038000
030000
030030
077FF8
060060
0E00C0
0F00C0
1E0180
160300
360300
260600
460C00
860C00
061800
061804
063004
063004
066004
066004
066006
067FFE
063FFC
040000
ENDCHAR
STARTCHAR 4EC0
ENCODING 20160
SWIDTH 600 0
DWIDTH 24 0
BBX 24 24 0 -2
BITMAP
020200
038380
030300
030300
070300
060300
0E0300
0F0300
1E030C
16FFFE
360300
260300
460300
860300
060300
060300
060300
060300
060300
060300
060300
060300
060300
040200
ENDCHAR
STARTCHAR 4EC1
ENCODING 20161
SWIDTH 600 0
DWIDTH 24 0
BBX 24 24 0 -2
BITMAP
020000
038000
030000
030000
070000
060018
067FFC
0E0000
0F0000
1E0000
360000
260000
460000
860000
060000
060000
060000
060000
06000C
06FFFE
060000
060000
060000
040000
ENDCHAR
STARTCHAR 4EC2
ENCODING 20162
SWIDTH 600 0
DWIDTH 24 0
BBX 24 24 0 -2
BITMAP
040800
070E00
060C00
060C00
0E0C00
0C0C00
0C0C18
18FFFC
1E0C18
3C0C18
2C0C18
4C0C18
8C0C18
0C0C18
0C1818
0C1818
0C1818
0C3018
0C3018
0C6018
0CC038
0C83F0
0D00E0
0A0040
ENDCHAR
STARTCHAR 4EC3
ENCODING 20163
SWIDTH 600 0
DWIDTH 24 0
BBX 24 24 0 -2
BITMAP
020000
038000
030000
030006
077FFF
0600C0
0600C0
0C00C0
0F00C0
1E00C0
3600C0
2600C0
4600C0
8600C0
0600C0
0600C0
0600C0
0600C0
0600C0
0600C0
0600C0
0607C0
060180
040100
ENDCHAR
STARTCHAR 4EC4
ENCODING 20164
SWIDTH 600 0
DWIDTH 24 0
BBX 24 24 0 -2
BITMAP
000000
000000
08000C
0FFFFE
0C0000
0C0400
0C0700
0C0600
0C0600
0C0600
0C0600
0C0600
0C0600
0C0D00
0C0D00
0C0C80
0C1880
0C18C0
0C3060
183030
18601C
30C00F
210004
460000
ENDCHAR
STARTCHAR 4EC5
ENCODING 20165
SWIDTH 600 0
DWIDTH 24 0
BBX 24 24 0 -2
BITMAP
020000
038000
030018
037FFC
071018
061018
0E1018
0F1018
1E0818
160830
360830
260830
460460
860460
0606C0
060380
060380
060380
0606C0
060C70
061838
06301F
06400C
048000
ENDCHAR
STARTCHAR 4EC6
ENCODING 20166
SWIDTH 600 0
DWIDTH 24 0
BBX 24 24 0 -2
BITMAP
010200
01C380
018300
018300
038300
030300
030300
078300
070380
0F0360
1B0330
130318
23030C
43030E
030306
030304
030300
030300
030300
030300
030300
030300
030300
020200
ENDCHAR
STARTCHAR 4EC7
ENCODING 20167
SWIDTH 600 0
DWIDTH 24 0
BBX 24 24 0 -2
BITMAP
020800
038E00
030C00
070C00
060C00
060C00
0C0C60
0EFFF0
1C0C60
3C0C60
2C0C60
4C0C60
8C0C60
0C0C60
0C0C60
0C1860
0C1860
0C1864
0C3064
0C3064
0C6066
0C407E
0C803C
090000
ENDCHAR
STARTCHAR 4EC9
ENCODING 20169
SWIDTH 600 0
DWIDTH 24 0
BBX 24 24 0 -2
BITMAP
040000
070000
0620C0
063FE0
0E30C0
0C30C0
0C30C0
1830C0
1E30C0
3C30C0
2C30C0
4C30C0
8C30C0
0C30C0
0C30C0
0C30C0
0C30C4
0C60C4
0C60C4
0CC0C6
0C80FE
0D007C
0E0000
080000
ENDCHAR
STARTCHAR 4ECA
ENCODING 20170
SWIDTH 600 0
DWIDTH 24 0
BBX 24 24 0 -2
BITMAP
001000
001C00
003800
003400
006400
00C200
018300
030180
0630E0
0C1870
181C3C
600C1F
800808
000060
0FFFF0
0000C0
0000C0
000180
000180
000300
000600
000600
000C00
001800
ENDCHAR
STARTCHAR 4ECB
ENCODING 20171
SWIDTH 600 0
DWIDTH 24 0
BBX 24 24 0 -2
BITMAP
001000
001C00
001800
003800
003400
006200
00C300
0181C0
0300E0
060078
19011F
61C1CC
818180
018180
018180
018180
018180
030180
030180
060180
040180
080180
100180
200100
ENDCHAR
STARTCHAR 4ECD
ENCODING 20173
SWIDTH 600 0
DWIDTH 24 0
BBX 24 24 0 -2
BITMAP
020000
038000
030030
037FF8
071830
061830
0E1860
0F1860
1E18C0
1618CC
3619FE
26188C
46180C
86180C
06180C
06300C
06300C
06300C
06600C
06600C
06401C
06C1F8
068070
050020
ENDCHAR
STARTCHAR 4ECE
ENCODING 20174
SWIDTH 600 0
DWIDTH 24 0
BBX 24 24 0 -2
BITMAP
000000
040200
070380
060300
060300
060300
060300
060300
060300
060300
070300
068380
06C680
0C6640
0C6640
0C2C60
180C20
181830
303018
20601C
40C00F
818004
020000
000000
ENDCHAR
STARTCHAR 4ED1
ENCODING 20177
SWIDTH 600 0
DWIDTH 24 0
BBX 24 24 0 -2
BITMAP
001000
001C00
001800
003400
007600
006300
00C180
0180C0
030060
060038
1D001F
31C08C
C18180
0183C0
018E00
01B000
01C000
018020
018020
018020
018030
01FFF0
00FFE0
000000
ENDCHAR
STARTCHAR 4ED3
ENCODING 20179
SWIDTH 600 0
DWIDTH 24 0
BBX 24 24 0 -2
BITMAP
001000
001C00
003800
007400
006200
00C300
018180
0300E0
060378
0FFF9F
33030C
430300
830300
030300
030300
033F00
030E20
030420
030020
030030
03FFF0
01FFE0
000000
000000
ENDCHAR
STARTCHAR 4ED4
ENCODING 20180
SWIDTH 600 0
DWIDTH 24 0
BBX 24 24 0 -2
BITMAP
040000
070000
060018
067FFC
0E0018
0C0030
0C0240
180380
1E0300
3C0300
2C0300
4C0306
8DFFFF
0C0300
0C0300
0C0300
0C0300
0C0300
0C0300
0C0300
0C0300
0C1F00
0C0600
080400
ENDCHAR
STARTCHAR 4ED5
ENCODING 20181
SWIDTH 600 0
DWIDTH 24 0
BBX 24 24 0 -2
BITMAP
020200
038380
030300
030300
070300
060300
0C0300
0E030C
1EFFFE
160300
360300
260300
460300
860300
060300
060300
060300
060300
060300
060318
06FFFC
060000
060000
040000
ENDCHAR
STARTCHAR 4ED6
ENCODING 20182
SWIDTH 600 0
DWIDTH 24 0
BBX 24 24 0 -2
BITMAP
040200
070380
060300
060300
0E4300
0C7318
0C633C
1863D8
1E6718
3C7B18
2DE318
4C6318
8C6318
0C6318
0C6318
0C63F8
0C6330
0C6324
0C6204
0C6004
0C6006
0C7FFE
0C3FFC
080000
ENDCHAR
STARTCHAR 4ED7
ENCODING 20183
SWIDTH 600 0
DWIDTH 24 0
BBX 24 24 0 -2
BITMAP
040100
0701C0
060180
060180
0E0180
0C0180
0C018C
18FFFE
1E0180
3C4180
2C4180
4C4180
8C2180
0C2180
0C1100
0C1300
0C0B00
0C0600
0C0700
0C0F80
0C18E0
0C307E
0CC018
0B0000
ENDCHAR
STARTCHAR 4ED8
ENCODING 20184
SWIDTH 600 0
DWIDTH 24 0
BBX 24 24 0 -2
BITMAP
020040
038070
030060
030060
070060
060060
0E0066
0F7FFF
1E0060
160060
362060
261060
461860
860C60
060C60
060860
060060
060060
060060
060060
060060
0603E0
0600C0
040080
ENDCHAR
STARTCHAR 4ED9
ENCODING 20185
SWIDTH 600 0
DWIDTH 24 0
BBX 24 24 0 -2
BITMAP
040200
070380
060300
060300
0E0300
0C4310
0C731C
186318
1E6318
3C6318
2C6318
4C6318
8C6318
0C6318
0C6318
0C6318
0C6318
0C6318
0C6318
0C6318
0CFFF8
0C4018
0C0010
080000
ENDCHAR
STARTCHAR 4EDD
ENCODING 20189
SWIDTH 600 0
DWIDTH 24 0
BBX 24 24 0 -2
BITMAP
001000
001C00
003800
003400
006200
00C300
018180
0300C0
060060
0C0038
18001F
6000CC
8FFFE0
001800
001800
001800
001800
001800
001800
001800
001818
3FFFFC
000000
000000
ENDCHAR
STARTCHAR 4EDE
ENCODING 20190
SWIDTH 600 0
DWIDTH 24 0
BBX 24 24 0 -2
BITMAP
020000
038000
030000
03000C
067FFE
06060C
0C060C
0C060C
1E060C
3C260C
2C260C
4C260C
8C660C
0CC60C
0CC60C
0C860C
0C060C
0C0C0C
0C0C0C
0C180C
0C301C
0C61F8
0CC070
090020
ENDCHAR
STARTCHAR 4EDF
ENCODING 20191
SWIDTH 600 0
DWIDTH 24 0
BBX 24 24 0 -2
BITMAP
020000
038018
0300FC
030FC0
077B00
060300
0E0300
0F0300
1E0300
160300
360306
26FFFF
460300
860300
060300
060300
060300
060300
060300
060300
060300
060300
060300
040200
ENDCHAR
STARTCHAR 4EE1
ENCODING 20193
SWIDTH 600 0
DWIDTH 24 0
BBX 24 24 0 -2
BITMAP
020800
038E00
030C00
030C00
07180C
061FFE
063000
0C2000
0F4000
1E80C0
363FE0
260180
460300
860600
060600
060C00
060C04
061804
061804
063004
063006
063FFE
061FFC
040000
ENDCHAR
STARTCHAR 4EE3
ENCODING 20195
SWIDTH 600 0
DWIDTH 24 0
BBX 24 24 0 -2
BITMAP
040800
070E00
060CC0
060C60
0E0C30
0C0C20
0C0C0C
180FFE
1EFC00
3C0C00
2C0C00
4C0600
8C0600
0C0600
0C0600
0C0300
0C0308
0C0188
0C0188
0C00C8
0C0068
0C0038
0C001C
08000C
ENDCHAR
STARTCHAR 4EE4
ENCODING 20196
SWIDTH 600 0
DWIDTH 24 0
BBX 24 24 0 -2
BITMAP
001000
001C00
003800
007400
006200
00C300
018180
0330C0
061860
0C0C38
180C1F
60080C
800060
0FFFF0
0000E0
0000C0
000180
018300
006400
003800
001C00
000700
000300
000100
ENDCHAR
STARTCHAR 4EE5
ENCODING 20197
SWIDTH 600 0
DWIDTH 24 0
BBX 24 24 0 -2
BITMAP
000000
000080
1000E0
1C80C0
1840C0
1860C0
1830C0
1838C0
1818C0
1810C0
1800C0
1800C0
180180
181180
182180
184340
198320
1E0630
1C0C18
38181C
10600C
018008
060000
000000
ENDCHAR
STARTCHAR 4EE8
ENCODING 20200
SWIDTH 600 0
DWIDTH 24 0
BBX 24 24 0 -2
BITMAP
020000
038000
030000
030018
077FFC
060000
0E0000
0F0000
1E0000
160000
360030
263FF8
460000
860000
060000
060000
060000
060000
060000
06000C
06FFFE
060000
060000
040000
ENDCHAR
STARTCHAR 4EEA
ENCODING 20202
SWIDTH 600 0
DWIDTH 24 0
BBX 24 24 0 -2
BITMAP
040000
070800
060C20
064638
0E4730
0C4330
0C2230
182060
1E2060
3C1060
2C10C0
4C18C0
8C08C0
0C0D80
0C0580
0C0700
0C0700
0C0D80
0C18C0
0C3060
0C6038
0C801F
0D000C
080000
ENDCHAR
STARTCHAR 4EEB
ENCODING 20203
SWIDTH 600 0
DWIDTH 24 0
BBX 24 24 0 -2
BITMAP
040100
0701C0
060380
060300
0E0600
0C0C00
0C0C00
181840
1E3070
3C20E0
2C40C0
4C8180
8D0180
0C0300
0C0600
0C0420
0C0C10
0C1818
0C300C
0C41FE
0DFF06
0CE006
0C0004
080000
ENDCHAR
STARTCHAR 4EEC
ENCODING 20204
SWIDTH 600 0
DWIDTH 24 0
BBX 24 24 0 -2
BITMAP
040000
070000
063000
06180C
0E0DFE
0C080C
0C400C
18700C
1E600C
3C600C
2C600C
4C600C
8C600C
0C600C
0C600C
0C600C
0C600C
0C600C
0C600C
0C600C
0C600C
0C607C
0C6018
084010
ENDCHAR
STARTCHAR 4EF0
ENCODING 20208
SWIDTH 600 0
DWIDTH 24 0
BBX 24 24 0 -2
BITMAP
040000
070400
060E00
06590C
0E61FE
0C618C
0C618C
18618C
1E618C
3C618C
2C618C
4C618C
8C618C
0C638C
0C6D8C
0C798C
0C718C
0CE1FC
0C4198
0C0190
0C0180
0C0180
0C0180
080100
ENDCHAR
STARTCHAR 4EF2
ENCODING 20210
SWIDTH 600 0
DWIDTH 24 0
BBX 24 24 0 -2
BITMAP
040200
070380
060300
060300
0E0300
0C0300
0C430C
187FFE
1E630C
3C630C
2C630C
4C630C
8C630C
0C630C
0C7FFC
0C630C
0C4308
0C0300
0C0300
0C0300
0C0300
0C0300
0C0300
080200
ENDCHAR
STARTCHAR 4EF3
ENCODING 20211
SWIDTH 600 0
DWIDTH 24 0
BBX 24 24 0 -2
BITMAP
040100
0741C0
067180
066180
0E6180
0C6180
0C6190
18619C
1E61B0
3C69C0
2C7D80
4C6180
8C6180
0C6180
0C6180
0C6180
0C6184
0C6184
0C6584
0C6984
0C7186
0CE1FE
0C40FC
080000
ENDCHAR
STARTCHAR 4EF5
ENCODING 20213
SWIDTH 600 0
DWIDTH 24 0
BBX 24 24 0 -2
BITMAP
041000
071C00
061800
061800
0E3018
0C3FFC
0C6300
186300
1EC300
3C8300
2D0300
4C030C
8DFFFE
0C0300
0C0300
0C0300
0C0300
0C0300
0C0300
0C0300
0C0300
0C0300
0C0300
080200
ENDCHAR
STARTCHAR 4EF6
ENCODING 20214
SWIDTH 600 0
DWIDTH 24 0
BBX 24 24 0 -2
BITMAP
020100
0381C0
031180
031D80
071980
061180
0E318C
0F3FFE
1E6180
164180
368180
260180
460186
86FFFF
060180
060180
060180
060180
060180
060180
060180
060180
060180
040100
ENDCHAR
STARTCHAR 4EF7
ENCODING 20215
SWIDTH 600 0
DWIDTH 24 0
BBX 24 24 0 -2
BITMAP
040400
070700
060600
060D00
0E1900
0C1880
0C30C0
186060
1EC038
3CA09F
2D38EC
4E30C0
8C30C0
0C30C0
0C30C0
0C30C0
0C30C0
0C30C0
0C60C0
0C60C0
0CC0C0
0C80C0
0D00C0
0A0080
ENDCHAR
STARTCHAR 4EFB
ENCODING 20219
SWIDTH 600 0
DWIDTH 24 0
BBX 24 24 0 -2
BITMAP
040000
070010
060078
0607FC
0E7F00
0C0300
0C0300
180300
1E0300
3C0300
2C0306
4DFFFF
8C0300
0C0300
0C0300
0C0300
0C0300
0C0300
0C0300
0C0300
0C0318
0C7FFC
0C0000
080000
ENDCHAR
STARTCHAR 4EFD
ENCODING 20221
SWIDTH 600 0
DWIDTH 24 0
BBX 24 24 0 -2
BITMAP
040080
0710C0
061C80
061880
0E30C0
0C3040
0C3060
182030
1E6038
3CC01F
2C806C
4D7FF0
8E1860
0C1860
0C1860
0C1860
0C1860
0C3060
0C3060
0C6060
0C40E0
0C8FC0
0D0380
0A0100
ENDCHAR
STARTCHAR 4EFF
ENCODING 20223
SWIDTH 600 0
DWIDTH 24 0
BBX 24 24 0 -2
BITMAP
040000
070600
060300
060180
0E0100
0C000C
0DFFFE
180C00
1E0C00
3C0C30
2C0FF8
4C0C30
8C0C30
0C0C30
0C0C30
0C1830
0C1830
0C1830
0C3030
0C3030
0C6070
0CC7E0
0D01C0
0A0080
ENDCHAR
STARTCHAR 4F01
ENCODING 20225
SWIDTH 600 0
DWIDTH 24 0
BBX 24 24 0 -2
BITMAP
001000
001C00
003800
003400
006200
00C300
018180
0300C0
061070
0C1C3C
18181F
601808
821800
0398C0
031FE0
031800
031800
031800
031800
031800
03180C
7FFFFE
000000
000000
ENDCHAR
STARTCHAR 4F09
ENCODING 20233
SWIDTH 600 0
DWIDTH 24 0
BBX 24 24 0 -2
BITMAP
040000
070C00
060600
060300
0E020C
0DFFFE
0C0000
180000
1E20C0
3C3FE0
2C30C0
4C30C0
8C30C0
0C30C0
0C30C0
0C30C0
0C30C0
0C60C4
0C60C4
0C40C4
0CC0C6
0C80FE
0D007C
0A0000
ENDCHAR
STARTCHAR 4F0A
ENCODING 20234
SWIDTH 600 0
DWIDTH 24 0
BBX 24 24 0 -2
BITMAP
040000
070000
060030
06FFF8
0E0C30
0C0C30
0C0C30
180C36
1EFFFF
3C0C30
2C0C30
4C0C30
8C0C30
0C0C30
0CFFF0
0C0C30
0C0C20
0C1800
0C1800
0C3000
0C6000
0C4000
0C8000
090000
ENDCHAR
STARTCHAR 4F0D
ENCODING 20237
SWIDTH 600 0
DWIDTH 24 0
BBX 24 24 0 -2
BITMAP
040000
070000
06000C
06FFFE
0E0600
0C0600
0C0600
180600
1E0C00
3C0C30
2CFFF8
4C0C30
8C0C30
0C0C30
0C0C30
0C1830
0C1830
0C1830
0C1830
0C1830
0C1836
0DFFFF
0C0000
080000
ENDCHAR
STARTCHAR 4F0E
ENCODING 20238
SWIDTH 600 0
DWIDTH 24 0
BBX 24 24 0 -2
BITMAP
040400
070700
060600
060600
0E060C
0DFFFE
0C0600
180600
1E0600
3C0630
2CFFF8
4C2030
8C2060
0C1060
0C10C0
0C08C0
0C0D80
0C0700
0C0700
0C0D80
0C18E0
0C307E
0CC018
0B0000
ENDCHAR
STARTCHAR 4F0F
ENCODING 20239
SWIDTH 600 0
DWIDTH 24 0
BBX 24 24 0 -2
BITMAP
040400
070700
060600
060660
0E0630
0C0618
0C0610
180604
1EFFFE
3C0600
2C0600
4C0600
8C0D00
0C0D00
0C0C80
0C0C80
0C18C0
0C1840
0C3060
0C6030
0C4038
0C801F
0D000C
0A0000
ENDCHAR
STARTCHAR 4F10
ENCODING 20240
SWIDTH 600 0
DWIDTH 24 0
BBX 24 24 0 -2
BITMAP
040800
070E80
060C40
060C60
0E0C30
0C0C20
0C0C0C
180C3E
1E0FC0
3DFC00
2C0C10
4C0C1C
8C0C38
0C0C30
0C0660
0C06C0
0C0380
0C0304
0C0F84
0C18C4
0C6064
0D803C
0C001E
080006
ENDCHAR
STARTCHAR 4F11
ENCODING 20241
SWIDTH 600 0
DWIDTH 24 0
BBX 24 24 0 -2
BITMAP
040400
070700
060600
060600
0E0600
0C060C
0DFFFE
180F00
1E0F00
3C1E80
2C1E80
4C36C0
8C3640
0C6660
0C4620
0CC630
0C8618
0D061E
0E0608
0C0600
0C0600
0C0600
0C0600
080400
ENDCHAR
STARTCHAR 4F17
ENCODING 20247
SWIDTH 600 0
DWIDTH 24 0
BBX 24 24 0 -2
BITMAP
001000
001C00
003800
003400
006200
00C300
018180
0300E0
060278
1A039F
63830C
830300
030300
030300
068300
064680
066680
0C3640
0C2C60
181830
103038
20601F
41800C
020000
ENDCHAR
STARTCHAR 4F18
ENCODING 20248
SWIDTH 600 0
DWIDTH 24 0
BBX 24 24 0 -2
BITMAP
040800
070E00
060C80
060CC0
0E0C60
0C0C30
0C0C20
180C0C
1EFFFE
3C0D80
2C0D80
4C0D80
8C1980
0C1980
0C1980
0C1980
0C3180
0C3184
0C6184
0C6184
0CC186
0C81FE
0D00FC
0A0000
ENDCHAR
STARTCHAR 4F19
ENCODING 20249
SWIDTH 600 0
DWIDTH 24 0
BBX 24 24 0 -2
BITMAP
040400
070700
060600
060600
0E0600
0C0610
0C261C
182630
1E2660
3C66C0
2C6700
4CCD00
8CCD00
0C0C80
0C0C80
0C0C80
0C18C0
0C1860
0C3060
0C3030
0C6038
0CC01E
0D0008
0A0000
ENDCHAR
STARTCHAR 4F1A
ENCODING 20250
SWIDTH 600 0
DWIDTH 24 0
BBX 24 24 0 -2
BITMAP
001000
001C00
003800
007400
006200
00C300
018180
0300E0
060378
19FF9F
60000C
000000
000018
3FFFFC
002000
003800
007000
006000
00C180
0180E0
020070
0FFFF0
060030
000020
ENDCHAR
STARTCHAR 4F1B
ENCODING 20251
SWIDTH 600 0
DWIDTH 24 0
BBX 24 24 0 -2
BITMAP
040000
070000
06400C
067FFE
0E6000
0C6020
0C6038
186830
1E6430
3C6260
2C6160
4C60C0
8C60C0
0C61E0
0C6130
0C6330
0C6218
0C6418
0C6810
0C6000
0C600C
0CFFFE
0C4000
080000
ENDCHAR
STARTCHAR 4F1E
ENCODING 20254
SWIDTH 600 0
DWIDTH 24 0
BBX 24 24 0 -2
BITMAP
001000
001C00
003800
007400
006200
00C300
0191C0
031CF0
06183C
18181F
641844
831870
0198C0
019980
011900
001A0C
3FFFFE
001800
001800
001800
001800
001800
001800
001000
ENDCHAR
STARTCHAR 4F1F
ENCODING 20255
SWIDTH 600 0
DWIDTH 24 0
BBX 24 24 0 -2
BITMAP
040400
070700
060600
060618
0DFFFC
0C0600
0C0600
180630
1EFFF8
3C0600
2C0600
4C060C
8DFFFE
0C060C
0C060C
0C060C
0C060C
0C060C
0C067C
0C0618
0C0610
0C0600
0C0600
080400
ENDCHAR
STARTCHAR 4F20
ENCODING 20256
SWIDTH 600 0
DWIDTH 24 0
BBX 24 24 0 -2
BITMAP
040200
070380
060300
060300
0E0618
0CFFFC
0C0C00
180C00
1E0C00
3C180C
2DFFFE
4C1800
8C1000
0C3010
0C7FF8
0C2030
0C0060
0C00C0
0C3080
0C0D00
0C0700
0C01C0
0C00E0
080040
ENDCHAR
STARTCHAR 4F22
ENCODING 20258
SWIDTH 600 0
DWIDTH 24 0
BBX 24 24 0 -2
BITMAP
040000
070000
06000C
067FFE
0E0060
0C1060
0C1C60
181860
1E3060
3C3066
2C7FFF
4C21E0
8C0360
0C0660
0C0660
0C0C60
0C1860
0C3060
0C6060
0C8060
0D0060
0C03E0
0C00C0
080080
ENDCHAR
STARTCHAR 4F24
ENCODING 20260
SWIDTH 600 0
DWIDTH 24 0
BBX 24 24 0 -2
BITMAP
041000
071C00
061800
061800
0E300C
0C3FFE
0C6000
184400
1E8700
3C8600
2D0618
4C7FFC
8C0618
0C0618
0C0618
0C0C18
0C0C18
0C0C18
0C1818
0C1818
0C3038
0C63F0
0C80E0
090040
ENDCHAR
STARTCHAR 4F25
ENCODING 20261
SWIDTH 600 0
DWIDTH 24 0
BBX 24 24 0 -2
BITMAP
041000
071C00
061810
061838
0E1830
0C1860
0C18C0
181900
1E1A00
3C1C00
2C180C
4DFFFE
8C1900
0C1900
0C1880
0C1880
0C1840
0C1860
0C1830
0C189C
0C1B0F
0C1E04
0C3800
081000
ENDCHAR
STARTCHAR 4F26
ENCODING 20262
SWIDTH 600 0
DWIDTH 24 0
BBX 24 24 0 -2
BITMAP
040400
070700
060600
060D00
0E0D00
0C1880
0C18C0
183060
1E6038
3CC01F
2C900C
4D1C20
8E1870
0C18C0
0C1B80
0C1C00
0C1800
0C1808
0C1808
0C1808
0C180C
0C1FFC
0C0FF8
080000
ENDCHAR
STARTCHAR 4F27
ENCODING 20263
SWIDTH 600 0
DWIDTH 24 0
BBX 24 24 0 -2
BITMAP
040200
070380
060700
060680
0E0C80
0C0CC0
0C1860
183038
1E601E
3CE0C8
2D3FE0
4C30C0
8C30C0
0C30C0
0C30C0
0C30C0
0C37C0
0C3188
0C3108
0C3008
0C300C
0C3FFC
0C1FF8
080000
ENDCHAR
STARTCHAR 4F2A
ENCODING 20266
SWIDTH 600 0
DWIDTH 24 0
BBX 24 24 0 -2
BITMAP
020200
038380
030300
034300
076300
063300
0E2300
0F030C
1EFFFE
16060C
36060C
26060C
46068C
8606CC
06066C
060C4C
060C0C
060C0C
06180C
06180C
06301C
0621F8
064070
048020
ENDCHAR
STARTCHAR 4F2B
ENCODING 20267
SWIDTH 600 0
DWIDTH 24 0
BBX 24 24 0 -2
BITMAP
020200
038300
030180
030180
070100
06200C
063FFE
0C600C
0F6018
1E4010
360020
260000
460000
860000
060000
060000
060000
060000
060000
06000C
06FFFE
060000
060000
040000
ENDCHAR
STARTCHAR 4F2F
ENCODING 20271
SWIDTH 600 0
DWIDTH 24 0
BBX 24 24 0 -2
BITMAP
020000
038200
030380
030300
070600
062418
0E3FFC
0F3018
1E3018
163018
363018
263018
463018
863FF8
063018
063018
063018
063018
063018
063018
063FF8
063018
062010
040000
ENDCHAR
STARTCHAR 4F30
ENCODING 20272
SWIDTH 600 0
DWIDTH 24 0
BBX 24 24 0 -2
BITMAP
040200
070380
060300
060300
0E0300
0C0306
0DFFFF
180300
1E0300
3C0300
2C0300
4C4318
8C7FFC
0C6018
0C6018
0C6018
0C6018
0C6018
0C6018
0C6018
0C7FF8
0C6018
0C4010
080000
ENDCHAR
STARTCHAR 4F32
ENCODING 20274
SWIDTH 600 0
DWIDTH 24 0
BBX 24 24 0 -2
BITMAP
040000
070000
064018
067FFC
0E6018
0C6018
0C6018
186018
1E7FF8
3C6400
2C6710
4C661C
8C6630
0C6660
0C66C0
0C6700
0C6604
0C6604
0CC604
0CC604
0C8606
0D87FE
0D03FC
0A0000
ENDCHAR
STARTCHAR 4F34
ENCODING 20276
SWIDTH 600 0
DWIDTH 24 0
BBX 24 24 0 -2
BITMAP
040400
070700
060600
068610
0E4638
0C6660
0C3640
182680
1E0618
3CFFFC
2C0600
4C0600
8C0600
0C060C
0DFFFE
0C0600
0C0600
0C0600
0C0600
0C0600
0C0600
0C0600
0C0600
080400
ENDCHAR
STARTCHAR 4F36
ENCODING 20278
SWIDTH 600 0
DWIDTH 24 0
BBX 24 24 0 -2
BITMAP
040400
070700
060E00
060D00
0E1900
0C1080
0C30C0
186060
1EC438
3C861F
2D030C
4E0200
8C0030
0CFFF8
0C0070
0C0060
0C00C0
0C2180
0C1A00
0C0E00
0C0700
0C0380
0C0180
080080
ENDCHAR
STARTCHAR 4F38
ENCODING 20280
SWIDTH 600 0
DWIDTH 24 0
BBX 24 24 0 -2
BITMAP
040200
070380
060300
060300
0E0300
0C4318
0C7FFC
186318
1E6318
3C6318
2C7FF8
4C6318
8C6318
0C6318
0C6318
0C7FF8
0C6318
0C4310
0C0300
0C0300
0C0300
0C0300
0C0300
080200
ENDCHAR
STARTCHAR 4F3A
ENCODING 20282
SWIDTH 600 0
DWIDTH 24 0
BBX 24 24 0 -2
BITMAP
040000
070000
060018
067FFC
0E0018
0C0018
0C0198
18FFD8
1E0018
3C0018
2C4318
4C7F98
8C6318
0C6318
0C6318
0C6318
0C6318
0C7F18
0C6318
0C4218
0C0018
0C00F8
0C0030
080020
ENDCHAR
STARTCHAR 4F3C
ENCODING 20284
SWIDTH 600 0
DWIDTH 24 0
BBX 24 24 0 -2
BITMAP
040000
070020
060038
064030
0E7030
0C6430
0C6630
186330
1E6330
3C6230
2C6030
4C6030
8C6030
0C6030
0C6030
0C6260
0C6460
0C6870
0C70C8
0CE0CC
0C4186
0C0306
0C0C04
083000
ENDCHAR
STARTCHAR 4F3D
ENCODING 20285
SWIDTH 600 0
DWIDTH 24 0
BBX 24 24 0 -2
BITMAP
088000
0EE000
0CC000
0CC000
18C08C
18CCFE
1BFECC
1CCCCC
38CCCC
38CCCC
58CCCC
58CCCC
98CCCC
18CCCC
18CCCC
18CCCC
18CCCC
198CCC
198CFC
190CCC
1B7CCC
1A1888
1C1000
100000
ENDCHAR
STARTCHAR 4F43
ENCODING 20291
SWIDTH 600 0
DWIDTH 24 0
BBX 24 24 0 -2
BITMAP
040000
070000
060000
064018
0E7FFC
0C6318
0C6318
186318
1E6318
3C6318
2C6318
4C7FF8
8C6318
0C6318
0C6318
0C6318
0C6318
0C6318
0C6318
0C7FF8
0C6018
0C6018
0C4010
080000
ENDCHAR
STARTCHAR 4F46
ENCODING 20294
SWIDTH 600 0
DWIDTH 24 0
BBX 24 24 0 -2
BITMAP
040000
070000
062018
063FFC
0E3018
0C3018
0C3018
183018
1E3018
3C3FF8
2C3018
4C3018
8C3018
0C3018
0C3018
0C3FF8
0C3018
0C2010
0C0000
0C0000
0C000C
0CFFFE
0C0000
080000
ENDCHAR
STARTCHAR 4F4D
ENCODING 20301
SWIDTH 600 0
DWIDTH 24 0
BBX 24 24 0 -2
BITMAP
020000
038600
030300
030180
070100
060018
0EFFFC
0F0000
1E0040
1E2070
363060
261060
461060
861860
0618C0
060CC0
060CC0
060C80
060980
060100
06010C
07FFFE
060000
040000
ENDCHAR
STARTCHAR 4F4E
ENCODING 20302
SWIDTH 600 0
DWIDTH 24 0
BBX 24 24 0 -2
BITMAP
040000
070038
0641FC
067F80
0E6180
0C6180
0C6180
186180
1E6180
3C618C
2C7FFE
4C6180
8C6180
0C60C0
0C60C0
0C60C0
0C62C4
0C6464
0C7864
0C7234
0CE31C
0C418E
0C0186
080100
ENDCHAR
STARTCHAR 4F4F
ENCODING 20303
SWIDTH 600 0
DWIDTH 24 0
BBX 24 24 0 -2
BITMAP
020C00
038600
030700
070300
060200
060018
0CFFFC
0E0600
1C0600
3C0600
2C0600
4C0600
8C0630
0CFFF8
0C0600
0C0600
0C0600
0C0600
0C0600
0C0600
0C060C
0DFFFE
0C0000
080000
ENDCHAR
STARTCHAR 4F50
ENCODING 20304
SWIDTH 600 0
DWIDTH 24 0
BBX 24 24 0 -2
BITMAP
020400
038700
030600
070600
060600
06060C
0DFFFE
0E0C00
1C0C00
3C1800
2C1800
4C3018
8C3FFC
0C3180
0C6180
0C4180
0CC180
0C8180
0D0180
0E0180
0C018C
0DFFFE
0C0000
080000
ENDCHAR
STARTCHAR 4F51
ENCODING 20305
SWIDTH 600 0
DWIDTH 24 0
BBX 24 24 0 -2
BITMAP
040400
070700
060600
060600
0E0600
0C060C
0DFFFE
180C00
1E0C00
3C1800
2C1800
4C3018
8C3FFC
0C7818
0C5818
0C9818
0D1818
0E1818
0C1818
0C1818
0C1FF8
0C1818
0C1810
081000
ENDCHAR
STARTCHAR 4F53
ENCODING 20307
SWIDTH 600 0
DWIDTH 24 0
BBX 24 24 0 -2
BITMAP
040400
070700
060600
060600
0E0600
0C0618
0DFFFC
180E80
1E1E80
3C1E80
2C36C0
4C3640
8C6640
0C6620
0CC630
0C8618
0D065E
0EFFE8
0C0600
0C0600
0C0600
0C0600
0C0600
080400
ENDCHAR
STARTCHAR 4F55
ENCODING 20309
SWIDTH 600 0
DWIDTH 24 0
BBX 24 24 0 -2
BITMAP
040000
070000
06000C
06FFFE
0E0030
0C0030
0C0030
184330
1E7FB0
3C6330
2C6330
4C6330
8C6330
0C6330
0C6330
0C7F30
0C6230
0C4030
0C0030
0C0030
0C0030
0C01F0
0C0060
080040
ENDCHAR
STARTCHAR 4F57
ENCODING 20311
SWIDTH 600 0
DWIDTH 24 0
BBX 24 24 0 -2
BITMAP
020600
038300
030180
070180
06410C
067FFE
0C400C
0EC808
1D8E10
3C0C00
2C0C20
4C0C78
8C0CE0
0C0D80
0C0E00
0C0C00
0C0C00
0C0C04
0C0C04
0C0C04
0C0C06
0C0FFE
0C07FC
080000
ENDCHAR
STARTCHAR 4F58
ENCODING 20312
SWIDTH 600 0
DWIDTH 24 0
BBX 24 24 0 -2
BITMAP
001000
001C00
003800
003400
006600
00C300
018180
0300C0
060160
0DFFB8
30001F
40000C
800030
1FFFF8
001800
011900
0398C0
071860
0E1838
18181C
30180C
40F808
003000
002000
ENDCHAR
STARTCHAR 4F59
ENCODING 20313
SWIDTH 600 0
DWIDTH 24 0
BBX 24 24 0 -2
BITMAP
001000
001C00
003800
003400
006600
00C300
0181C0
0300E0
060338
1DFF9F
30180C
C01800
001830
1FFFF8
001800
011900
01D8C0
031870
061838
0C181C
10180C
60F808
003000
002000
ENDCHAR
STARTCHAR 4F5A
ENCODING 20314
SWIDTH 600 0
DWIDTH 24 0
BBX 24 24 0 -2
BITMAP
020200
038380
030300
072300
063B00
063300
0C3318
0E7FFC
1C6300
3C4300
2C8300
4C030C
8DFFFE
0C0680
0C0680
0C0680
0C0C40
0C0C40
0C0C60
0C1830
0C1818
0C301E
0C4008
088000
ENDCHAR
STARTCHAR 4F5B
ENCODING 20315
SWIDTH 600 0
DWIDTH 24 0
BBX 24 24 0 -2
BITMAP
020880
038EE0
030CC0
030CC0
060CCC
06FFFE
0C0CCC
0E0CCC
1C8CCC
3CFFFC
2CCCC8
4D8CC0
8D8CC6
0FFFFF
0D0CC6
0C0CC6
0C0CC6
0C18C6
0C18C6
0C30FE
0C60CC
0CC0C8
0D00C0
0A0080
ENDCHAR
STARTCHAR 4F5C
ENCODING 20316
SWIDTH 600 0
DWIDTH 24 0
BBX 24 24 0 -2
BITMAP
020800
038E00
030C00
030C00
07180C
061FFE
063600
0C2600
0F6600
1E4600
368618
2607FC
460600
860600
060600
06060C
0607FE
060600
060600
060600
060600
060600
060600
040400
ENDCHAR
STARTCHAR 4F5D
ENCODING 20317
SWIDTH 600 0
DWIDTH 24 0
BBX 24 24 0 -2
BITMAP
040800
070E00
060C00
061800
0E180C
0C3FFE
0C300C
18600C
1EC00C
3CA18C
2D3FCC
4E318C
8C318C
0C318C
0C318C
0C318C
0C318C
0C3F8C
0C318C
0C210C
0C001C
0C01F8
0C0070
080020
ENDCHAR
STARTCHAR 4F5E
ENCODING 20318
SWIDTH 600 0
DWIDTH 24 0
BBX 24 24 0 -2
BITMAP
040000
070030
06FFF8
060000
0E0000
0C0000
0C000C
19FFFE
1E0800
3C0E00
2C0C00
4C180C
8FFFFE
0C30E0
0C30C0
0C60C0
0C6180
0C1980
0C0700
0C07C0
0C0C70
0C3018
0CC008
090000
ENDCHAR
STARTCHAR 4F5F
ENCODING 20319
SWIDTH 600 0
DWIDTH 24 0
BBX 24 24 0 -2
BITMAP
020800
038E00
030C00
071818
061FFC
063038
0C6830
0E4860
1C84C0
3D0780
2C0300
4C07C0
8C0CF0
0C303F
0DC60C
0C0380
0C00C0
0C0040
0C0000
0C3E00
0C0780
0C01F0
0C0070
080010
ENDCHAR
STARTCHAR 4F60
ENCODING 20320
SWIDTH 600 0
DWIDTH 24 0
BBX 24 24 0 -2
BITMAP
020800
038E00
030C00
071800
061800
06300C
0C3FFE
0E620C
1C6398
3CC310
2C8300
4D2300
8C3B40
0C3330
0C6318
0C630C
0C430C
0CC306
0C8306
0D0304
0C0300
0C1F00
0C0600
080400
ENDCHAR
STARTCHAR 4F63
ENCODING 20323
SWIDTH 600 0
DWIDTH 24 0
BBX 24 24 0 -2
BITMAP
040000
070000
06400C
067FFE
0E630C
0C630C
0C630C
18630C
1E7FFC
3C630C
2C630C
4C630C
8C630C
0C7FFC
0C630C
0C630C
0C630C
0C630C
0CC30C
0CC30C
0D830C
0D027C
0E0018
080010
ENDCHAR
STARTCHAR 4F64
ENCODING 20324
SWIDTH 600 0
DWIDTH 24 0
BBX 24 24 0 -2
BITMAP
040000
070000
06000C
06FFFE
0E1800
0C1800
0C1800
181860
1E1FF0
3C3060
2C3060
4C3060
8C3660
0C3360
0C3360
0C6260
0C6064
0C6064
0C6364
0C6C64
0C7066
0CE07E
0C403C
080000
ENDCHAR
STARTCHAR 4F65
ENCODING 20325
SWIDTH 600 0
DWIDTH 24 0
BBX 24 24 0 -2
BITMAP
001000
001C00
003800
007400
00E600
00C300
018180
0300C0
060060
0C0038
18031F
63FF8C
802000
081040
041870
060860
030CC0
038CC0
018980
018100
010200
00040C
7FFFFE
000000
ENDCHAR
STARTCHAR 4F67
ENCODING 20327
SWIDTH 600 0
DWIDTH 24 0
BBX 24 24 0 -2
BITMAP
020400
038700
030600
030600
070618
0607FC
060600
0C0600
0F0600
1E060C
36FFFE
260400
460700
860600
060780
0606E0
060638
06060C
060604
060600
060600
060600
060600
040400
ENDCHAR
STARTCHAR 4F69
ENCODING 20329
SWIDTH 600 0
DWIDTH 24 0
BBX 24 24 0 -2
BITMAP
080000
0E0000
0D0030
0DFFF8
198030
198030
198130
1DBFB0
398430
398430
59A4B0
59BFB0
99A4B0
19A4B0
19A4B0
19A4B0
19A4B0
19A4B2
19A79A
19A51A
1B040E
1B0407
1A0403
140000
ENDCHAR
STARTCHAR 4F6C
ENCODING 20332
SWIDTH 600 0
DWIDTH 24 0
BBX 24 24 0 -2
BITMAP
020800
038E00
030C00
070C10
060CDC
06FFF8
0C0C30
0E0C60
1C0CC0
3C0D8C
2FFFFE
4C0600
8C0C20
0C1838
0C3860
0C78C0
0CDB08
0D1C08
0E1808
0C1808
0C180C
0C1FFC
0C0FF8
080000
ENDCHAR
STARTCHAR 4F6F
ENCODING 20335
SWIDTH 600 0
DWIDTH 24 0
BBX 24 24 0 -2
BITMAP
022020
039038
031830
030C60
070C40
060898
0EFFFC
0F0300
1E0300
160300
360330
267FF8
460300
860300
060300
060306
07FFFF
060300
060300
060300
060300
060300
060300
040200
ENDCHAR
STARTCHAR 4F70
ENCODING 20336
SWIDTH 600 0
DWIDTH 24 0
BBX 24 24 0 -2
BITMAP
040000
070000
06000C
06FFFE
0E0300
0C0600
0C0600
182418
1E3FFC
3C3018
2C3018
4C3018
8C3018
0C3018
0C3FF8
0C3018
0C3018
0C3018
0C3018
0C3018
0C3FF8
0C3018
0C3010
082000
ENDCHAR
STARTCHAR 4F73
ENCODING 20339
SWIDTH 600 0
DWIDTH 24 0
BBX 24 24 0 -2
BITMAP
040200
070380
060300
060300
0E0318
0C7FFC
0C0300
180300
1E0300
3C030C
2CFFFE
4C0200
8C0380
0C0300
0C0300
0C0318
0C7FFC
0C0300
0C0300
0C0300
0C030C
0DFFFE
0C0000
080000
ENDCHAR
STARTCHAR 4F74
ENCODING 20340
SWIDTH 600 0
DWIDTH 24 0
BBX 24 24 0 -2
BITMAP
040000
070000
060018
06FFFC
0E3060
0C3060
0C3060
183FE0
1E3060
3C3060
2C3060
4C3060
8C3FE0
0C3060
0C3060
0C3066
0C307F
0C3FE0
0DF060
0C0060
0C0060
0C0060
0C0060
080040
ENDCHAR
STARTCHAR 4F76
ENCODING 20342
SWIDTH 600 0
DWIDTH 24 0
BBX 24 24 0 -2
BITMAP
040400
070700
060600
060600
0E060C
0DFFFE
0C0600
180600
1E0600
3C0618
2CFFFC
4C0000
8C0000
0C4030
0C7FF8
0C6030
0C6030
0C6030
0C6030
0C6030
0C6030
0C7FF0
0C6030
084020
ENDCHAR
STARTCHAR 4F7B
ENCODING 20347
SWIDTH 600 0
DWIDTH 24 0
BBX 24 24 0 -2
BITMAP
041100
071DC0
061980
061980
0E1988
0C998E
0C9998
1859B0
1E79C0
3C5980
2C19C0
4C19A0
8C3998
0C798C
0DD984
0C9980
0C1980
0C1984
0C3184
0C3184
0C6186
0CC1FE
0D00FC
0A0000
ENDCHAR
STARTCHAR 4F7C
ENCODING 20348
SWIDTH 600 0
DWIDTH 24 0
BBX 24 24 0 -2
BITMAP
040C00
070600
060300
06020C
0EFFFE
0C0000
0C2080
183860
1E3038
3C609C
2CD0EC
4D90C4
8E10C0
0C1180
0C0980
0C0B00
0C0E00
0C0600
0C0F00
0C1980
0C30E0
0C607E
0D8018
0A0000
ENDCHAR
STARTCHAR 4F7E
ENCODING 20350
SWIDTH 600 0
DWIDTH 24 0
BBX 24 24 0 -2
BITMAP
040080
0710C0
061C80
0630C0
0E3040
0C6060
0C6030
18C01C
1EBFFF
3D3034
2E3030
4C3030
8C3FF0
0C3030
0C3030
0C3030
0C3FF0
0C3030
0C3030
0C3030
0C3030
0C31F0
0C3060
082040
ENDCHAR
STARTCHAR 4F7F
ENCODING 20351
SWIDTH 600 0
DWIDTH 24 0
BBX 24 24 0 -2
BITMAP
040200
070380
060300
06030C
0EFFFE
0C0300
0C0300
184318
1E7FFC
3C6318
2C6318
4C6318
8C6318
0C7FF8
0C4310
0C2300
0C1300
0C0F00
0C0600
0C0D80
0C18F0
0C303F
0CC00C
090000
ENDCHAR
STARTCHAR 4F83
ENCODING 20355
SWIDTH 600 0
DWIDTH 24 0
BBX 24 24 0 -2
BITMAP
040000
070000
064030
067FF8
0E6030
0C6030
0C6030
186030
1E7FF0
3C4020
2C0000
4C4440
8C7770
0C6660
0C6660
0C6660
0C6660
0C6664
0C6664
0C4664
0CC666
0C867E
0D043C
080000
ENDCHAR
STARTCHAR 4F84
ENCODING 20356
SWIDTH 600 0
DWIDTH 24 0
BBX 24 24 0 -2
BITMAP
040000
070000
060018
067FFC
0E0600
0C0700
0C0C40
181830
1E2018
3CFFFC
2C700C
4C0208
8C0380
0C0300
0C0318
0CFFFC
0C0300
0C0300
0C0300
0C0300
0C030C
0DFFFE
0C0000
080000
ENDCHAR
STARTCHAR 4F88
ENCODING 20360
SWIDTH 600 0
DWIDTH 24 0
BBX 24 24 0 -2
BITMAP
040800
070E00
060C00
061810
0E1FF8
0C3030
0C7060
18D8C0
1D0D80
3C0B00
2C0680
4C19C0
8C630C
0D87FE
0C0C0C
0C1A18
0C3318
0C61B0
0C8160
0C00C0
0C0180
0C0600
0C1800
086000
ENDCHAR
STARTCHAR 4F89
ENCODING 20361
SWIDTH 600 0
DWIDTH 24 0
BBX 24 24 0 -2
BITMAP
040200
070380
060700
06060C
0EFFFE
0C0D00
0C1880
1830C0
1E6160
3CDFB8
2C801F
4D006C
8EFFF0
0C1800
0C1800
0C3030
0C7FF8
0C2030
0C0030
0C0030
0C0070
0C07E0
0C01C0
080080
ENDCHAR
STARTCHAR 4F8B
ENCODING 20363
SWIDTH 600 0
DWIDTH 24 0
BBX 24 24 0 -2
BITMAP
040008
07000E
06030C
07FF8C
0E300C
0C304C
0C306C
18664C
1E7F4C
3CC64C
2CC64C
4C864C
8D464C
0D664C
0E3C4C
0C2C4C
0C184C
0C184C
0C300C
0C600C
0C800C
0D007C
0E0018
080010
ENDCHAR
STARTCHAR 4F8D
ENCODING 20365
SWIDTH 600 0
DWIDTH 24 0
BBX 24 24 0 -2
BITMAP
040200
070380
060300
060318
0E7FFC
0C0300
0C0300
180300
1E0306
3DFFFF
2C0040
4C0070
8C0060
0C006C
0CFFFE
0C0060
0C3060
0C1860
0C0C60
0C0860
0C0060
0C03E0
0C00C0
080080
ENDCHAR
STARTCHAR 4F8F
ENCODING 20367
SWIDTH 600 0
DWIDTH 24 0
BBX 24 24 0 -2
BITMAP
040200
070380
062300
063B00
0E3300
0C6318
0C7FFC
18C300
1E8300
3D0300
2C030C
4DFFFE
8C0F40
0C0F40
0C1B60
0C1B20
0C3330
0C3338
0C631C
0CC30F
0D0304
0C0300
0C0300
080200
ENDCHAR
STARTCHAR 4F91
ENCODING 20369
SWIDTH 600 0
DWIDTH 24 0
BBX 24 24 0 -2
BITMAP
040800
070E00
060C00
060C0C
0DFFFE
0C1800
0C1800
183030
1E3FF8
3C7030
2C7030
4CF030
8CBFF0
0D3030
0E3030
0C3030
0C3FF0
0C3030
0C3030
0C3030
0C3030
0C31F0
0C3060
082040
ENDCHAR
STARTCHAR 4F94
ENCODING 20372
SWIDTH 600 0
DWIDTH 24 0
BBX 24 24 0 -2
BITMAP
040200
070780
060600
060C40
0E1830
0C2018
0CFFFC
18420C
1E0384
3C2300
2C3300
4C6318
8CFFFC
0C8300
0D0300
0C030C
0DFFFE
0C0300
0C0300
0C0300
0C0300
0C0300
0C0300
080200
ENDCHAR
STARTCHAR 4F97
ENCODING 20375
SWIDTH 600 0
DWIDTH 24 0
BBX 24 24 0 -2
BITMAP
080000
0E800C
0CFFFE
0CC00C
18C00C
18C04C
18DFEC
38C00C
38C00C
38C8CC
58CFEC
58CCCC
98CCCC
18CCCC
18CCCC
18CCCC
18CFCC
18CC8C
18C80C
18C00C
18C00C
18C07C
18C018
108010
ENDCHAR
STARTCHAR 4F9B
ENCODING 20379
SWIDTH 600 0
DWIDTH 24 0
BBX 24 24 0 -2
BITMAP
041080
071CE0
0618C0
0618C0
0E18C0
0C18C8
0DFFFC
1818C0
1E18C0
3C18C0
2C18C0
4C18C0
8C18C0
0C18CC
0DFFFE
0C0000
0C0880
0C0E40
0C1830
0C3018
0C601C
0CC00C
0D0004
080000
ENDCHAR
STARTCHAR 4F9D
ENCODING 20381
SWIDTH 600 0
DWIDTH 24 0
BBX 24 24 0 -2
BITMAP
040C00
070600
060300
060300
0E020C
0DFFFE
0C0600
180600
1E0D10
3C0D1C
2C1918
4C3130
8C61A0
0C78C0
0CB080
0D30C0
0E3040
0C3060
0C3130
0C3238
0C341E
0C3808
0C7000
082000
ENDCHAR
STARTCHAR 4FA0
ENCODING 20384
SWIDTH 600 0
DWIDTH 24 0
BBX 24 24 0 -2
BITMAP
040400
070700
060600
060600
0E0618
0CFFFC
0C0600
188610
1E4638
3C6660
2C3640
4C2680
8C070C
0DFFFE
0C0D00
0C0D00
0C0D80
0C1880
0C18C0
0C3060
0C6038
0CC01E
0D8008
0A0000
ENDCHAR
STARTCHAR 4FA3
ENCODING 20387
SWIDTH 600 0
DWIDTH 24 0
BBX 24 24 0 -2
BITMAP
040000
070000
062018
063FFC
0E3018
0C3018
0C3018
183018
1E3018
3C3FF8
2C2010
4C0000
8C400C
0C7FFE
0C600C
0C600C
0C600C
0C600C
0C600C
0C600C
0C7FFC
0C600C
0C4008
080000
ENDCHAR
STARTCHAR 4FA5
ENCODING 20389
SWIDTH 600 0
DWIDTH 24 0
BBX 24 24 0 -2
BITMAP
020800
038E00
030C00
070C0C
060FFE
06FC00
0C0640
0E06E4
1C0384
3C0704
2C0CFE
4C707E
8D8000
0C0018
0DFFFC
0C1980
0C1980
0C1984
0C3184
0C3184
0C6186
0CC1FE
0D80FC
0A0000
ENDCHAR
STARTCHAR 4FA6
ENCODING 20390
SWIDTH 600 0
DWIDTH 24 0
BBX 24 24 0 -2
BITMAP
020400
038700
030600
07060C
0607FE
060600
0C0600
0E4618
1C7FFC
3C6018
2C6218
4C6398
8C6318
0C6318
0C6318
0C6318
0C6318
0C6610
0C46C0
0C0C30
0C1818
0C300C
0C6006
098004
ENDCHAR
STARTCHAR 4FA7
ENCODING 20391
SWIDTH 600 0
DWIDTH 24 0
BBX 24 24 0 -2
BITMAP
080008
0E000E
0D060C
0DFF4C
19066C
19264C
19364C
1D264C
39264C
39264C
59264C
59264C
99264C
19264C
19264C
19264C
19264C
19244C
18680C
18440C
18860C
18837C
190118
120010
ENDCHAR
STARTCHAR 4FA8
ENCODING 20392
SWIDTH 600 0
DWIDTH 24 0
BBX 24 24 0 -2
BITMAP
040000
070070
0603F8
06FF80
0E0600
0C0600
0C0C0C
19FFFE
1E1880
3C18C0
2C3060
4C6030
8CD05E
0D9C68
0E1860
0C1860
0C1860
0C1860
0C1860
0C3060
0C3060
0C6060
0D8060
0A0040
ENDCHAR
STARTCHAR 4FA9
ENCODING 20393
SWIDTH 600 0
DWIDTH 24 0
BBX 24 24 0 -2
BITMAP
020200
038380
030700
070680
060C40
061860
0C3030
0E601C
1CC00F
3D00C4
2E7FE0
4C0000
8C0000
0C000C
0DFFFE
0C0400
0C0600
0C0C80
0C1840
0C2020
0C4030
0CFFF8
0C6010
080000
ENDCHAR
STARTCHAR 4FAA
ENCODING 20394
SWIDTH 600 0
DWIDTH 24 0
BBX 24 24 0 -2
BITMAP
040C00
070600
060300
06020C
0EFFFE
0C2060
0C1860
180CC0
1E0780
3C03C0
2C06F0
4C0C3F
8C300C
0DD040
0C1C70
0C1860
0C1860
0C1860
0C1860
0C3060
0C3060
0C6060
0CC060
090040
ENDCHAR
STARTCHAR 4FAC
ENCODING 20396
SWIDTH 600 0
DWIDTH 24 0
BBX 24 24 0 -2
BITMAP
040200
070380
060300
060300
0E460C
0C7FFE
0C470C
18CD18
1E8D10
3C1900
2C1908
4C309C
8C30B0
0C7CC0
0C58C0
0C9840
0D1860
0C1860
0C1830
0C19B8
0C1E1C
0C1C0F
0C3804
081000
ENDCHAR
STARTCHAR 4FAE
ENCODING 20398
SWIDTH 600 0
DWIDTH 24 0
BBX 24 24 0 -2
BITMAP
041000
071C00
061800
06180C
0E3FFE
0C3000
0C6030
18FFF8
1DB230
3E3130
2C31B0
4C3134
8DFFFE
0C6430
0C6230
0C6330
0C6330
0C6234
0CFFFE
0C4030
0C0070
0C07E0
0C01C0
080080
ENDCHAR
STARTCHAR 4FAF
ENCODING 20399
SWIDTH 600 0
DWIDTH 24 0
BBX 24 24 0 -2
BITMAP
020000
038060
033FF0
070060
060060
06006C
0DFFFE
0E2000
1C3800
3C3030
2C7FF8
4C6300
8C4300
0C8300
0C030C
0DFFFE
0C0680
0C0680
0C0C40
0C1860
0C3030
0CC01E
0D0008
080000
ENDCHAR
STARTCHAR 4FB5
ENCODING 20405
SWIDTH 600 0
DWIDTH 24 0
BBX 24 24 0 -2
BITMAP
040000
070030
063FF8
060030
0E0030
0C1FF0
0C0030
180030
1E3FF0
3C0020
2C8004
4CFFFE
8D800C
0F0068
0C7FF0
0C1060
0C10C0
0C08C0
0C0580
0C0300
0C07C0
0C1CFE
0C6038
098000
ENDCHAR
STARTCHAR 4FBF
ENCODING 20415
SWIDTH 600 0
DWIDTH 24 0
BBX 24 24 0 -2
BITMAP
040000
07000C
06FFFE
060300
0E0300
0C4318
0C7FFC
186318
1E6318
3C7FF8
2C6318
4C6318
8C6318
0C7FF8
0C4310
0C2300
0C1300
0C1300
0C0E00
0C0700
0C0DE0
0C187E
0C6018
098000
ENDCHAR
STARTCHAR 4FC3
ENCODING 20419
SWIDTH 600 0
DWIDTH 24 0
BBX 24 24 0 -2
BITMAP
040000
070000
062030
063FF8
0E3030
0C3030
0C3030
183030
1E3030
3C3FF0
2C2320
4C0300
8C4300
0C7300
0C6318
0C63FC
0C6300
0C6300
0C7300
0CCB00
0CC700
0D83FF
0D01FC
0A0000
ENDCHAR
STARTCHAR 4FC4
ENCODING 20420
SWIDTH 600 0
DWIDTH 24 0
BBX 24 24 0 -2
BITMAP
040100
0701C0
060990
063D98
0EF18C
0C3188
0C3180
18318C
1EFFFE
3C3180
2C3190
4C319C
8C3598
0C79B0
0FF1B0
0D31E0
0C30C0
0C31C4
0C3364
0C3264
0C3434
0DF01C
0C600E
084006
ENDCHAR
STARTCHAR 4FC5
ENCODING 20421
SWIDTH 600 0
DWIDTH 24 0
BBX 24 24 0 -2
BITMAP
040200
070380
060300
060360
0E0330
0C0320
0C030C
18FFFE
1E0300
3C8310
2C631C
4C33B0
8C1BA0
0C1340
0C0740
0C1B20
0C6330
0DC31C
0C830F
0C0304
0C0300
0C1F00
0C0600
080400
ENDCHAR
STARTCHAR 4FCA
ENCODING 20426
SWIDTH 600 0
DWIDTH 24 0
BBX 24 24 0 -2
BITMAP
040400
070700
060C40
061830
0E2018
0CFFFC
0C7C0C
181088
1E3860
3C6038
2CC81C
4D0E0C
8C1830
0C3FF8
0C7070
0CC860
0D08C0
0C04C0
0C0780
0C0300
0C0DC0
0C3070
0CC03E
090018
ENDCHAR
STARTCHAR 4FCE
ENCODING 20430
SWIDTH 600 0
DWIDTH 24 0
BBX 24 24 0 -2
BITMAP
000000
041030
071FF8
061830
0C1830
0C1830
1B1830
199830
30DFF0
209830
441830
071830
061830
061830
0C1FF0
0E1830
191830
199830
30D830
609830
401836
81FFFF
000000
000000
ENDCHAR
STARTCHAR 4FCF
ENCODING 20431
SWIDTH 600 0
DWIDTH 24 0
BBX 24 24 0 -2
BITMAP
040200
070380
064310
06231C
0E3330
0C1B20
0C1340
184318
1E7FFC
3C6018
2C6018
4C6018
8C7FF8
0C6018
0C6018
0C6018
0C7FF8
0C6018
0C6018
0C6018
0C6018
0C60F8
0C6030
084020
ENDCHAR
STARTCHAR 4FD0
ENCODING 20432
SWIDTH 600 0
DWIDTH 24 0
BBX 24 24 0 -2
BITMAP
040008
07060E
061F0C
06F80C
0E188C
0C18EC
0C18CC
1818CC
1EFFCC
3C38CC
2C38CC
4C38CC
8C7CCC
0C5ACC
0CDACC
0C98CC
0D188C
0D180C
0E180C
0C180C
0C180C
0C187C
0C1818
081010
ENDCHAR
STARTCHAR 4FD1
ENCODING 20433
SWIDTH 600 0
DWIDTH 24 0
BBX 24 24 0 -2
BITMAP
040000
070018
06FFFC
060030
0E3060
0C0C80
0C0780
184118
1E7FFC
3C6318
2C6318
4C6318
8C7FF8
0C6318
0C6318
0C6318
0C7FF8
0C6318
0C6318
0C6318
0C6318
0C6378
0C6230
084020
ENDCHAR
STARTCHAR 4FD7
ENCODING 20439
SWIDTH 600 0
DWIDTH 24 0
BBX 24 24 0 -2
BITMAP
041000
071C80
061860
063038
0E301C
0C620C
0CC384
188700
1D0680
3C0CC0
2C1860
4C3038
8C601F
0DA004
0E3FF0
0C3030
0C3030
0C3030
0C3030
0C3030
0C3030
0C3FF0
0C3030
082020
ENDCHAR
STARTCHAR 4FD8
ENCODING 20440
SWIDTH 600 0
DWIDTH 24 0
BBX 24 24 0 -2
BITMAP
020000
038078
0307FC
037E00
070410
06661C
0E2330
0F3320
1E1240
160098
367FFC
260018
460260
860380
06030C
06FFFE
060300
060300
060300
060300
060300
061F00
060600
040400
ENDCHAR
STARTCHAR 4FDA
ENCODING 20442
SWIDTH 600 0
DWIDTH 24 0
BBX 24 24 0 -2
BITMAP
040000
074018
067FFC
066318
0E6318
0C6318
0C7FF8
186318
1E6318
3C6318
2C6318
4C7FF8
8C6310
0C4300
0C0300
0C0318
0CFFFC
0C0300
0C0300
0C0300
0C030C
0DFFFE
0C0000
080000
ENDCHAR
STARTCHAR 4FDC
ENCODING 20444
SWIDTH 600 0
DWIDTH 24 0
BBX 24 24 0 -2
BITMAP
040200
070380
060300
064318
0E7FFC
0C6318
0C6318
187FF8
1E6318
3C6318
2C7FF8
4C4000
8C000C
0DFFFE
0C1800
0C3030
0C7FF8
0C2030
0C0030
0C0030
0C0070
0C0FE0
0C01C0
080080
ENDCHAR
STARTCHAR 4FDD
ENCODING 20445
SWIDTH 600 0
DWIDTH 24 0
BBX 24 24 0 -2
BITMAP
040000
072030
063FF8
063030
0E3030
0C3030
0C3030
183030
1E3FF0
3C3330
2C2320
4C030C
8DFFFE
0C0F40
0C1B40
0C1B20
0C3320
0C3330
0C6318
0CC31C
0D030F
0E0304
0C0300
080200
ENDCHAR
STARTCHAR 4FDE
ENCODING 20446
SWIDTH 600 0
DWIDTH 24 0
BBX 24 24 0 -2
BITMAP
001000
001C00
003800
006400
00C300
0180C0
030378
0DFF9F
300004
C83020
0FFA38
0C33B0
0C3330
0C3330
0FF330
0C3330
0C3330
0FF330
0C3330
0C3230
0C3030
0DF1F0
0C6060
084040
ENDCHAR
STARTCHAR 4FDF
ENCODING 20447
SWIDTH 600 0
DWIDTH 24 0
BBX 24 24 0 -2
BITMAP
040400
070700
060C00
061840
0E3030
0C2018
0CFFFC
18500C
1E1C00
3C1830
2C3FF8
4C6300
8C8300
0C030C
0DFFFE
0C0680
0C0680
0C0C40
0C0C60
0C1830
0C3018
0C600F
0D8004
080000
ENDCHAR
STARTCHAR 4FE1
ENCODING 20449
SWIDTH 600 0
DWIDTH 24 0
BBX 24 24 0 -2
BITMAP
040C00
070600
060300
06020C
0EFFFE
0C0000
0C0000
180030
1E7FF8
3C0000
2C0030
4C7FF8
8C0000
0C0000
0C4030
0C7FF8
0C6030
0C6030
0C6030
0C6030
0C7FF0
0C6030
0C6030
084020
ENDCHAR
STARTCHAR 4FE3
ENCODING 20451
SWIDTH 600 0
DWIDTH 24 0
BBX 24 24 0 -2
BITMAP
040000
072030
063FF8
063030
0E3030
0C3030
0C3030
183FF0
1E2020
3C0000
2C0030
4C7FF8
8C0300
0C0300
0C030C
0DFFFE
0C0680
0C0680
0C0C40
0C0C60
0C1838
0C301F
0CC00C
090000
ENDCHAR
STARTCHAR 4FE6
ENCODING 20454
SWIDTH 600 0
DWIDTH 24 0
BBX 24 24 0 -2
BITMAP
040400
070700
060600
06060C
0EFFFE
0C0C00
0C0C30
18FFF8
1E0C00
3C180C
2DFFFE
4C1840
8C3070
0C3064
0C7FFE
0C6060
0CC860
0C8C60
0D0660
0E0460
0C0060
0C03E0
0C00C0
080080
ENDCHAR
STARTCHAR 4FE8
ENCODING 20456
SWIDTH 600 0
DWIDTH 24 0
BBX 24 24 0 -2
BITMAP
040000
070018
067FFC
060CC0
0E8CC8
0C4CCC
0C6CD8
186CD0
1E2CE0
3C8CCC
2CFFFE
4CC000
8CC000
0CC000
0CC000
0CC000
0CC000
0CC000
0CC000
0D8000
0D8000
0D0000
0E0000
080000
ENDCHAR
STARTCHAR 4FE9
ENCODING 20457
SWIDTH 600 0
DWIDTH 24 0
BBX 24 24 0 -2
BITMAP
080000
0E000C
0DFFFE
0C18C0
1818C0
1818C0
1918CC
1DFFFE
3998CC
3998CC
5998CC
5998CC
9998CC
1994CC
1996AC
19A5BC
19A12C
19C20C
19840C
19800C
19800C
19807C
198018
110010
ENDCHAR
STARTCHAR 4FEA
ENCODING 20458
SWIDTH 600 0
DWIDTH 24 0
BBX 24 24 0 -2
BITMAP
080000
0E0000
0C000C
0DFFFE
180000
180000
190918
1DFDFC
398918
398918
598918
598918
99C998
19A958
19B978
19A958
198918
198918
198918
198918
198918
198978
19B930
111120
ENDCHAR
STARTCHAR 4FED
ENCODING 20461
SWIDTH 600 0
DWIDTH 24 0
BBX 24 24 0 -2
BITMAP
020200
038380
030700
070680
060CC0
061840
0C3060
0E6030
1CC05C
3D3FEF
2E0004
4C0400
8C8410
0C461C
0C6318
0C3330
0C3320
0C3320
0C2240
0C0040
0C008C
0DFFFE
0C0000
080000
ENDCHAR
STARTCHAR 4FEE
ENCODING 20462
SWIDTH 600 0
DWIDTH 24 0
BBX 24 24 0 -2
BITMAP
040200
070380
060300
060618
0E07FC
0C8C18
0CCC30
189260
1EA1C0
3CC1E0
2C8638
4C8C9F
8CB0C4
0CC180
0C8320
0C8C70
0C90C0
0C8388
0C8E1C
0CB838
0C0060
0C01C0
0C0700
083800
ENDCHAR
STARTCHAR 4FEF
ENCODING 20463
SWIDTH 600 0
DWIDTH 24 0
BBX 24 24 0 -2
BITMAP
040600
070300
060180
068106
0EFFFF
0CC410
0CC71C
18C618
1ECC18
3CCC1A
2CDFFF
4CEC18
8CCC18
0CCD18
0CCD98
0CCCD8
0CCC98
0CCC18
0CCC18
0C8C18
0D8C18
0D0CF8
0E0C30
080820
ENDCHAR
STARTCHAR 4FF1
ENCODING 20465
SWIDTH 600 0
DWIDTH 24 0
BBX 24 24 0 -2
BITMAP
020000
03A030
033FF8
033030
073030
063FF0
0E3030
0F3030
1E3FF0
163030
363030
263FF0
463030
863030
063034
07FFFE
060000
061000
061CC0
063070
06601C
06C00C
070004
040000
ENDCHAR
STARTCHAR 4FF3
ENCODING 20467
SWIDTH 600 0
DWIDTH 24 0
BBX 24 24 0 -2
BITMAP
041080
071CE0
0618C0
0618C0
0E18C4
0DF8FE
0C18C0
1818C0
1E18C0
3C18C8
2CF8FC
4C18C0
8C18C0
0C18C0
0C18C4
0DF8FE
0C18C0
0C18C0
0C18C0
0C18C0
0C18C0
0C18C0
0C18C0
081080
ENDCHAR
STARTCHAR 4FF8
ENCODING 20472
SWIDTH 600 0
DWIDTH 24 0
BBX 24 24 0 -2
BITMAP
040400
070700
060630
06FFF8
0E0C00
0C0C60
0CFFF0
181800
1E180C
3DFFFE
2C3080
4C6440
8C6760
0CC638
0D865F
0E7FEC
0C0600
0C0630
0DFFF8
0C0600
0C0600
0C0600
0C0600
080400
ENDCHAR
STARTCHAR 4FFA
ENCODING 20474
SWIDTH 600 0
DWIDTH 24 0
BBX 24 24 0 -2
BITMAP
040400
070700
060600
060C18
0EFFFC
0C1900
0C3080
186440
1E8760
3D4638
2E7FFE
4C6668
8C6660
0C7FE0
0C6660
0C6660
0C6660
0C7FE4
0C6644
0C4604
0C0606
0C07FE
0C03FC
080000
ENDCHAR
STARTCHAR 4FFE
ENCODING 20478
SWIDTH 600 0
DWIDTH 24 0
BBX 24 24 0 -2
BITMAP
040400
070700
060C00
064818
0E7FFC
0C6318
0C6318
186318
1E7FF8
3C6318
2C6318
4C6618
8C7FF8
0C6610
0C0D00
0C31C0
0C418C
0DFFFE
0C0180
0C0180
0C0180
0C0180
0C0180
080100
ENDCHAR
STARTCHAR 500C
ENCODING 20492
SWIDTH 600 0
DWIDTH 24 0
BBX 24 24 0 -2
BITMAP
040C00
070600
060300
06820C
0EFFFE
0C800C
0D8010
192020
1E3FF8
3C3030
2C3030
4C3030
8C3FF0
0C3000
0C3000
0C3018
0C3FFC
0C3018
0C3018
0C3018
0C3FF8
0C3018
0C3010
082000
ENDCHAR
STARTCHAR 500D
ENCODING 20493
SWIDTH 600 0
DWIDTH 24 0
BBX 24 24 0 -2
BITMAP
040C00
070600
060300
060218
0EFFFC
0C0040
0C3070
181860
1E0CC0
3C0C80
2C090C
4DFFFE
8C0000
0C2030
0C3FF8
0C3030
0C3030
0C3030
0C3030
0C3030
0C3FF0
0C3030
0C3030
082020
ENDCHAR
STARTCHAR 500F
ENCODING 20495
SWIDTH 600 0
DWIDTH 24 0
BBX 24 24 0 -2
BITMAP
040400
070700
060C10
060FF8
0E9830
0CD460
0CA2C0
188180
1E83C0
3C8678
2C981F
4CE204
8C83A0
0C8330
0C8314
0CFFFE
0C8300
0C8700
0C06C0
0C0C30
0C1818
0C600C
0D8004
080000
ENDCHAR
STARTCHAR 5012
ENCODING 20498
SWIDTH 600 0
DWIDTH 24 0
BBX 24 24 0 -2
BITMAP
040008
07000E
06060C
06FF0C
0E200C
0C308C
0C60EC
1848CC
1E84CC
3DFECC
2CB4CC
4C30CC
8C30CC
0C34CC
0DFECC
0C30CC
0C30CC
0C308C
0C3E0C
0DF80C
0CC00C
0C007C
0C0018
080010
ENDCHAR
STARTCHAR 5014
ENCODING 20500
SWIDTH 600 0
DWIDTH 24 0
BBX 24 24 0 -2
BITMAP
040000
078018
06FFFC
06C018
0EC018
0CC018
0CFFF8
18C110
1EC1C0
3CD190
2CDD9C
4CD998
8CD998
0CFFF8
0CD190
0CC180
0CA188
0CB98E
0DB18C
0D318C
0D318C
0E7FFC
0C200C
080008
ENDCHAR
STARTCHAR 5018
ENCODING 20504
SWIDTH 600 0
DWIDTH 24 0
BBX 24 24 0 -2
BITMAP
040200
070380
064308
06630E
0E3318
0C1B30
0C1320
18834C
1EFFFE
3CC00C
2CC00C
4CC8CC
8CCFEC
0CCCCC
0CCCCC
0CCCCC
0CCCCC
0CCFCC
0CC88C
0CC00C
0CC00C
0CC07C
0CC018
088010
ENDCHAR
STARTCHAR 5019
ENCODING 20505
SWIDTH 600 0
DWIDTH 24 0
BBX 24 24 0 -2
BITMAP
040000
070060
061FF0
060060
0E0060
0C006C
0C7FFE
188800
1ECC00
3C9830
2C9FF8
4C9300
8CA300
0C830C
0CFFFE
0C8380
0C8680
0C8640
0C8C60
0C0C30
0C1838
0C601E
0D8008
080000
ENDCHAR
STARTCHAR 501A
ENCODING 20506
SWIDTH 600 0
DWIDTH 24 0
BBX 24 24 0 -2
BITMAP
040400
070700
060600
060618
0EFFFC
0C0E00
0C0D80
1818C0
1E3060
3CC02C
2FFFFE
4C0030
8C4330
0C7FB0
0C6330
0C6330
0C6330
0C7F30
0C6330
0C4030
0C0030
0C01F0
0C0060
080040
ENDCHAR
STARTCHAR 501C
ENCODING 20508
SWIDTH 600 0
DWIDTH 24 0
BBX 24 24 0 -2
BITMAP
080000
0E800C
0CFFFE
0CC20C
18C30C
18C34C
18DFEC
1CC30C
38C30C
38C32C
58FFFC
58C00C
98C8CC
18CFEC
18CCCC
18CCCC
18CCCC
18CFCC
198CCC
19888C
19000C
1B007C
1A0018
140010
ENDCHAR
STARTCHAR 501F
ENCODING 20511
SWIDTH 600 0
DWIDTH 24 0
BBX 24 24 0 -2
BITMAP
041040
071C70
061860
061860
0E1868
0CFFFC
0C1860
181860
1E1866
3DFFFF
2C0000
4C4018
8C7FFC
0C6018
0C6018
0C6018
0C7FF8
0C6018
0C6018
0C6018
0C7FF8
0C6018
0C6018
084010
ENDCHAR
STARTCHAR 5021
ENCODING 20513
SWIDTH 600 0
DWIDTH 24 0
BBX 24 24 0 -2
BITMAP
040000
072030
063FF8
063030
0E3030
0C3030
0C3FF0
183030
1E3030
3C3030
2C3FF0
4C2020
8C800C
0CFFFE
0CC00C
0CC00C
0CC00C
0CFFFC
0CC00C
0CC00C
0CC00C
0CFFFC
0CC00C
088008
ENDCHAR
STARTCHAR 5025
ENCODING 20517
SWIDTH 600 0
DWIDTH 24 0
BBX 24 24 0 -2
BITMAP
040600
070300
060180
06410C
0E7FFE
0CC00C
0CC810
189C80
1E1870
3C3018
2C600C
4C8004
8D0030
0C7FF8
0C0300
0C0300
0C0300
0C0300
0C0300
0C0300
0C030C
0DFFFE
0C0000
080000
ENDCHAR
STARTCHAR 5026
ENCODING 20518
SWIDTH 600 0
DWIDTH 24 0
BBX 24 24 0 -2
BITMAP
040400
070720
064638
062630
0E3660
0C1648
0CFFFC
180C00
1E0C00
3C180C
2DFFFE
4C3040
8C3060
0C7FF8
0CF0DE
0D30C8
0E30C0
0C37C8
0C3188
0C3108
0C300C
0C3FFC
0C1FF8
080000
ENDCHAR
STARTCHAR 5028
ENCODING 20520
SWIDTH 600 0
DWIDTH 24 0
BBX 24 24 0 -2
BITMAP
040000
074018
067FFC
066018
0E6018
0C6018
0C7FF8
186110
1E61C0
3C6180
2C618C
4C7FFE
8C6180
0C6180
0C7198
0CDFFC
0CD818
0CD818
0C9818
0D9818
0D1FF8
0E1818
0C1810
081000
ENDCHAR
STARTCHAR 5029
ENCODING 20521
SWIDTH 600 0
DWIDTH 24 0
BBX 24 24 0 -2
BITMAP
040400
070700
060618
06FFFC
0E0600
0C0630
0CFFF8
180600
1C060C
3FFFFE
2C0000
4C4030
8C7FF8
0C6030
0C6030
0C7FF0
0C6030
0C6030
0C7FF0
0C6030
0C6030
0C61F0
0C6060
084040
ENDCHAR
STARTCHAR 502A
ENCODING 20522
SWIDTH 600 0
DWIDTH 24 0
BBX 24 24 0 -2
BITMAP
040000
070200
060700
065818
0E60FC
0C6018
0C6018
186418
1E7EF8
3C6018
2C6018
4C6018
8C7FF8
0C4CD0
0C0CC0
0C0CC0
0C0CC0
0C18C4
0C18C4
0C30C4
0C60C6
0CC0FE
0D007C
080000
ENDCHAR
STARTCHAR 502C
ENCODING 20524
SWIDTH 600 0
DWIDTH 24 0
BBX 24 24 0 -2
BITMAP
040200
070380
060300
060318
0E03FC
0C0300
0C4318
187FFC
1E6018
3C6018
2C7FF8
4C6018
8C6018
0C7FF8
0C6318
0C4310
0C0306
0DFFFF
0C0300
0C0300
0C0300
0C0300
0C0300
080200
ENDCHAR
STARTCHAR 502D
ENCODING 20525
SWIDTH 600 0
DWIDTH 24 0
BBX 24 24 0 -2
BITMAP
040000
070070
0607F8
067F00
0E0300
0C0318
0DFFFC
181B40
1E1B60
3C3330
2C631E
4CC208
8D0800
0C0E00
0C0C0C
0DFFFE
0C1860
0C3060
0C70C0
0C0F80
0C07E0
0C0C78
0C3018
08C008
ENDCHAR
STARTCHAR 502E
ENCODING 20526
SWIDTH 600 0
DWIDTH 24 0
BBX 24 24 0 -2
BITMAP
040000
074018
067FFC
066318
0E6318
0C6318
0C7FF8
186318
1E6318
3C6318
2C7FF8
4C4300
8C030C
0DFFFE
0C0F40
0C0F40
0C1B20
0C1B20
0C3330
0C6318
0CC31E
0C8308
0D0300
080200
ENDCHAR
STARTCHAR 503A
ENCODING 20538
SWIDTH 600 0
DWIDTH 24 0
BBX 24 24 0 -2
BITMAP
040400
070700
060630
06FFF8
0E0600
0C0660
0C7FF0
180600
1E060C
3DFFFE
2C0000
4C4030
8C7FF8
0C6030
0C6430
0C6730
0C6630
0C6630
0C6720
0C4CC0
0C0C60
0C1830
0C6018
098010
ENDCHAR
STARTCHAR 503C
ENCODING 20540
SWIDTH 600 0
DWIDTH 24 0
BBX 24 24 0 -2
BITMAP
040400
070700
060600
060618
0EFFFC
0C0600
0C0600
184630
1E7FF8
3C6030
2C6030
4C7FF0
8C6030
0C6030
0C7FF0
0C6030
0C6030
0C7FF0
0C6030
0C6030
0C6034
0DFFFE
0C0000
080000
ENDCHAR
STARTCHAR 503E
ENCODING 20542
SWIDTH 600 0
DWIDTH 24 0
BBX 24 24 0 -2
BITMAP
080000
0E0000
0C000C
0D1FFE
19C0C0
198080
19888C
1D8FFE
39AC0C
39FC8C
598CEC
598CCC
998CCC
198CCC
198CCC
199CCC
19ACCC
19CD88
1B89A0
190318
18060C
180C0E
183006
10C004
ENDCHAR
STARTCHAR 5043
ENCODING 20547
SWIDTH 600 0
DWIDTH 24 0
BBX 24 24 0 -2
BITMAP
080000
0E800C
0CFFFE
0CC000
18CFF8
18CC18
18CC18
1CCFF8
38CC18
38CC18
58CFF8
58C980
98C18C
18DFFE
18C330
18C660
18C1C0
18C0E0
18C738
18DC08
18C000
19FFFE
188000
100000
ENDCHAR
STARTCHAR 5047
ENCODING 20551
SWIDTH 600 0
DWIDTH 24 0
BBX 24 24 0 -2
BITMAP
040000
078618
06FEFC
06C618
0EC618
0CC618
0CC618
18FEF8
1EC410
3CC000
2CC818
4CFDFC
8CC118
0CC118
0CC4B0
0CFEB0
0CC0F0
0CC060
0CC0E0
0CC1B0
0CC31C
0CCC0F
0CB004
080000
ENDCHAR
STARTCHAR 5048
ENCODING 20552
SWIDTH 600 0
DWIDTH 24 0
BBX 24 24 0 -2
BITMAP
040000
072030
063FF8
063030
0E3030
0C3FF0
0C3030
183030
1E3FF0
3C2820
2C0C00
4C180C
8C3FFE
0C620C
0CC30C
0D670C
0E648C
0C688C
0C600C
0CFFEC
0C401C
0C01F8
0C0070
080020
ENDCHAR
STARTCHAR 504C
ENCODING 20556
SWIDTH 600 0
DWIDTH 24 0
BBX 24 24 0 -2
BITMAP
042040
073870
063060
06306C
0EFFFE
0C3060
0C3460
182740
1E0600
3C060C
2DFFFE
4C0C00
8C1800
0C3030
0C7FF8
0C7030
0CB030
0D3030
0E3030
0C3030
0C3FF0
0C3030
0C3030
082020
ENDCHAR
STARTCHAR 504E
ENCODING 20558
SWIDTH 600 0
DWIDTH 24 0
BBX 24 24 0 -2
BITMAP
040000
074018
067FFC
066318
0E6318
0C6318
0C7FF8
186318
1E6318
3C6318
2C7FF8
4C4010
8C000C
0DFFFE
0C6400
0C6210
0C6338
0C61E0
0C6180
0C60C0
0C6670
0C783E
0CF018
084000
ENDCHAR
STARTCHAR 504F
ENCODING 20559
SWIDTH 600 0
DWIDTH 24 0
BBX 24 24 0 -2
BITMAP
040600
070300
060180
06410C
0E7FFE
0C600C
0C600C
18600C
1E7FFC
3C6000
2C600C
4C7FFE
8C724C
0CD24C
0CD24C
0CDFFC
0CD24C
0D924C
0D924C
0D124C
0E120C
0C107C
0C1018
080010
ENDCHAR
STARTCHAR 5055
ENCODING 20565
SWIDTH 600 0
DWIDTH 24 0
BBX 24 24 0 -2
BITMAP
044080
0770E0
0660C4
0660CE
0E64D8
0C7EE0
0C60C4
1860C4
1E66C6
3C78FE
2CF27C
4C4300
8C2430
0C3FF8
0C3030
0C3030
0C3030
0C3FF0
0C3030
0C3030
0C3030
0C3FF0
0C3030
082020
ENDCHAR
STARTCHAR 505A
ENCODING 20570
SWIDTH 600 0
DWIDTH 24 0
BBX 24 24 0 -2
BITMAP
042080
0738E0
0630C0
0630C0
0E30C0
0C3580
0DFF8C
1831FE
1E3198
3C3318
2C3318
4CB518
8CFD18
0CCCB0
0CCCB0
0CCCF0
0CCC60
0CCC60
0CFCE0
0CCDB0
0CC918
0C821E
0C0C08
081000
ENDCHAR
STARTCHAR 505C
ENCODING 20572
SWIDTH 600 0
DWIDTH 24 0
BBX 24 24 0 -2
BITMAP
040C00
070600
060300
060218
0EFFFC
0C0000
0C2030
183FF8
1E3030
3C3030
2C3FF0
4CA020
8C800C
0CFFFE
0D800C
0D8068
0D3FF0
0C0300
0C0300
0C0300
0C0300
0C1F00
0C0600
080400
ENDCHAR
STARTCHAR 5065
ENCODING 20581
SWIDTH 600 0
DWIDTH 24 0
BBX 24 24 0 -2
BITMAP
080100
0E01C0
0C0190
0C4FF8
1BE190
18C194
18DFFE
1D8190
390190
392FF0
5BF190
596188
986FFC
1A6180
1A6188
197FFC
196180
18C180
18C180
196100
193FFE
1A1FF8
1C0000
100000
ENDCHAR
STARTCHAR 506C
ENCODING 20588
SWIDTH 600 0
DWIDTH 24 0
BBX 24 24 0 -2
BITMAP
041000
071C00
061800
063018
0E3FFC
0C6CD8
0C4CD8
18B8D8
1E8D98
3D1B98
2C11D8
4C6258
8C8438
0C09F0
0C2060
0C3A00
0CB310
0CB18C
0DB126
0DB027
0F3033
0D3FF2
0C1FE0
080000
ENDCHAR
STARTCHAR 5076
ENCODING 20598
SWIDTH 600 0
DWIDTH 24 0
BBX 24 24 0 -2
BITMAP
040000
074018
067FFC
066318
0E6318
0C6318
0C7FF8
186318
1E6318
3C6318
2C7FF8
4C0300
8C830C
0CFFFE
0CC30C
0CC34C
0CC36C
0CC3EC
0CDF2C
0CCC0C
0CC00C
0CC07C
0CC018
088010
ENDCHAR
STARTCHAR 5077
ENCODING 20599
SWIDTH 600 0
DWIDTH 24 0
BBX 24 24 0 -2
BITMAP
020400
038700
030E00
070D00
0618C0
063060
0C6138
0EDF9F
1D800C
3E0010
2CFC1C
4CC498
8CC4D8
0CFC98
0CC498
0CC498
0CC498
0CFC98
0CC498
0CC498
0CC418
0CDCF8
0C8830
080020
ENDCHAR
STARTCHAR 507B
ENCODING 20603
SWIDTH 600 0
DWIDTH 24 0
BBX 24 24 0 -2
BITMAP
040200
074390
06331C
061B30
0E1320
0C0348
0CFFFC
180780
1E0F40
3C1B60
2C3338
4CC21E
8D0408
0C0604
0DFFFE
0C0C60
0C1860
0C30C0
0C0D80
0C03C0
0C0670
0C181C
0C6004
098000
ENDCHAR
STARTCHAR 507E
ENCODING 20606
SWIDTH 600 0
DWIDTH 24 0
BBX 24 24 0 -2
BITMAP
040400
070700
060618
06FFFC
0E0600
0C4640
0C7670
186064
1FFFFE
3C6060
2C6060
4C8030
8CFFF8
0CC030
0CC430
0CC730
0CC630
0CC630
0CCC20
0C8D80
0C1860
0C603C
0D800C
0A0004
ENDCHAR
STARTCHAR 507F
ENCODING 20607
SWIDTH 600 0
DWIDTH 24 0
BBX 24 24 0 -2
BITMAP
040400
070720
064638
066630
0E3660
0C3640
0CA68C
18FFFE
1E800C
3D8008
2D0060
4C7FF0
8C0000
0C0000
0C000C
0DFFFE
0C0C00
0C1840
0C3020
0C4030
0DFFF8
0CF018
0C0008
080000
ENDCHAR
STARTCHAR 5080
ENCODING 20608
SWIDTH 600 0
DWIDTH 24 0
BBX 24 24 0 -2
BITMAP
040400
070700
060C00
068818
0EFFFC
0CC318
0CC318
18C318
1EFFF8
3CC318
2CC618
4CC618
8CFFF8
0C8620
0C0E20
0C0F40
0C1B50
0C1BF4
0C3354
0C6304
0CC306
0C83FE
0D01FC
0A0000
ENDCHAR
STARTCHAR 5085
ENCODING 20613
SWIDTH 600 0
DWIDTH 24 0
BBX 24 24 0 -2
BITMAP
040400
070760
060630
060624
0EFFFE
0C0600
0C8618
18FFFC
1EC618
3CC618
2CFFF8
4CC618
8CC618
0CFFF8
0CC618
0C8450
0C0064
0DFFFE
0C0060
0C3060
0C1860
0C1060
0C03E0
0800C0
ENDCHAR
STARTCHAR 5088
ENCODING 20616
SWIDTH 600 0
DWIDTH 24 0
BBX 24 24 0 -2
BITMAP
080000
0E0018
0DFFFC
0C1980
181980
191998
19FFFC
1D9998
399998
399998
599998
59FFF8
990600
18060C
1BFFFE
180F00
181E80
1836C0
183660
186638
18C61E
190608
1A0600
100400
ENDCHAR
STARTCHAR 508D
ENCODING 20621
SWIDTH 600 0
DWIDTH 24 0
BBX 24 24 0 -2
BITMAP
040C00
070600
060300
060218
0EFFFC
0C2040
0C1860
188884
1EFFFE
3C800C
2D8610
4D0320
8C020C
0DFFFE
0C1800
0C1830
0C1FF8
0C1830
0C3030
0C3030
0C6070
0C47E0
0C81C0
090080
ENDCHAR
STARTCHAR 50A3
ENCODING 20643
SWIDTH 600 0
DWIDTH 24 0
BBX 24 24 0 -2
BITMAP
040400
070700
060618
06FFFC
0E0C00
0C0C30
0C7FF8
181800
1C180C
3DFFFE
2C3040
4C6020
8C4430
0CC71C
0DA64F
0E3664
0C26C0
0C0F00
0C36C0
0DC670
0C8618
0C3E08
0C0C00
080800
ENDCHAR
STARTCHAR 50A5
ENCODING 20645
SWIDTH 600 0
DWIDTH 24 0
BBX 24 24 0 -2
BITMAP
040400
074720
066638
063660
0E2640
0C868C
0CFFFE
19800C
1D8010
3D4060
2C7FF0
4C6060
8C6060
0C6060
0C7FE0
0C5980
0C1980
0C1984
0C3184
0C3184
0C6186
0CC1FE
0D00FC
0A0000
ENDCHAR
STARTCHAR 50A7
ENCODING 20647
SWIDTH 600 0
DWIDTH 24 0
BBX 24 24 0 -2
BITMAP
040600
070300
060180
06410C
0E7FFE
0CC00C
0C8068
1823F0
1E3F00
3C3000
2C3018
4C3FFC
8C30C0
0C30C0
0C30C0
0C30CC
0DFFFE
0C0000
0C0840
0C1C30
0C3018
0C600C
0C800C
090004
ENDCHAR
STARTCHAR 50A8
ENCODING 20648
SWIDTH 600 0
DWIDTH 24 0
BBX 24 24 0 -2
BITMAP
080200
0E0380
0C0300
0D0308
19832E
18DFFC
188318
1C0330
380366
38FFFF
5BC180
58C300
98C618
18CFFC
18D618
18E618
18C618
18D7F8
18E618
18E618
19C618
1887F8
180618
100410
ENDCHAR
STARTCHAR 50A9
ENCODING 20649
SWIDTH 600 0
DWIDTH 24 0
BBX 24 24 0 -2
BITMAP
040000
070240
0603A0
060330
0C2320
0DF30C
0C67FE
186660
1E6660
3D6E68
2D4FFC
4CD660
8CC660
0CC660
0CA668
0DA7FC
0D3660
0D3660
0E2660
0C0664
0C07FE
0C0600
0C0600
080400
ENDCHAR
STARTCHAR 50AC
ENCODING 20652
SWIDTH 600 0
DWIDTH 24 0
BBX 24 24 0 -2
BITMAP
040200
074390
06731C
066318
0E6318
0CFFF8
0C5310
181980
1E308C
3C7FFE
2C6180
4CE180
8CE198
0D7FFC
0E6180
0C6180
0C6198
0C7FFC
0C6180
0C6180
0C618C
0C7FFE
0C6000
084000
ENDCHAR
STARTCHAR 50B2
ENCODING 20658
SWIDTH 600 0
DWIDTH 24 0
BBX 24 24 0 -2
BITMAP
084040
0E7070
0C6060
0C6460
1BFE60
1860C0
1868CC
1BFCFE
386198
386598
5FFE98
58C298
98C098
18CC98
18FE90
18CCD0
18CC70
18CC60
198CE0
198CB0
191D98
1B791C
1A320F
142404
ENDCHAR
STARTCHAR 50BA
ENCODING 20666
SWIDTH 600 0
DWIDTH 24 0
BBX 24 24 0 -2
BITMAP
042000
073080
06648C
067EFE
0CC48C
0CCCD8
0DA850
199860
1ED020
3C61B0
2C5FD8
4C801E
8D0008
0E0060
0CFFF0
0C0600
0C4640
0C7630
0C6618
0CC61C
0C860C
0D3E08
0C0C00
080800
ENDCHAR
STARTCHAR 50BB
ENCODING 20667
SWIDTH 600 0
DWIDTH 24 0
BBX 24 24 0 -2
BITMAP
040200
070300
06440C
067FFE
0E604C
0C6EEC
0C618C
1866EC
1E682C
3C7FFC
2C5008
4C1860
8C3018
0C660C
0CCC66
0D1FF4
0C3060
0C68C0
0D8580
0C0300
0C07C0
0C0CFE
0C7038
098000
ENDCHAR
STARTCHAR 50CF
ENCODING 20687
SWIDTH 600 0
DWIDTH 24 0
BBX 24 24 0 -2
BITMAP
040E00
070C60
061FF0
063040
0E6098
0CFFFC
0D6318
186318
1E6618
3C7FF8
2C0C00
4C1C08
8C361C
0C6730
0D8DC0
0C13C0
0C67A0
0D8DB0
0C1998
0C619C
0D838F
0C1F04
0C0600
080400
ENDCHAR
STARTCHAR 50D6
ENCODING 20694
SWIDTH 600 0
DWIDTH 24 0
BBX 24 24 0 -2
BITMAP
040200
070380
06030C
06FFFE
0E0300
0C0318
0C7FFC
180000
1E7FF8
3C6018
2C6018
4C7FF8
8C2020
0C1830
0C0844
0DFFFE
0C0000
0C4018
0C7FFC
0C6018
0C6018
0C7FF8
0C6018
084010
ENDCHAR
STARTCHAR 50DA
ENCODING 20698
SWIDTH 600 0
DWIDTH 24 0
BBX 24 24 0 -2
BITMAP
040400
070700
060600
06060C
0EFFFE
0C0D10
0D18D8
18B070
1E6020
3C7FF8
2CE07E
4D6068
8E7FE0
0C6060
0C6060
0C7FE0
0C0600
0C4640
0C6620
0CC630
0D8618
0E3E0C
0C0C08
080800
ENDCHAR
STARTCHAR 50E6
ENCODING 20710
SWIDTH 600 0
DWIDTH 24 0
BBX 24 24 0 -2
BITMAP
080080
0E40E0
0C60D8
0C30CC
1824C6
1BFEC4
1800C0
1D0CC4
39FFFE
398CC0
598CE0
598CE0
998CE0
19FCE0
186160
196160
19E960
196D64
1B6A64
1A6264
1C6466
19E87E
18D03C
10A000
ENDCHAR
STARTCHAR 50E7
ENCODING 20711
SWIDTH 600 0
DWIDTH 24 0
BBX 24 24 0 -2
BITMAP
042020
071038
061860
060C40
0E888C
0CFFFE
0CC30C
18D34C
1EDB6C
3CCB4C
2CC38C
4CFFFC
8C8008
0C2030
0C3FF8
0C3030
0C3030
0C3FF0
0C3030
0C3030
0C3030
0C3FF0
0C3030
082020
ENDCHAR
STARTCHAR 50EC
ENCODING 20716
SWIDTH 600 0
DWIDTH 24 0
BBX 24 24 0 -2
BITMAP
042300
073980
0630C0
06308C
0E7FFE
0C6180
0CE180
18E198
1D7FFC
3E6180
2C6180
4C6198
8C7FFC
0C6180
0C6180
0C618C
0C7FFE
0C6000
0C5110
0C9988
0C8CCC
0D8CC6
0D8886
090004
ENDCHAR
STARTCHAR 50ED
ENCODING 20717
SWIDTH 600 0
DWIDTH 24 0
BBX 24 24 0 -2
BITMAP
080000
0E0818
0DFDFC
0C3060
0DB160
193164
1BFDFE
197060
3850A4
38D4A4
589926
59121C
9A0400
184030
187FF8
186030
186030
187FF0
186030
186030
186030
187FF0
186030
104020
ENDCHAR
STARTCHAR 50EE
ENCODING 20718
SWIDTH 600 0
DWIDTH 24 0
BBX 24 24 0 -2
BITMAP
040C00
070600
060430
06FFF8
0E2080
0C18C0
0C090C
19FFFE
1C0000
3C8030
2CFFF8
4CC630
8CC630
0CFFF0
0CC630
0CC630
0CFFF0
0C8600
0C0610
0DFFF8
0C0600
0C060C
0FFFFE
080000
ENDCHAR
STARTCHAR 50F3
ENCODING 20723
SWIDTH 600 0
DWIDTH 24 0
BBX 24 24 0 -2
BITMAP
040000
07000C
06FFFE
060CC0
0E8CCC
0CFFFE
0CCCCC
18CCCC
1ECCCC
3CFFFC
2C8208
4C23A0
8C3330
0C1B60
0C138C
0DFFFE
0C0F80
0C1B40
0C3360
0C6338
0CC31E
0D0308
0C0300
080200
ENDCHAR
STARTCHAR 50F5
ENCODING 20725
SWIDTH 600 0
DWIDTH 24 0
BBX 24 24 0 -2
BITMAP
040000
070018
067FFC
060000
0E7FF8
0C6318
0C6318
187FF8
1E6318
3C6318
2C7FF8
4C0004
8DFFFE
0C0000
0C7FF8
0C6318
0C6318
0C7FF8
0C6318
0C6318
0C7FF8
0C0004
0DFFFE
080000
ENDCHAR
STARTCHAR 50FB
ENCODING 20731
SWIDTH 600 0
DWIDTH 24 0
BBX 24 24 0 -2
BITMAP
0800C0
0E0060
0D0C30
0DFE24
198DFE
198C08
198D0C
1D8C88
398CD0
39FC90
598824
5903FE
9B8860
1AFE60
1ACC60
1CCC68
18CDFC
18CC60
18CC60
18FC60
18CC60
18C860
188060
100040
ENDCHAR
STARTCHAR 5106
ENCODING 20742
SWIDTH 600 0
DWIDTH 24 0
BBX 24 24 0 -2
BITMAP
088840
0EEE70
0CCC60
0CCC60
1BFF60
18CC4C
18CCFE
1C88D8
38E098
38CD98
59FF98
590D98
9A0E90
1DECB0
192CB0
192CB0
19EC60
192C60
180CF0
181CD0
18F998
18330E
182608
100800
ENDCHAR
STARTCHAR 5107
ENCODING 20743
SWIDTH 600 0
DWIDTH 24 0
BBX 24 24 0 -2
BITMAP
040000
074018
067FFC
066498
0E6498
0C6498
0C7FF8
184010
1E0004
3DFFFE
2C0000
4C7FF0
8C6030
0C6030
0C7FF0
0C4700
0C0D08
0C188C
0C3CD0
0C6C60
0CCD38
0D0E1E
0C1C08
080800
ENDCHAR
STARTCHAR 510B
ENCODING 20747
SWIDTH 600 0
DWIDTH 24 0
BBX 24 24 0 -2
BITMAP
041000
071C00
061860
063FF0
0E30C0
0C610C
0CFFFE
19C820
1ECD18
3CD190
2CC084
4CFFFE
8CC000
0CDFF8
0CC000
0CDFF8
0CC000
0CD018
0CDFFC
0C9818
0D9818
0D1FF8
0E1818
081010
ENDCHAR
STARTCHAR 5112
ENCODING 20754
SWIDTH 600 0
DWIDTH 24 0
BBX 24 24 0 -2
BITMAP
080000
0E0030
0C7FF8
0C0600
19060C
19FFFE
19060C
1B76E8
3A0600
3876E0
580600
58040C
9BFFFE
180C00
190818
19FFFC
199998
199998
199998
199998
199918
1990F8
190030
100020
ENDCHAR
STARTCHAR 5121
ENCODING 20769
SWIDTH 600 0
DWIDTH 24 0
BBX 24 24 0 -2
BITMAP
040000
074018
067FFC
066318
0E6318
0C6318
0C7FF8
186318
1E6318
3C6318
2C7FF8
4C0000
8C848C
0CFEFE
0CD4AC
0CD4AC
0CD4AC
0CFCFC
0CD4AC
0CD4AC
0CD4AC
0CFCFC
0CC48C
088488
ENDCHAR
STARTCHAR 513F
ENCODING 20799
SWIDTH 600 0
DWIDTH 24 0
BBX 24 24 0 -2
BITMAP
000000
010400
01C700
018600
018600
018600
018600
018600
018600
018600
018600
018600
018600
018600
018600
030604
030604
030604
060604
0C0606
1807FE
6003FC
800000
000000
ENDCHAR
STARTCHAR 5140
ENCODING 20800
SWIDTH 600 0
DWIDTH 24 0
BBX 24 24 0 -2
BITMAP
000000
000000
00000C
7FFFFE
018600
018600
018600
018600
018600
018600
018600
018600
018600
018600
018604
030604
030604
030604
060604
060606
0C07FE
1803FC
600000
000000
ENDCHAR
STARTCHAR 5141
ENCODING 20801
SWIDTH 600 0
DWIDTH 24 0
BBX 24 24 0 -2
BITMAP
001000
001C00
003800
003000
006000
00C100
0180C0
020060
040030
1FFFF8
0EC318
00C308
00C300
00C300
00C300
00C300
018304
018304
030304
060306
0C03FE
1801FC
200000
000000
ENDCHAR
STARTCHAR 5143
ENCODING 20803
SWIDTH 600 0
DWIDTH 24 0
BBX 24 24 0 -2
BITMAP
000000
000060
0FFFF0
000000
000000
000000
000000
00000C
7FFFFE
00C600
00C600
00C600
00C600
00C600
00C600
00C604
00C604
018604
018604
030606
0607FE
1803FC
600000
000000
ENDCHAR
STARTCHAR 5144
ENCODING 20804
SWIDTH 600 0
DWIDTH 24 0
BBX 24 24 0 -2
BITMAP
000000
040060
07FFF0
060060
060060
060060
060060
060060
060060
060060
07FFE0
04C640
00C600
00C600
00C600
00C604
00C604
018604
018604
030606
0607FE
1803FC
600000
000000
ENDCHAR
STARTCHAR 5145
ENCODING 20805
SWIDTH 600 0
DWIDTH 24 0
BBX 24 24 0 -2
BITMAP
002000
001800
000C00
00080C
7FFFFE
004000
007000
00C200
018180
0300C0
040060
1FFFF0
0EC630
00C620
00C600
00C600
00C604
018604
018604
030606
0607FE
1803FC
600000
000000
ENDCHAR
STARTCHAR 5146
ENCODING 20806
SWIDTH 600 0
DWIDTH 24 0
BBX 24 24 0 -2
BITMAP
008400
00E700
00C600
20C610
10C61C
18C630
0CC660
06C680
06C700
04C600
00C700
01C6C0
06C630
1CC618
70C608
20C600
018604
018604
030604
030606
0607FE
0C03FC
300000
400000
ENDCHAR
STARTCHAR 5148
ENCODING 20808
SWIDTH 600 0
DWIDTH 24 0
BBX 24 24 0 -2
BITMAP
001000
021C00
039800
031800
031830
07FFF8
061800
0C1800
081800
101800
00180C
7FFFFE
00C600
00C600
00C600
00C600
00C604
018604
018604
030604
060606
0C07FE
3003FC
400000
ENDCHAR
STARTCHAR 5149
ENCODING 20809
SWIDTH 600 0
DWIDTH 24 0
BBX 24 24 0 -2
BITMAP
001000
001C00
081840
041870
061860
0318C0
0398C0
019980
011900
001A0C
7FFFFE
00C600
00C600
00C600
00C600
00C604
00C604
018604
018604
030604
060606
1807FE
6003FC
000000
ENDCHAR
STARTCHAR 514B
ENCODING 20811
SWIDTH 600 0
DWIDTH 24 0
BBX 24 24 0 -2
BITMAP
001000
001C00
001800
00180C
7FFFFE
001800
001800
041860
07FFF0
060060
060060
060060
060060
07FFE0
066640
046600
006604
00C604
00C604
018604
030606
0607FE
1803FC
600000
ENDCHAR
STARTCHAR 514D
ENCODING 20813
SWIDTH 600 0
DWIDTH 24 0
BBX 24 24 0 -2
BITMAP
008000
00E000
01C000
018180
03FFC0
060300
0C0600
180830
3FFFF8
4C1830
0C1830
0C1830
0C3030
0FFFF0
0C3620
086600
006604
00C604
00C604
018604
030606
0607FE
1803FC
600000
ENDCHAR
STARTCHAR 5151
ENCODING 20817
SWIDTH 600 0
DWIDTH 24 0
BBX 24 24 0 -2
BITMAP
000100
0201C0
018180
00C300
006200
004400
040860
07FFF0
060060
060060
060060
060060
060060
07FFE0
046640
006600
006600
00C604
00C604
018604
030606
0607FE
1803FC
600000
ENDCHAR
STARTCHAR 5154
ENCODING 20820
SWIDTH 600 0
DWIDTH 24 0
BBX 24 24 0 -2
BITMAP
008000
00E000
00C100
01FF80
038300
030600
060830
0FFFF8
160C30
260C30
461830
061830
07FFF0
063620
043600
0036C0
006660
006634
00C624
018604
030606
0607FE
1803FC
600000
ENDCHAR
STARTCHAR 5155
ENCODING 20821
SWIDTH 600 0
DWIDTH 24 0
BBX 24 24 0 -2
BITMAP
000000
10C218
1FE3FC
18C318
18C318
18C318
19FF18
188218
180018
180018
180018
1FFFF8
18C618
10C610
00C600
00C600
00C604
018604
018604
030606
0607FE
0C03FC
300000
400000
ENDCHAR
STARTCHAR 5156
ENCODING 20822
SWIDTH 600 0
DWIDTH 24 0
BBX 24 24 0 -2
BITMAP
003000
001800
000C00
00080C
7FFFFE
010000
01C180
0320E0
063870
0C7038
30C210
408180
0100C0
07FFE0
02C640
00C600
00C600
00C604
018604
018604
030606
0607FE
1C03FC
600000
ENDCHAR
STARTCHAR 515A
ENCODING 20826
SWIDTH 600 0
DWIDTH 24 0
BBX 24 24 0 -2
BITMAP
001000
001C40
061860
0318C0
019880
11190C
1FFFFE
30000C
700010
6200C0
03FFE0
0300C0
0300C0
0300C0
0300C0
03FFC0
026680
006604
00C604
00C604
018606
0307FE
0C03FC
700000
ENDCHAR
STARTCHAR 515C
ENCODING 20828
SWIDTH 600 0
DWIDTH 24 0
BBX 24 24 0 -2
BITMAP
001000
001C00
021800
135118
1C7F7C
186318
186318
186318
187F18
186318
1B6318
1C6318
387F78
104210
010400
01C700
018600
018604
030604
030604
060606
0C07FE
1803FC
600000
ENDCHAR
STARTCHAR 5162
ENCODING 20834
SWIDTH 600 0
DWIDTH 24 0
BBX 24 24 0 -2
BITMAP
020080
0380E0
0300C0
0320CC
7FF7FE
0300C0
0300C0
1364D8
1FF7FC
186618
186618
186618
186618
1FE7F8
0D8260
0D8360
0D8360
0D9364
19A664
19C664
338C66
41187E
80203C
004000
ENDCHAR
STARTCHAR 5165
ENCODING 20837
SWIDTH 600 0
DWIDTH 24 0
BBX 24 24 0 -2
BITMAP
000000
010000
03C000
006000
003000
001800
001800
001C00
001C00
003400
003600
006200
006300
00C300
018180
018180
0300C0
0600C0
0C0060
080070
10003E
200018
400000
000000
ENDCHAR
STARTCHAR 5168
ENCODING 20840
SWIDTH 600 0
DWIDTH 24 0
BBX 24 24 0 -2
BITMAP
001000
001C00
001800
003400
006600
00C300
018180
0300E0
060078
0C019F
33FFCC
401800
001800
001800
0018C0
07FFE0
001800
001800
001800
001800
001818
3FFFFC
000000
000000
ENDCHAR
STARTCHAR 516B
ENCODING 20843
SWIDTH 600 0
DWIDTH 24 0
BBX 24 24 0 -2
BITMAP
000000
000400
000600
010700
01C600
018400
018400
018400
018400
018600
030600
030600
030200
060300
060300
0C0180
0C01C0
1800C0
3000E0
200070
40003E
800018
000000
000000
ENDCHAR
STARTCHAR 516C
ENCODING 20844
SWIDTH 600 0
DWIDTH 24 0
BBX 24 24 0 -2
BITMAP
000400
008700
00E600
01C200
018200
030100
030180
060080
0400C0
0C2060
183838
10301F
20600C
406000
00C000
00C200
018100
030080
0200C0
040060
1FFFF0
0E0030
000020
000000
ENDCHAR
STARTCHAR 516D
ENCODING 20845
SWIDTH 600 0
DWIDTH 24 0
BBX 24 24 0 -2
BITMAP
000000
004000
003000
001800
001C00
000C00
000800
00000C
7FFFFE
000000
000000
008400
00E200
01C100
018080
0300C0
030060
060030
0C0038
180018
30001C
40000C
000008
000000
ENDCHAR
STARTCHAR 516E
ENCODING 20846
SWIDTH 600 0
DWIDTH 24 0
BBX 24 24 0 -2
BITMAP
000200
008380
00E300
00C300
00C100
018180
018080
0300C0
060360
0DFFB0
186038
30601E
40C008
818180
03FFC0
010180
000180
000180
000180
000380
000700
00FE00
001C00
000800
ENDCHAR
STARTCHAR 5170
ENCODING 20848
SWIDTH 600 0
DWIDTH 24 0
BBX 24 24 0 -2
BITMAP
000100
0401C0
030180
018100
01C300
00C200
008418
3FFFFC
000000
000000
000000
000000
000000
000060
1FFFF0
000000
000000
000000
000000
000000
00000C
7FFFFE
000000
000000
ENDCHAR
STARTCHAR 5171
ENCODING 20849
SWIDTH 600 0
DWIDTH 24 0
BBX 24 24 0 -2
BITMAP
010200
01C380
018300
018300
018300
018318
3FFFFC
018300
018300
018300
018300
018300
018300
01830C
7FFFFE
000000
008400
00E300
018180
0300E0
060070
180030
600010
000000
ENDCHAR
STARTCHAR 5173
ENCODING 20851
SWIDTH 600 0
DWIDTH 24 0
BBX 24 24 0 -2
BITMAP
040100
0301C0
018180
01C300
00C200
008430
1FFFF8
003000
003000
003000
003000
003018
3FFFFC
003800
006800
006400
00C600
00C300
0181C0
0300F0
06003E
180018
600000
000000
ENDCHAR
STARTCHAR 5174
ENCODING 20852
SWIDTH 600 0
DWIDTH 24 0
BBX 24 24 0 -2
BITMAP
000000
004010
00601C
102018
083030
0C1830
061860
060C60
030CC0
030880
030100
020100
00020C
7FFFFE
000000
010200
01C100
0180C0
030070
060038
0C001C
10000C
200008
400000
ENDCHAR
STARTCHAR 5175
ENCODING 20853
SWIDTH 600 0
DWIDTH 24 0
BBX 24 24 0 -2
BITMAP
000000
0001E0
021FF0
03FC00
030000
030000
030000
030030
03FFF8
030600
030600
030600
030600
03060C
7FFFFE
000000
008200
00E180
0180E0
030070
060038
0C0018
180010
200000
ENDCHAR
STARTCHAR 5176
ENCODING 20854
SWIDTH 600 0
DWIDTH 24 0
BBX 24 24 0 -2
BITMAP
010100
01C1C0
018180
018198
3FFFFC
018180
018180
018180
01FF80
018180
018180
018180
01FF80
018180
018180
01818C
7FFFFE
000000
008300
01C0C0
070060
0C0038
300018
400008
ENDCHAR
STARTCHAR 5177
ENCODING 20855
SWIDTH 600 0
DWIDTH 24 0
BBX 24 24 0 -2
BITMAP
000000
0200C0
03FFE0
0300C0
0300C0
03FFC0
0300C0
0300C0
03FFC0
0300C0
0300C0
03FFC0
0300C0
0300C0
0300CC
7FFFFE
000000
010200
01C180
0300E0
060070
0C0030
300020
000000
ENDCHAR
STARTCHAR 5178
ENCODING 20856
SWIDTH 600 0
DWIDTH 24 0
BBX 24 24 0 -2
BITMAP
004400
007700
006600
006600
086630
0FFFF8
0C6630
0C6630
0C6630
0C6630
0FFFF0
0C6630
0C6630
0C6630
0C6630
0C6636
FFFFFF
008200
01C180
0300E0
060038
0C001C
10000C
600004
ENDCHAR
STARTCHAR 5179
ENCODING 20857
SWIDTH 600 0
DWIDTH 24 0
BBX 24 24 0 -2
BITMAP
040040
030070
0180E0
00C180
00820C
7FFFFE
020100
0381C0
030180
060300
044320
0C7638
08C430
3FDFE0
198C60
030040
0200C0
048180
084120
11E210
7E6FF8
30060C
000008
000000
ENDCHAR
STARTCHAR 517B
ENCODING 20859
SWIDTH 600 0
DWIDTH 24 0
BBX 24 24 0 -2
BITMAP
020100
0181C0
00C300
008418
3FFFFC
001800
001860
0FFFF0
003000
00600C
7FFFFE
00C200
018180
0300C0
068270
18E3BE
60C318
00C300
018300
018300
030300
060300
180300
200200
ENDCHAR
STARTCHAR 517C
ENCODING 20860
SWIDTH 600 0
DWIDTH 24 0
BBX 24 24 0 -2
BITMAP
020100
0181C0
00C300
008418
7FFFFC
00C600
00C600
00C630
1FFFF8
00C630
00C636
7FFFFF
00C630
00C630
1FFFF0
03C720
06C680
06C680
0CC640
18C660
30C638
20C61E
40C608
008400
ENDCHAR
STARTCHAR 517D
ENCODING 20861
SWIDTH 600 0
DWIDTH 24 0
BBX 24 24 0 -2
BITMAP
010100
0081C0
00C180
006300
084230
0FFFF8
0C1830
0C1830
0FFFF0
0C1830
0C1830
0FFFF0
080020
00000C
7FFFFE
000000
040060
07FFF0
060060
060060
060060
07FFE0
060060
040040
ENDCHAR
STARTCHAR 5180
ENCODING 20864
SWIDTH 600 0
DWIDTH 24 0
BBX 24 24 0 -2
BITMAP
00E710
00C638
3FC6E0
00C704
00C604
0FC7FE
78C3FC
208000
07FFE0
061860
07FFE0
061860
07FFE0
018180
018198
3FFFFC
018180
01818C
7FFFFE
008000
00E700
0381E0
0E0070
300010
ENDCHAR
STARTCHAR 5181
ENCODING 20865
SWIDTH 600 0
DWIDTH 24 0
BBX 24 24 0 -2
BITMAP
000000
612018
31BFFC
1B3018
123018
443FF8
7FB260
4CB360
4CB268
7FBFFC
4CB260
4CB260
7FB26C
4CBFFE
0C3680
0CB688
FFF64C
0C2658
0C6660
0C6630
0C46B8
0CC71F
0C8E0C
090400
ENDCHAR
STARTCHAR 5182
ENCODING 20866
SWIDTH 600 0
DWIDTH 24 0
BBX 24 24 0 -2
BITMAP
000000
000000
100018
1FFFFC
180018
180018
180018
180018
180018
180018
180018
180018
180018
180018
180018
180018
180018
180018
180018
180018
180018
1801F8
180030
100020
ENDCHAR
STARTCHAR 5185
ENCODING 20869
SWIDTH 600 0
DWIDTH 24 0
BBX 24 24 0 -2
BITMAP
001000
001C00
001800
001800
001800
101818
1FFFFC
181818
183018
183018
183018
186C18
186618
18C318
198398
190198
1A0098
180018
180018
180018
180018
1800F8
180030
100020
ENDCHAR
STARTCHAR 5188
ENCODING 20872
SWIDTH 600 0
DWIDTH 24 0
BBX 24 24 0 -2
BITMAP
000000
100018
1FFFFC
180018
180018
180118
1801D8
190398
18C318
186618
183C18
181818
181C18
183618
186318
18C398
198198
1A0118
180018
180018
180018
1800F8
180030
100020
ENDCHAR
STARTCHAR 5189
ENCODING 20873
SWIDTH 600 0
DWIDTH 24 0
BBX 24 24 0 -2
BITMAP
001000
001C00
001800
001800
041860
07FFF0
061860
061860
061860
061860
07FFE0
061860
061860
061860
06186C
7FFFFE
060060
060060
060060
060060
060060
0603E0
0600C0
040080
ENDCHAR
STARTCHAR 518C
ENCODING 20876
SWIDTH 600 0
DWIDTH 24 0
BBX 24 24 0 -2
BITMAP
000000
08C430
0FE7F8
0CC630
0CC630
0CC630
0CC630
0CC630
0CC630
0CC636
FFFFFF
0CC630
0CC630
0CC630
0CC630
0CC630
0CC630
18C630
18CC30
10CC30
30D830
27D1F0
41A060
810040
ENDCHAR
STARTCHAR 518D
ENCODING 20877
SWIDTH 600 0
DWIDTH 24 0
BBX 24 24 0 -2
BITMAP
000000
000018
3FFFFC
001800
001800
081830
0FFFF8
0C1830
0C1830
0C1830
0FFFF0
0C1830
0C1830
0C1830
0C1836
FFFFFF
0C0030
0C0030
0C0030
0C0030
0C0030
0C01F0
0C0060
080040
ENDCHAR
STARTCHAR 5192
ENCODING 20882
SWIDTH 600 0
DWIDTH 24 0
BBX 24 24 0 -2
BITMAP
000000
100018
1FFFFC
180018
180318
19FF98
180018
180318
19FF98
100010
040060
07FFF0
060060
060060
07FFE0
060060
060060
07FFE0
060060
060060
07FFE0
060060
060060
040040
ENDCHAR
STARTCHAR 5195
ENCODING 20885
SWIDTH 600 0
DWIDTH 24 0
BBX 24 24 0 -2
BITMAP
080030
0FFFF8
0C0030
0C0330
0DFFB0
0C0030
0C0330
0DFFB0
088020
01C200
01FF00
030600
060830
0FFFF8
161830
661830
07FFF0
043624
003604
006604
00C606
0387FE
0E03FC
700000
ENDCHAR
STARTCHAR 5196
ENCODING 20886
SWIDTH 600 0
DWIDTH 24 0
BBX 24 24 0 -2
BITMAP
000000
000000
000000
000000
000000
000000
10000C
1FFFFE
10000C
300018
700020
600000
000000
000000
000000
000000
000000
000000
000000
000000
000000
000000
000000
000000
ENDCHAR
STARTCHAR 5197
ENCODING 20887
SWIDTH 600 0
DWIDTH 24 0
BBX 24 24 0 -2
BITMAP
000000
000000
10000C
1FFFFE
100018
300010
700020
610300
01FF80
018300
018300
018300
018300
018300
018300
018304
018304
018304
030304
030304
060306
0C03FE
1801FC
600000
ENDCHAR
STARTCHAR 5199
ENCODING 20889
SWIDTH 600 0
DWIDTH 24 0
BBX 24 24 0 -2
BITMAP
000000
10000C
1FFFFE
30000C
720010
638000
030030
03FFF8
030000
060000
060000
060030
0FFFF8
040030
000030
000030
000330
3FFFB0
000030
000030
000070
000FE0
0001C0
000080
ENDCHAR
STARTCHAR 519B
ENCODING 20891
SWIDTH 600 0
DWIDTH 24 0
BBX 24 24 0 -2
BITMAP
000000
10000C
1FFFFE
302018
703810
603020
006008
1FFFFC
018000
010800
030E00
060C00
0C0C18
1FFFFC
080C00
000C00
000C0C
7FFFFE
000C00
000C00
000C00
000C00
000C00
000800
ENDCHAR
STARTCHAR 519C
ENCODING 20892
SWIDTH 600 0
DWIDTH 24 0
BBX 24 24 0 -2
BITMAP
001000
001C00
001800
001800
08300C
0FFFFE
08700C
187018
38D020
30D800
018810
018838
038CE0
038580
078600
0D8300
198380
1181C0
2184E0
419878
01F03E
01C018
038000
010000
ENDCHAR
STARTCHAR 51A0
ENCODING 20896
SWIDTH 600 0
DWIDTH 24 0
BBX 24 24 0 -2
BITMAP
000000
100018
1FFFFC
100018
300010
700040
60C070
0FE064
0007FE
000060
006060
3FF460
0CC260
0CC360
0CC260
0CC060
0CC060
0CC3E4
0CC0C4
18C084
18C006
30FFFE
207FFC
400000
ENDCHAR
STARTCHAR 51A2
ENCODING 20898
SWIDTH 600 0
DWIDTH 24 0
BBX 24 24 0 -2
BITMAP
000000
10000C
1FFFFE
10000C
300008
7000D0
67FFE0
003000
006020
01E078
0730E0
1C3180
687B80
06CE80
039CC0
07BC40
18EC60
60CC30
018C38
060C1F
181C0C
61F800
007000
002000
ENDCHAR
STARTCHAR 51A4
ENCODING 20900
SWIDTH 600 0
DWIDTH 24 0
BBX 24 24 0 -2
BITMAP
000000
10000C
1FFFFE
10400C
306010
70C320
61FF80
030600
060C00
0C1030
1FFFF8
2C1830
4C1830
0C3030
0FFFF0
0C3600
006680
006664
00C634
018624
030606
0607FE
1803FC
600000
ENDCHAR
STARTCHAR 51A5
ENCODING 20901
SWIDTH 600 0
DWIDTH 24 0
BBX 24 24 0 -2
BITMAP
000000
10000C
1FFFFE
30000C
700008
640060
07FFF0
060060
060060
07FFE0
060060
060060
07FFE0
041040
001800
00080C
7FFFFE
008000
00E300
0180C0
030070
0C0038
300018
400010
ENDCHAR
STARTCHAR 51AB
ENCODING 20907
SWIDTH 600 0
DWIDTH 24 0
BBX 24 24 0 -2
BITMAP
000000
000000
000000
060000
030000
018000
018000
010800
001000
002000
004000
018000
030000
3E0000
060000
060000
060000
060000
060000
060000
020000
000000
000000
000000
ENDCHAR
STARTCHAR 51AC
ENCODING 20908
SWIDTH 600 0
DWIDTH 24 0
BBX 24 24 0 -2
BITMAP
004000
007000
00E000
00C060
01FFF0
0300C0
068180
046300
083600
101C00
203C00
006700
00C1C0
030070
0C383F
300E0C
C00600
000200
03F000
007E00
000F80
000180
000080
000000
ENDCHAR
STARTCHAR 51AF
ENCODING 20911
SWIDTH 600 0
DWIDTH 24 0
BBX 24 24 0 -2
BITMAP
000000
000060
60FFF0
300060
192060
193860
123060
023060
0430C0
0460C0
0C60C0
0860CC
18FFFE
F8400C
18000C
18018C
1BFFCC
18000C
18000C
180018
180038
0803F0
0000E0
000040
ENDCHAR
STARTCHAR 51B0
ENCODING 20912
SWIDTH 600 0
DWIDTH 24 0
BBX 24 24 0 -2
BITMAP
000400
000700
600600
300600
190600
190608
12060E
023718
05FF30
0436C0
0C3680
083680
186640
F86640
18C660
18C620
188630
198618
19061E
1A0608
1C0600
083E00
000C00
000800
ENDCHAR
STARTCHAR 51B1
ENCODING 20913
SWIDTH 600 0
DWIDTH 24 0
BBX 24 24 0 -2
BITMAP
000000
000018
60FFFC
300C00
190C00
190C00
120C00
021830
041FF8
041830
0C1830
083030
183030
F83060
187FE0
182060
180060
180060
1800C0
1800C0
1800CC
08FFFE
000000
000000
ENDCHAR
STARTCHAR 51B2
ENCODING 20914
SWIDTH 600 0
DWIDTH 24 0
BBX 24 24 0 -2
BITMAP
000200
000380
600300
300300
180300
18830C
12FFFE
02C30C
04C30C
04C30C
0CC30C
08C30C
18C30C
F8FFFC
18C30C
18C308
188300
180300
180300
180300
180300
080300
000300
000200
ENDCHAR
STARTCHAR 51B3
ENCODING 20915
SWIDTH 600 0
DWIDTH 24 0
BBX 24 24 0 -2
BITMAP
000800
000E00
600C00
300C00
190C00
190C30
12FFF8
020C30
040C30
040C30
0C0C30
080C30
180C36
FBFFFF
181900
181900
181980
183080
1830C0
186060
08C038
01801F
06000C
180000
ENDCHAR
STARTCHAR 51B5
ENCODING 20917
SWIDTH 600 0
DWIDTH 24 0
BBX 24 24 0 -2
BITMAP
000000
008030
60FFF8
30C030
18C030
18C030
12C030
04C030
04C030
08C030
08FFF0
1099A0
301980
F01980
301980
301980
303180
303184
306184
30C184
118186
0301FE
0C00FC
000000
ENDCHAR
STARTCHAR 51B6
ENCODING 20918
SWIDTH 600 0
DWIDTH 24 0
BBX 24 24 0 -2
BITMAP
000200
000380
600700
300600
190C40
191820
121030
022018
0443FC
04FE0E
0C6004
080000
182030
F83FF8
183030
183030
183030
183030
183030
183030
183FF0
083030
003030
002020
ENDCHAR
STARTCHAR 51B7
ENCODING 20919
SWIDTH 600 0
DWIDTH 24 0
BBX 24 24 0 -2
BITMAP
000400
000700
600600
300D00
190D00
191880
1230C0
026060
044438
04861F
0D030C
0A0200
180030
F87FF8
180060
1800C0
180080
183100
180E00
180780
1801C0
0800C0
000040
000000
ENDCHAR
STARTCHAR 51BB
ENCODING 20923
SWIDTH 600 0
DWIDTH 24 0
BBX 24 24 0 -2
BITMAP
000400
000700
600600
300C00
180C0C
19FFFE
121800
023200
043380
046300
0C6300
08C318
19FFFC
F88300
182300
183B20
183310
186318
18C30C
19830E
0B0306
041F04
000600
000400
ENDCHAR
STARTCHAR 51BC
ENCODING 20924
SWIDTH 600 0
DWIDTH 24 0
BBX 24 24 0 -2
BITMAP
000200
000380
602300
303B00
193300
193318
127FFC
026300
044300
048300
0C030C
09FFFE
181980
F81980
181980
181980
181984
183184
183184
186184
08C186
0181FE
0600FC
000000
ENDCHAR
STARTCHAR 51BD
ENCODING 20925
SWIDTH 600 0
DWIDTH 24 0
BBX 24 24 0 -2
BITMAP
000008
00000E
60030C
33FF8C
18300C
18304C
12306C
02664C
047F4C
04664C
0CC64C
08C64C
19A64C
F9364C
1A1C4C
180C4C
18184C
18180C
18300C
18600C
18800C
09007C
020018
000010
ENDCHAR
STARTCHAR 51C0
ENCODING 20928
SWIDTH 600 0
DWIDTH 24 0
BBX 24 24 0 -2
BITMAP
001000
001C00
601860
303FF0
1930C0
196080
124118
02FFFC
050618
040618
0C061A
09FFFF
180618
F80618
180618
18FFF8
180618
180610
180600
180600
180600
083E00
000C00
000800
ENDCHAR
STARTCHAR 51C4
ENCODING 20932
SWIDTH 600 0
DWIDTH 24 0
BBX 24 24 0 -2
BITMAP
000800
000E00
600C18
33FFFC
180C00
180C60
11FFF0
040C60
040C6C
0BFFFE
080C60
100C60
31FFE0
F01840
30180C
37FFFE
3030C0
3040C0
30E180
301F00
100FE0
0038F8
00E01C
070004
ENDCHAR
STARTCHAR 51C6
ENCODING 20934
SWIDTH 600 0
DWIDTH 24 0
BBX 24 24 0 -2
BITMAP
001000
001D00
601980
3018C0
19308C
193FFE
127180
027180
047180
04F198
0DBFFC
093180
1A3180
F83180
183198
183FFC
183180
183180
183180
18318C
183FFE
083000
003000
002000
ENDCHAR
STARTCHAR 51C7
ENCODING 20935
SWIDTH 600 0
DWIDTH 24 0
BBX 24 24 0 -2
BITMAP
004000
007090
6060D8
3060D0
1860D0
186988
11FD88
00610C
046304
04E247
0CE472
09F060
196860
F96CC0
1A64C0
1A6090
1C6188
18618C
186204
1867FE
186386
086004
006000
004000
ENDCHAR
STARTCHAR 51C9
ENCODING 20937
SWIDTH 600 0
DWIDTH 24 0
BBX 24 24 0 -2
BITMAP
000C00
000600
600300
30020C
19FFFE
180000
124018
027FFC
046018
046018
0C6018
086018
187FF8
F86318
184300
182300
183320
186318
18C30C
19830E
190306
0A1F04
000600
000400
ENDCHAR
STARTCHAR 51CB
ENCODING 20939
SWIDTH 600 0
DWIDTH 24 0
BBX 24 24 0 -2
BITMAP
000000
010018
61FFFC
318418
198618
198698
13BFD8
058618
058658
09FFF8
098018
119198
319FD8
F19998
319998
319998
319F98
319998
331118
330018
120018
0600F8
040030
080020
ENDCHAR
STARTCHAR 51CC
ENCODING 20940
SWIDTH 600 0
DWIDTH 24 0
BBX 24 24 0 -2
BITMAP
000800
000E00
600C00
300C30
19FFF8
180C00
120C00
040C18
07FFFC
084080
08E860
10CC30
3198D8
F31FE8
3430C0
306180
30D180
318F00
320600
340F80
1019E0
00307E
00C018
070000
ENDCHAR
STARTCHAR 51CF
ENCODING 20943
SWIDTH 600 0
DWIDTH 24 0
BBX 24 24 0 -2
BITMAP
000100
0001B0
600198
300190
190184
19FFFE
118180
058580
05FF90
09819C
098198
11BD98
31A598
F1A5B0
31A5B0
31A5B0
31A4E4
333CC4
3301E4
360134
14021C
08040E
100806
000000
ENDCHAR
STARTCHAR 51D1
ENCODING 20945
SWIDTH 600 0
DWIDTH 24 0
BBX 24 24 0 -2
BITMAP
000800
000E00
600C00
300C18
1BFFFC
180C00
100C30
04FFF8
041800
08180C
09FFFE
103100
3060C0
F0C070
313F3F
360C0C
300C60
31FFF0
301800
301B00
1030C0
006070
00C030
030010
ENDCHAR
STARTCHAR 51DB
ENCODING 20955
SWIDTH 600 0
DWIDTH 24 0
BBX 24 24 0 -2
BITMAP
000C00
000600
60040C
33FFFE
180000
19FFF0
118030
059F30
059130
099130
099F30
118030
31FFF0
F00000
30FFF0
300004
33FFFE
304640
306630
30C618
11861C
03060C
043E08
000C00
ENDCHAR
STARTCHAR 51DD
ENCODING 20957
SWIDTH 600 0
DWIDTH 24 0
BBX 24 24 0 -2
BITMAP
020000
039018
633BFC
336018
1B8830
1B0940
13FCC0
01F860
090044
0987FE
13106C
13F868
36C460
F4C760
30D664
37F67E
30C660
31A660
31B660
332D60
1609E0
0410FF
08207C
100000
ENDCHAR
STARTCHAR 51E0
ENCODING 20960
SWIDTH 600 0
DWIDTH 24 0
BBX 24 24 0 -2
BITMAP
000000
000000
010300
01FF80
018300
018300
018300
018300
018300
018300
018300
018300
018300
018300
018300
030304
030304
060304
060304
0C0306
1803FE
3001FC
400000
000000
ENDCHAR
STARTCHAR 51E1
ENCODING 20961
SWIDTH 600 0
DWIDTH 24 0
BBX 24 24 0 -2
BITMAP
000000
020300
03FF80
030300
030300
030300
030300
030300
038300
036300
033300
031B00
031B00
031300
030304
030304
060304
060304
0C0304
0C0306
1803FE
3001FC
400000
000000
ENDCHAR
STARTCHAR 51E4
ENCODING 20964
SWIDTH 600 0
DWIDTH 24 0
BBX 24 24 0 -2
BITMAP
000000
080060
0FFFF0
0C0060
0C0060
0C0660
0DFF60
0C0660
0D0660
0CCC60
0C6C60
0C3860
0C1860
0C3C60
0C6660
18C764
188364
190234
320034
34001C
60001C
40000E
800006
000000
ENDCHAR
STARTCHAR 51EB
ENCODING 20971
SWIDTH 600 0
DWIDTH 24 0
BBX 24 24 0 -2
BITMAP
007000
006000
0440C0
07FFE0
0600C0
06C0C0
0660C0
0637C0
062180
060100
060018
0FFFFC
040018
000C18
03FE18
030C38
030DF0
030C60
060C48
060C08
0C0C0C
180FFC
3007F8
400000
ENDCHAR
STARTCHAR 51ED
ENCODING 20973
SWIDTH 600 0
DWIDTH 24 0
BBX 24 24 0 -2
BITMAP
040000
0700E0
060FF0
0CFE00
0C0600
180600
1C060C
2DFFFE
4C0600
0C0600
0C0600
0C0630
0CFFF8
080000
010300
01FF80
018300
018304
018304
018304
030306
0603FE
1801FC
600000
ENDCHAR
STARTCHAR 51EF
ENCODING 20975
SWIDTH 600 0
DWIDTH 24 0
BBX 24 24 0 -2
BITMAP
040000
070860
464FF0
766C60
666C60
666C60
FFEC60
404C60
000C60
018C60
7FCC60
018C60
018C60
218C60
3F8C60
310C60
300C64
30CC64
339864
361864
3C3066
70607E
21803C
020000
ENDCHAR
STARTCHAR 51F0
ENCODING 20976
SWIDTH 600 0
DWIDTH 24 0
BBX 24 24 0 -2
BITMAP
000000
100060
1FFFF0
183060
192660
19FF60
198660
198660
19FE60
198660
198660
19FE60
190460
180260
1BFF60
183060
183264
1BFF64
303024
303134
27FF94
60001C
40000E
800006
ENDCHAR
STARTCHAR 51F3
ENCODING 20979
SWIDTH 600 0
DWIDTH 24 0
BBX 24 24 0 -2
BITMAP
000200
002220
1FF270
0861C4
04610E
06C098
05FEE0
030060
060038
0BFFDE
3300C8
C300C0
03FFC0
028100
004218
3FFFFC
000000
00FF00
00C304
00C304
00C304
0183FE
0701FC
3C0000
ENDCHAR
STARTCHAR 51F5
ENCODING 20981
SWIDTH 600 0
DWIDTH 24 0
BBX 24 24 0 -2
BITMAP
000000
000000
000000
100010
1C001C
180018
180018
180018
180018
180018
180018
180018
180018
180018
180018
180018
180018
180018
180018
3FFFF8
100018
000010
000000
000000
ENDCHAR
STARTCHAR 51F6
ENCODING 20982
SWIDTH 600 0
DWIDTH 24 0
BBX 24 24 0 -2
BITMAP
000000
000100
0001C0
020180
110310
1C831C
18C618
186618
183C18
181818
181C18
183618
186318
184318
188198
1901D8
1A00D8
1C0098
180018
180018
3FFFF8
100018
000010
000000
ENDCHAR
STARTCHAR 51F8
ENCODING 20984
SWIDTH 600 0
DWIDTH 24 0
BBX 24 24 0 -2
BITMAP
000000
010180
01FFC0
018180
018180
018180
018180
018180
018180
21818C
3F83FE
31010C
30000C
30000C
30000C
30000C
30000C
30000C
30000C
30000C
3FFFFC
30000C
200008
000000
ENDCHAR
STARTCHAR 51F9
ENCODING 20985
SWIDTH 600 0
DWIDTH 24 0
BBX 24 24 0 -2
BITMAP
000000
000000
10C218
1FE3FC
18C318
18C318
18C318
18C318
18C318
18C318
18C318
18C318
19FF18
188318
180218
180018
180018
180018
180018
1FFFF8
180018
180018
100010
000000
ENDCHAR
STARTCHAR 51FA
ENCODING 20986
SWIDTH 600 0
DWIDTH 24 0
BBX 24 24 0 -2
BITMAP
001000
001C00
001800
081820
0E1838
0C1830
0C1830
0C1830
0C1830
0C1830
1FFFF0
081820
001800
101810
1C181C
181818
181818
181818
181818
181818
3FFFF8
100018
000010
000000
ENDCHAR
STARTCHAR 51FB
ENCODING 20987
SWIDTH 600 0
DWIDTH 24 0
BBX 24 24 0 -2
BITMAP
001000
001C00
001800
001800
001830
1FFFF8
001800
001800
001800
001800
00180C
7FFFFE
001800
081820
0E1838
0C1830
0C1830
0C1830
0C1830
0C1830
0C1830
1FFFF0
080030
000020
ENDCHAR
STARTCHAR 51FC
ENCODING 20988
SWIDTH 600 0
DWIDTH 24 0
BBX 24 24 0 -2
BITMAP
001000
001C00
001800
001800
001800
201848
30D8EE
37F98C
30DA0C
30DC0C
30DA0C
31990C
31998C
3118CC
3318EC
32186C
34184C
38F80C
30300C
30200C
30000C
7FFFFC
20000C
000008
ENDCHAR
STARTCHAR 51FD
ENCODING 20989
SWIDTH 600 0
DWIDTH 24 0
BBX 24 24 0 -2
BITMAP
000000
000030
1FFFF8
000060
0000C0
001300
001C00
221888
3919CE
319B0C
30DC0C
30980C
301C0C
307B0C
31998C
3718CC
3218EC
30F84C
30300C
30200C
7FFFFC
20000C
000008
000000
ENDCHAR
STARTCHAR 51FF
ENCODING 20991
SWIDTH 600 0
DWIDTH 24 0
BBX 24 24 0 -2
BITMAP
008200
00E380
10C310
08C318
0CC330
06C320
04C34C
7FFFFE
008200
00C380
106610
1C449C
19FFD8
181818
181818
181998
1BFFD8
181818
181818
181818
181018
3FFFF8
100018
000010
ENDCHAR
STARTCHAR 5200
ENCODING 20992
SWIDTH 600 0
DWIDTH 24 0
BBX 24 24 0 -2
BITMAP
000000
000000
000018
1FFFFC
003018
003018
003018
003018
003018
003018
003018
003018
003018
006018
006018
00C018
00C018
018030
030070
0607E0
0C01C0
300080
400000
000000
ENDCHAR
STARTCHAR 5201
ENCODING 20993
SWIDTH 600 0
DWIDTH 24 0
BBX 24 24 0 -2
BITMAP
000000
000000
000030
1FFFF8
000030
000030
000030
0000B0
000130
000630
000C30
003830
006030
01C030
030030
0E0030
3C0030
180030
000060
0000E0
003FC0
000780
000300
000000
ENDCHAR
STARTCHAR 5202
ENCODING 20994
SWIDTH 600 0
DWIDTH 24 0
BBX 24 24 0 -2
BITMAP
000010
00001C
000018
000018
000218
000398
000318
000318
000318
000318
000318
000318
000318
000318
000318
000318
000318
000218
000018
000018
000018
0000F8
000030
000020
ENDCHAR
STARTCHAR 5203
ENCODING 20995
SWIDTH 600 0
DWIDTH 24 0
BBX 24 24 0 -2
BITMAP
000000
000000
000018
1FFFFC
001818
001818
001818
021818
021818
021818
061818
0E1818
1C3018
083018
003018
006018
006018
00C018
018030
030070
0607E0
1801C0
600080
000000
ENDCHAR
STARTCHAR 5206
ENCODING 20998
SWIDTH 600 0
DWIDTH 24 0
BBX 24 24 0 -2
BITMAP
000200
010380
01C300
018100
030180
030080
0600C0
060040
0C0060
1801B8
37FFDE
206188
406180
806180
004180
00C180
00C180
018180
030180
060180
0C0380
183F00
600E00
000400
ENDCHAR
STARTCHAR 5207
ENCODING 20999
SWIDTH 600 0
DWIDTH 24 0
BBX 24 24 0 -2
BITMAP
080000
0E0000
0C0018
0C3FFC
0C0618
0C0618
0C0618
0CC618
0FE618
7C0618
0C0618
0C0618
0C0618
0C2618
0C4618
0C8618
0F0C18
0E0C18
1C1818
083038
0063F0
00C0E0
010040
000000
ENDCHAR
STARTCHAR 5208
ENCODING 21000
SWIDTH 600 0
DWIDTH 24 0
BBX 24 24 0 -2
BITMAP
000010
00001C
004018
007018
406218
206398
10C318
18C318
0CC318
078318
038318
030318
038318
02C318
066318
046318
0C3318
183A18
101818
201018
400018
0000F8
000030
000020
ENDCHAR
STARTCHAR 520A
ENCODING 21002
SWIDTH 600 0
DWIDTH 24 0
BBX 24 24 0 -2
BITMAP
000010
00301C
3FF818
030018
030218
030398
030318
030318
030318
031B18
FFFF18
030318
030318
030318
030318
030318
030318
030218
030018
030018
030018
0300F8
030030
020020
ENDCHAR
STARTCHAR 520D
ENCODING 21005
SWIDTH 600 0
DWIDTH 24 0
BBX 24 24 0 -2
BITMAP
010000
01C000
018000
030180
03FFC0
060300
060600
0C0400
180830
37FFF8
400030
000030
000030
000030
0FFFF0
000030
000030
000030
000030
000030
1FFFF0
000030
000020
000000
ENDCHAR
STARTCHAR 520E
ENCODING 21006
SWIDTH 600 0
DWIDTH 24 0
BBX 24 24 0 -2
BITMAP
040008
07000E
06000C
06000C
0C0C8C
0FFEEC
1B6CCC
1B6CCC
336CCC
236CCC
466CCC
06CCCC
0CCCCC
08CCCC
198CCC
118CCC
230CCC
430C8C
060C0C
0C1C0C
11F80C
20707C
402018
000010
ENDCHAR
STARTCHAR 5211
ENCODING 21009
SWIDTH 600 0
DWIDTH 24 0
BBX 24 24 0 -2
BITMAP
000010
00181C
3FFC18
0C6018
0C6118
0C61D8
0C6198
0C6198
0C6198
0C6D98
7FFF98
0C6198
0C6198
0C6198
0C6198
0C6198
0C6198
0C6118
186018
186018
306018
2060F8
404030
000020
ENDCHAR
STARTCHAR 5212
ENCODING 21010
SWIDTH 600 0
DWIDTH 24 0
BBX 24 24 0 -2
BITMAP
080010
0E001C
0CC018
0C6018
0C2118
0C01D8
0C3198
0DF998
FE0198
0C4198
0C7198
0C6198
066198
06C198
078198
038998
030998
070918
0D8818
30C818
406818
803CF8
001C30
000020
ENDCHAR
STARTCHAR 5216
ENCODING 21014
SWIDTH 600 0
DWIDTH 24 0
BBX 24 24 0 -2
BITMAP
000008
10300E
1FF80C
18300C
18310C
1831CC
18318C
18318C
1FF18C
18318C
18318C
18318C
18318C
18318C
1FF18C
18318C
18318C
18310C
30300C
30300C
60300C
41F07C
806018
004010
ENDCHAR
STARTCHAR 5217
ENCODING 21015
SWIDTH 600 0
DWIDTH 24 0
BBX 24 24 0 -2
BITMAP
000008
00180E
7FFC0C
03010C
0301CC
03018C
06318C
07F98C
06318C
0C318C
0C318C
1C618C
16618C
22618C
43C18C
02C18C
01818C
01810C
03000C
06000C
0C000C
30007C
400018
000010
ENDCHAR
STARTCHAR 5218
ENCODING 21016
SWIDTH 600 0
DWIDTH 24 0
BBX 24 24 0 -2
BITMAP
000008
06000E
03000C
01810C
0101CC
00198C
7FFD8C
00618C
00618C
10618C
08618C
04C18C
02C18C
02C18C
01818C
01818C
03C18C
06610C
0C600C
08300C
10300C
20107C
400018
000010
ENDCHAR
STARTCHAR 5219
ENCODING 21017
SWIDTH 600 0
DWIDTH 24 0
BBX 24 24 0 -2
BITMAP
000008
00000E
10180C
1FFC0C
18188C
1818EC
1918CC
19D8CC
1998CC
1998CC
1998CC
1998CC
1998CC
1998CC
1998CC
1B10CC
1380CC
06608C
06300C
0C180C
181C0C
200C7C
400818
000010
ENDCHAR
STARTCHAR 521A
ENCODING 21018
SWIDTH 600 0
DWIDTH 24 0
BBX 24 24 0 -2
BITMAP
000008
200C0E
3FFE0C
300C0C
300C8C
304CEC
306CCC
38CCCC
34CCCC
338CCC
318CCC
338CCC
32CCCC
326CCC
346CCC
384CCC
300CCC
300C8C
300C0C
300C0C
307C0C
30187C
201018
000010
ENDCHAR
STARTCHAR 521B
ENCODING 21019
SWIDTH 600 0
DWIDTH 24 0
BBX 24 24 0 -2
BITMAP
020008
03800E
03000C
06C00C
06310C
0C19CC
0C0D8C
18058C
18318C
2FF98C
2C318C
4C318C
0C318C
0C318C
0C318C
0DF18C
0C618C
0C490C
0C080C
0C0C0C
0FFC0C
07F87C
000018
000010
ENDCHAR
STARTCHAR 521D
ENCODING 21021
SWIDTH 600 0
DWIDTH 24 0
BBX 24 24 0 -2
BITMAP
000000
0C0000
060000
03000C
021FFE
00830C
7FC30C
01830C
03030C
03430C
06E30C
0E830C
1F030C
36830C
66660C
86460C
06060C
060C0C
06180C
06101C
0621F8
064070
068020
040000
ENDCHAR
STARTCHAR 5220
ENCODING 21024
SWIDTH 600 0
DWIDTH 24 0
BBX 24 24 0 -2
BITMAP
000008
11220E
1FBF0C
19324C
19326C
19324C
19324C
19324C
19324C
19324C
7FFFCC
19324C
19324C
19324C
19324C
19324C
19324C
31320C
31620C
61620C
4E420C
849E7C
010418
000010
ENDCHAR
STARTCHAR 5224
ENCODING 21028
SWIDTH 600 0
DWIDTH 24 0
BBX 24 24 0 -2
BITMAP
010008
01C00E
01880C
218C0C
31988C
1990EC
0DA0CC
09C0CC
0198CC
3FFCCC
0180CC
0180CC
0180CC
018CCC
7FFECC
0300CC
0300CC
06008C
06000C
0C000C
08000C
10007C
200018
000010
ENDCHAR
STARTCHAR 5228
ENCODING 21032
SWIDTH 600 0
DWIDTH 24 0
BBX 24 24 0 -2
BITMAP
080008
0E000E
0C000C
0C180C
1FFC8C
1818EC
1818CC
3198CC
3FD8CC
5998CC
5998CC
1998CC
1998CC
1F98CC
1838CC
19F0CC
1864CC
18448C
18040C
18060C
1FFE0C
0FFC7C
000018
000010
ENDCHAR
STARTCHAR 5229
ENCODING 21033
SWIDTH 600 0
DWIDTH 24 0
BBX 24 24 0 -2
BITMAP
000008
00700E
03F80C
3F810C
0181CC
01818C
01818C
01998C
7FFD8C
03818C
03818C
07C18C
07B18C
0D998C
098D8C
19898C
31818C
21810C
41800C
01800C
01800C
01807C
018018
010010
ENDCHAR
STARTCHAR 522B
ENCODING 21035
SWIDTH 600 0
DWIDTH 24 0
BBX 24 24 0 -2
BITMAP
000008
10180E
1FFC0C
18180C
18188C
1818EC
1818CC
1818CC
1FF8CC
1818CC
1210CC
0380CC
0318CC
3FFCCC
0318CC
0318CC
0318CC
06188C
06180C
0C380C
19F00C
30607C
404018
000010
ENDCHAR
STARTCHAR 522D
ENCODING 21037
SWIDTH 600 0
DWIDTH 24 0
BBX 24 24 0 -2
BITMAP
000008
00300E
3FF80C
00300C
00610C
0041CC
00C18C
01E18C
03398C
061D8C
080D8C
30058C
40318C
1FF98C
01818C
01818C
01818C
01810C
01800C
01F80C
7F000C
30007C
000018
000010
ENDCHAR
STARTCHAR 522E
ENCODING 21038
SWIDTH 600 0
DWIDTH 24 0
BBX 24 24 0 -2
BITMAP
000008
00300E
03F80C
3F800C
01808C
0180EC
0180CC
018CCC
7FFECC
0180CC
0180CC
0180CC
0180CC
1198CC
1FFCCC
1818CC
1818CC
18188C
18180C
18180C
1FF80C
18187C
101018
000010
ENDCHAR
STARTCHAR 5230
ENCODING 21040
SWIDTH 600 0
DWIDTH 24 0
BBX 24 24 0 -2
BITMAP
000008
00000E
00180C
7FFC0C
03010C
0601CC
04418C
08218C
10318C
7FF98C
33118C
03018C
03018C
03318C
7FF98C
03018C
03018C
03010C
03180C
03E00C
7F800C
3C007C
100018
000010
ENDCHAR
STARTCHAR 5233
ENCODING 21043
SWIDTH 600 0
DWIDTH 24 0
BBX 24 24 0 -2
BITMAP
010008
01C00E
01800C
01980C
7FFC8C
0380EC
0660CC
0C18CC
184CCC
37E4CC
4000CC
0018CC
3FFCCC
0600CC
0C00CC
0C30CC
1FF8CC
08308C
00300C
00700C
07E00C
01C07C
008018
000010
ENDCHAR
STARTCHAR 5236
ENCODING 21046
SWIDTH 600 0
DWIDTH 24 0
BBX 24 24 0 -2
BITMAP
010010
01C01C
118018
1D8018
199918
3FFDD8
218198
418198
018D98
7FFF98
018198
018198
119998
1FFD98
199998
199998
199998
199918
199818
19F818
11B018
0180F8
018030
010020
ENDCHAR
STARTCHAR 5237
ENCODING 21047
SWIDTH 600 0
DWIDTH 24 0
BBX 24 24 0 -2
BITMAP
000008
100C0E
1FFE0C
180C0C
180C8C
180CEC
1FFCCC
1888CC
18E0CC
18C0CC
18CCCC
1FFECC
1CCCCC
1CCCCC
1CCCCC
1CCCCC
34CCCC
34CC8C
24CC0C
64FC0C
40D80C
80C07C
00C018
008010
ENDCHAR
STARTCHAR 5238
ENCODING 21048
SWIDTH 600 0
DWIDTH 24 0
BBX 24 24 0 -2
BITMAP
001000
0C1C80
0618E0
031980
023100
003230
1FFFF8
006000
006000
00C00C
7FFFFE
018100
030080
0600C0
0DFFF0
1061BE
606198
00C180
00C180
018180
030380
063F00
080E00
100400
ENDCHAR
STARTCHAR 5239
ENCODING 21049
SWIDTH 600 0
DWIDTH 24 0
BBX 24 24 0 -2
BITMAP
000008
00100E
18380C
06610C
01C1CC
01E18C
06318C
18198C
21098C
01C18C
01998C
7FFD8C
01818C
09818C
0DA18C
0D918C
19998C
118D0C
318C0C
21880C
4F800C
03007C
020018
000010
ENDCHAR
STARTCHAR 523A
ENCODING 21050
SWIDTH 600 0
DWIDTH 24 0
BBX 24 24 0 -2
BITMAP
010008
01C00E
01800C
018C8C
7FFEEC
0180CC
118CCC
1FFECC
198CCC
198CCC
198CCC
198CCC
198CCC
19BCCC
1398CC
03C0CC
07B0CC
0D988C
198C0C
21840C
41800C
01807C
018018
010010
ENDCHAR
STARTCHAR 523B
ENCODING 21051
SWIDTH 600 0
DWIDTH 24 0
BBX 24 24 0 -2
BITMAP
030008
01800E
01C00C
008C0C
7FFE8C
0100EC
0380CC
0610CC
0C38CC
1030CC
3FE0CC
18C0CC
0190CC
031CCC
0638CC
0830CC
3060CC
40E08C
01980C
030C0C
06060C
18047C
200018
000010
ENDCHAR
STARTCHAR 523D
ENCODING 21053
SWIDTH 600 0
DWIDTH 24 0
BBX 24 24 0 -2
BITMAP
010008
01C00E
03000C
03C08C
0630EC
0C18CC
100CCC
2064CC
4FF0CC
0000CC
0000CC
0018CC
7FFCCC
0200CC
0380CC
0300CC
0620CC
04108C
08180C
7FFC0C
3E0C0C
10087C
000018
000010
ENDCHAR
STARTCHAR 523F
ENCODING 21055
SWIDTH 600 0
DWIDTH 24 0
BBX 24 24 0 -2
BITMAP
010008
01C00E
21880C
398E0C
318C8C
318CEC
318CCC
7FFCCC
2108CC
0380CC
0308CC
07FCCC
0C18CC
0818CC
1418CC
2330CC
4330CC
01608C
00C00C
01800C
03000C
0C007C
300018
400010
ENDCHAR
STARTCHAR 5240
ENCODING 21056
SWIDTH 600 0
DWIDTH 24 0
BBX 24 24 0 -2
BITMAP
010008
01C00E
21880C
398E0C
318C8C
318CEC
318CCC
7FFCCC
2008CC
0000CC
0030CC
3FF8CC
0030CC
0030CC
1030CC
1FF0CC
1820CC
18008C
18000C
18380C
19E00C
1F007C
3C0018
100010
ENDCHAR
STARTCHAR 5241
ENCODING 21057
SWIDTH 600 0
DWIDTH 24 0
BBX 24 24 0 -2
BITMAP
000008
08300E
0FF80C
0C300C
0C308C
0C30EC
0C30CC
0C3CCC
181ECC
1900CC
31C0CC
4180CC
0198CC
7FFCCC
0380CC
07C0CC
07B0CC
0D988C
198C0C
31880C
41800C
01807C
018018
010010
ENDCHAR
STARTCHAR 5242
ENCODING 21058
SWIDTH 600 0
DWIDTH 24 0
BBX 24 24 0 -2
BITMAP
060008
03000E
01800C
010C0C
7FFE8C
0030EC
1860CC
06C0CC
01C0CC
0370CC
0638CC
180CCC
6844CC
0E70CC
0C60CC
0C60CC
0C60CC
0C608C
0C600C
18600C
18600C
30607C
206018
404010
ENDCHAR
STARTCHAR 5243
ENCODING 21059
SWIDTH 600 0
DWIDTH 24 0
BBX 24 24 0 -2
BITMAP
102008
0C300E
06600C
06400C
04988C
3FFCEC
0198CC
0198CC
1198CC
1FF8CC
1990CC
1980CC
198CCC
3FFECC
138CCC
078CCC
078CCC
0DFC8C
19980C
31900C
41800C
81807C
018018
010010
ENDCHAR
STARTCHAR 524A
ENCODING 21066
SWIDTH 600 0
DWIDTH 24 0
BBX 24 24 0 -2
BITMAP
010008
01C00E
21900C
119C8C
19B0EC
0DA0CC
09C0CC
1198CC
1FFCCC
1818CC
1818CC
1818CC
1FF8CC
1818CC
1818CC
1818CC
1FF8CC
18188C
18180C
18180C
18180C
18F87C
183018
102010
ENDCHAR
STARTCHAR 524C
ENCODING 21068
SWIDTH 600 0
DWIDTH 24 0
BBX 24 24 0 -2
BITMAP
010008
01C00E
01800C
018C0C
7FFE8C
0180EC
0180CC
1198CC
1FFCCC
1998CC
1998CC
1998CC
1FF8CC
1390CC
07C0CC
07B0CC
0D98CC
0D8C8C
19880C
31800C
21800C
41807C
018018
010010
ENDCHAR
STARTCHAR 524D
ENCODING 21069
SWIDTH 600 0
DWIDTH 24 0
BBX 24 24 0 -2
BITMAP
020100
0181C0
00C300
006200
00440C
7FFFFE
000000
106020
1FF238
1863B0
186330
186330
1FE330
186330
186330
186330
1FE330
186330
186230
186030
186030
1BE1F0
18C060
108040
ENDCHAR
STARTCHAR 5250
ENCODING 21072
SWIDTH 600 0
DWIDTH 24 0
BBX 24 24 0 -2
BITMAP
000008
10180E
1FFC0C
18180C
18188C
1818EC
1818CC
1FF8CC
1190CC
0180CC
218CCC
3FFECC
318CCC
318CCC
338CCC
334CCC
366CCC
344C8C
380C0C
300C0C
307C0C
30187C
201018
000010
ENDCHAR
STARTCHAR 5251
ENCODING 21073
SWIDTH 600 0
DWIDTH 24 0
BBX 24 24 0 -2
BITMAP
010008
01C00E
03000C
03E00C
06388C
0C0CEC
1806CC
3004CC
6030CC
8FF8CC
0000CC
1210CC
111CCC
0998CC
0D90CC
0DB0CC
0D20CC
08208C
004E0C
03F80C
7F800C
38007C
000018
000010
ENDCHAR
STARTCHAR 5254
ENCODING 21076
SWIDTH 600 0
DWIDTH 24 0
BBX 24 24 0 -2
BITMAP
000008
10300E
1FF80C
18308C
1830EC
1FF0CC
1830CC
1830CC
1FF0CC
1420CC
0600CC
0C0CCC
1FFECC
336CCC
466CCC
8CCCCC
08CCCC
118C8C
230C0C
061C0C
08F80C
10307C
202018
000010
ENDCHAR
STARTCHAR 5256
ENCODING 21078
SWIDTH 600 0
DWIDTH 24 0
BBX 24 24 0 -2
BITMAP
060008
03000E
01800C
01190C
3FFDCC
00218C
08318C
0C618C
06418C
048D8C
7FFF8C
00018C
00018C
10318C
1FF98C
18318C
18318C
18310C
18300C
1FF00C
18300C
18307C
102018
000010
ENDCHAR
STARTCHAR 525C
ENCODING 21084
SWIDTH 600 0
DWIDTH 24 0
BBX 24 24 0 -2
BITMAP
030008
01800E
00C00C
20864C
3FFF6C
60064C
680C4C
4C104C
19424C
1F7F4C
33624C
33624C
63624C
5B624C
8E624C
06624C
066A4C
0C644C
0C600C
18660C
10780C
20E07C
404018
000010
ENDCHAR
STARTCHAR 525E
ENCODING 21086
SWIDTH 600 0
DWIDTH 24 0
BBX 24 24 0 -2
BITMAP
020008
03800E
03000C
03180C
7FFC8C
0300EC
0680CC
0660CC
0C30CC
1014CC
7FFECC
0018CC
1198CC
1FD8CC
1998CC
1998CC
1998CC
1F988C
19180C
10180C
00180C
00F87C
003018
002010
ENDCHAR
STARTCHAR 5261
ENCODING 21089
SWIDTH 600 0
DWIDTH 24 0
BBX 24 24 0 -2
BITMAP
010010
01C01C
018818
118C18
119918
31B1D8
71C198
238198
036198
063998
0D0D98
31C998
018198
118998
119D98
31B198
71C198
230118
03C018
067018
0C3818
1818F8
601030
000020
ENDCHAR
STARTCHAR 5265
ENCODING 21093
SWIDTH 600 0
DWIDTH 24 0
BBX 24 24 0 -2
BITMAP
000008
00300E
3FF80C
00308C
0030EC
1FF0CC
0030CC
0034CC
7FFECC
0180CC
2188CC
199ECC
0DB0CC
05C0CC
03C0CC
05B0CC
199CCC
718E8C
21860C
01840C
0F800C
03007C
020018
000010
ENDCHAR
STARTCHAR 5267
ENCODING 21095
SWIDTH 600 0
DWIDTH 24 0
BBX 24 24 0 -2
BITMAP
000008
100C0E
1FFE0C
180C0C
180C8C
180CEC
1FFCCC
1888CC
18E0CC
18C0CC
18CCCC
1FFECC
18C0CC
18C0CC
18CCCC
17FECC
360CCC
360C8C
260C0C
660C0C
47FC0C
860C7C
040818
000010
ENDCHAR
STARTCHAR 5269
ENCODING 21097
SWIDTH 600 0
DWIDTH 24 0
BBX 24 24 0 -2
BITMAP
000008
00380E
01FC0C
3F800C
01808C
018CEC
7FFECC
0180CC
0990CC
0D96CC
399CCC
0990CC
0992CC
1992CC
698ECC
03C0CC
07B0CC
0D988C
198C0C
11880C
21800C
41807C
018018
010010
ENDCHAR
STARTCHAR 526A
ENCODING 21098
SWIDTH 600 0
DWIDTH 24 0
BBX 24 24 0 -2
BITMAP
020080
0180E0
00C180
00820C
7FFFFE
000020
083238
0FFBB0
0C3330
0FF330
0C3330
0FF330
0C3230
0CF0F0
086020
000010
3FFFF8
006030
006030
00C030
018070
0307E0
0C01C0
300080
ENDCHAR
STARTCHAR 526F
ENCODING 21103
SWIDTH 600 0
DWIDTH 24 0
BBX 24 24 0 -2
BITMAP
000008
000C0E
7FFE0C
00008C
1018EC
1FFCCC
1818CC
1818CC
1818CC
1FF8CC
0000CC
200CCC
3FFECC
318CCC
318CCC
318CCC
3FFCCC
318C8C
318C0C
318C0C
3FFC0C
300C7C
200818
000010
ENDCHAR
STARTCHAR 5272
ENCODING 21106
SWIDTH 600 0
DWIDTH 24 0
BBX 24 24 0 -2
BITMAP
030008
01800E
00C00C
20840C
3FFE8C
210CEC
6188CC
5FFCCC
0180CC
0190CC
1FF8CC
0180CC
018CCC
7FFECC
0180CC
1118CC
1FFCCC
18188C
18180C
18180C
1FF80C
18187C
101018
000010
ENDCHAR
STARTCHAR 527D
ENCODING 21117
SWIDTH 600 0
DWIDTH 24 0
BBX 24 24 0 -2
BITMAP
000008
00060E
7FFF0C
02400C
224C8C
3FFEEC
324CCC
324CCC
324CCC
3FFCCC
2000CC
0018CC
3FFCCC
0000CC
0004CC
7FFECC
00C0CC
08D08C
0ECC0C
18C60C
30C30C
27C27C
418018
010010
ENDCHAR
STARTCHAR 527F
ENCODING 21119
SWIDTH 600 0
DWIDTH 24 0
BBX 24 24 0 -2
BITMAP
088808
0CCC0E
11100C
22200C
19988C
0888EC
2000CC
3FFCCC
318CCC
318CCC
3FFCCC
318CCC
318CCC
3FFCCC
2188CC
0184CC
7FFECC
03C08C
07B00C
0D9C0C
198C0C
21847C
418018
010010
ENDCHAR
STARTCHAR 5281
ENCODING 21121
SWIDTH 600 0
DWIDTH 24 0
BBX 24 24 0 -2
BITMAP
044008
07600E
06300C
06240C
0FFE8C
0C60EC
1C60CC
1C64CC
2FFECC
4C60CC
8C60CC
0C64CC
0FFECC
0C60CC
0C60CC
0C64CC
0FFECC
08008C
12480C
13640C
31260C
61247C
200018
000010
ENDCHAR
STARTCHAR 5282
ENCODING 21122
SWIDTH 600 0
DWIDTH 24 0
BBX 24 24 0 -2
BITMAP
000008
20030E
3FFF8C
30400C
34484C
328C6C
30894C
3FDFCC
31194C
35524C
35604C
35484C
354E4C
354C4C
37CC4C
310C4C
311C4C
331A4C
32330C
66618C
64410C
48807C
910018
020010
ENDCHAR
STARTCHAR 5288
ENCODING 21128
SWIDTH 600 0
DWIDTH 24 0
BBX 24 24 0 -2
BITMAP
000180
1060C0
1FF088
186FFC
186210
186330
1FE124
180FFE
3060C0
3FF0D0
3C67F8
6C60C0
4FE0C0
8C60C0
084080
000030
3FFFF8
006030
006030
00C030
018070
0307E0
0C01C0
300080
ENDCHAR
STARTCHAR 5290
ENCODING 21136
SWIDTH 600 0
DWIDTH 24 0
BBX 24 24 0 -2
BITMAP
082008
0E380E
0C300C
7FFE8C
0D30EC
08C0CC
0C44CC
1FFECC
18C0CC
3FFCCC
58C0CC
1FFCCC
18C0CC
1FFECC
1008CC
3FFCCC
0018CC
0C308C
03600C
01C00C
03700C
06187C
180818
600010
ENDCHAR
STARTCHAR 5293
ENCODING 21139
SWIDTH 600 0
DWIDTH 24 0
BBX 24 24 0 -2
BITMAP
030008
12180E
1FFC0C
18188C
1FF8EC
1818CC
1FF8CC
1818CC
1FF8CC
1010CC
2004CC
3FFECC
318CCC
3FFCCC
318CCC
3FFCCC
20088C
00020C
7FFF0C
06300C
06300C
0C307C
183018
202010
ENDCHAR
STARTCHAR 529B
ENCODING 21147
SWIDTH 600 0
DWIDTH 24 0
BBX 24 24 0 -2
BITMAP
001000
001C00
001800
001800
001800
001800
001818
1FFFFC
001818
001818
001818
003018
003018
003018
006018
006018
00C018
00C018
018018
030038
0607F0
1800E0
600040
000000
ENDCHAR
STARTCHAR 529D
ENCODING 21149
SWIDTH 600 0
DWIDTH 24 0
BBX 24 24 0 -2
BITMAP
000200
000380
000300
000300
006300
3FF300
00630C
006FFE
10630C
08C30C
04C30C
03830C
01830C
03830C
06C60C
06E60C
0C660C
186C0C
104C0C
20181C
4031F8
006070
00C020
010000
ENDCHAR
STARTCHAR 529E
ENCODING 21150
SWIDTH 600 0
DWIDTH 24 0
BBX 24 24 0 -2
BITMAP
004000
007000
006000
006000
006000
006180
1FFFC0
006180
006180
0061A0
086190
086198
18618C
38C18E
70C186
60C186
018184
018180
030380
060700
0C7E00
301C00
400800
000000
ENDCHAR
STARTCHAR 529F
ENCODING 21151
SWIDTH 600 0
DWIDTH 24 0
BBX 24 24 0 -2
BITMAP
000400
000700
000600
00C600
7FE600
060600
060618
067FFC
060618
060618
060618
060618
060618
060C18
066C18
078C18
0E1818
781818
303018
206038
00C3F0
0100E0
020040
000000
ENDCHAR
STARTCHAR 52A0
ENCODING 21152
SWIDTH 600 0
DWIDTH 24 0
BBX 24 24 0 -2
BITMAP
040000
070000
060000
060000
06020C
0633FE
7FFB0C
06330C
06330C
06330C
06330C
06330C
06330C
06330C
06330C
06330C
0C330C
0C330C
0C330C
1873FC
13E30C
20C30C
408208
000000
ENDCHAR
STARTCHAR 52A1
ENCODING 21153
SWIDTH 600 0
DWIDTH 24 0
BBX 24 24 0 -2
BITMAP
010000
01C000
018060
01FFF0
0300C0
030180
068300
0C6600
083C00
103E00
00E780
0341E0
0C707E
3060D8
C7FFE0
0060C0
0060C0
00C0C0
00C0C0
0180C0
0301C0
061F80
080700
100200
ENDCHAR
STARTCHAR 52A2
ENCODING 21154
SWIDTH 600 0
DWIDTH 24 0
BBX 24 24 0 -2
BITMAP
000100
0001C0
003180
7FF980
0C0180
0C0180
0C018C
0C67FE
0FF18C
0C618C
0C618C
0C618C
0C618C
0C618C
0C630C
18630C
18630C
18660C
30E60C
37CC1C
6189F8
411070
802020
004000
ENDCHAR
STARTCHAR 52A3
ENCODING 21155
SWIDTH 600 0
DWIDTH 24 0
BBX 24 24 0 -2
BITMAP
001000
001C00
001880
021860
039830
07181C
06188E
0C19C6
081304
100E00
203800
00D000
031C00
1C1800
601830
0FFFF8
003030
003030
006030
00C030
018070
0307E0
0C01C0
300080
ENDCHAR
STARTCHAR 52A8
ENCODING 21160
SWIDTH 600 0
DWIDTH 24 0
BBX 24 24 0 -2
BITMAP
000100
0001C0
000180
00C180
3FE180
000180
00018C
000FFE
00618C
7FF18C
04018C
07018C
06018C
0C018C
08830C
18430C
10630C
23F60C
7E360C
302C1C
0019F8
006070
018020
020000
ENDCHAR
STARTCHAR 52A9
ENCODING 21161
SWIDTH 600 0
DWIDTH 24 0
BBX 24 24 0 -2
BITMAP
000100
0001C0
106180
1FF180
186180
186180
18618C
186FFE
1FE18C
18618C
18618C
18618C
18618C
1FE18C
18630C
18630C
18630C
18760C
19C60C
1F0C1C
F819F8
601070
002020
004000
ENDCHAR
STARTCHAR 52AA
ENCODING 21162
SWIDTH 600 0
DWIDTH 24 0
BBX 24 24 0 -2
BITMAP
020000
038000
030018
036FFC
7FF418
066430
0C6230
08C260
1CC1C0
0781C0
03C360
06EC3E
085018
301C00
001860
1FFFF0
003060
003060
006060
00C060
0180E0
060FC0
180380
200100
ENDCHAR
STARTCHAR 52AB
ENCODING 21163
SWIDTH 600 0
DWIDTH 24 0
BBX 24 24 0 -2
BITMAP
020100
0381C0
030180
030180
032180
3FF180
03018C
031FFE
03018C
03318C
7FF98C
04018C
07030C
06030C
0C030C
0C830C
18C60C
10660C
7FEC0C
384C1C
0019F8
003070
00C020
030000
ENDCHAR
STARTCHAR 52AC
ENCODING 21164
SWIDTH 600 0
DWIDTH 24 0
BBX 24 24 0 -2
BITMAP
080100
0E01C0
0C0180
0C0180
183180
1FF980
18318C
3037FE
31318C
7FB18C
59318C
99318C
19318C
19318C
19330C
1F330C
19330C
10360C
00660C
07EC1C
01C8F8
009030
002020
004000
ENDCHAR
STARTCHAR 52AD
ENCODING 21165
SWIDTH 600 0
DWIDTH 24 0
BBX 24 24 0 -2
BITMAP
000100
0001C0
003180
7FF980
063180
063180
06318C
0C37FE
0C318C
19F18C
10618C
20418C
50318C
1FF98C
18318C
18318C
18318C
18330C
18330C
18321C
1FF6F8
182430
100820
001000
ENDCHAR
STARTCHAR 52B1
ENCODING 21169
SWIDTH 600 0
DWIDTH 24 0
BBX 24 24 0 -2
BITMAP
000080
0000E0
1018C0
1FFCC0
1800C0
1800C0
1810CC
1FFBFE
1980CC
1980CC
1998CC
19FCCC
1998CC
1998CC
1998CC
19998C
19998C
33198C
331B0C
263B0C
65F61C
4864F8
904830
001020
ENDCHAR
STARTCHAR 52B2
ENCODING 21170
SWIDTH 600 0
DWIDTH 24 0
BBX 24 24 0 -2
BITMAP
000100
0061C0
3FF180
00C180
00C180
018180
03018C
078FFE
0C618C
18318C
20198C
40098C
00618C
3FF18C
03030C
03030C
03030C
03360C
03C60C
0F0C1C
7C19F8
301070
002020
004000
ENDCHAR
STARTCHAR 52B3
ENCODING 21171
SWIDTH 600 0
DWIDTH 24 0
BBX 24 24 0 -2
BITMAP
008200
00E380
00C300
00C318
3FFFFC
00C300
00C300
008200
10000C
1FFFFE
300018
702020
603800
003060
0FFFF0
006060
006060
00C060
00C060
018060
0300E0
0C1FC0
300380
000100
ENDCHAR
STARTCHAR 52BE
ENCODING 21182
SWIDTH 600 0
DWIDTH 24 0
BBX 24 24 0 -2
BITMAP
060100
0301C0
018180
011180
7FF980
02018C
070FFE
06018C
0C418C
08E18C
10C18C
3F918C
13198C
06318C
0C630C
18C30C
61830C
83060C
06C60C
186C1C
6059F8
801070
002020
004000
ENDCHAR
STARTCHAR 52BF
ENCODING 21183
SWIDTH 600 0
DWIDTH 24 0
BBX 24 24 0 -2
BITMAP
040400
070700
060600
068660
7FDFF0
060660
066660
078660
1E1C64
760E34
261B34
06311C
3EC00E
0C4006
087000
006060
3FFFF0
00C060
00C060
018060
0300E0
060FC0
180380
600100
ENDCHAR
STARTCHAR 52C3
ENCODING 21187
SWIDTH 600 0
DWIDTH 24 0
BBX 24 24 0 -2
BITMAP
020100
0381C0
030180
031180
7FF980
030180
03018C
2317FE
3FF98C
60318C
60418C
5FE18C
00C18C
00818C
033B0C
07C30C
7F030C
33060C
03060C
030C1C
0319F8
1F1070
062020
044000
ENDCHAR
STARTCHAR 52C7
ENCODING 21191
SWIDTH 600 0
DWIDTH 24 0
BBX 24 24 0 -2
BITMAP
000030
1FFFF8
000060
0080C0
007300
081C30
0FFFF8
0C1830
0C1830
0FFFF0
0C1830
0C1830
0FFFF0
0C1830
083000
003030
7FFFF8
006030
006030
00C030
018070
0607E0
1801C0
600080
ENDCHAR
STARTCHAR 52C9
ENCODING 21193
SWIDTH 600 0
DWIDTH 24 0
BBX 24 24 0 -2
BITMAP
070100
0601C0
0C6180
0FF180
18C180
108180
311998
3FFFFC
599998
199998
199998
199998
1FF998
199318
138318
03C618
06C618
06CC30
0CC9F4
08D064
18C006
10FFFE
207FFC
400000
ENDCHAR
STARTCHAR 52CB
ENCODING 21195
SWIDTH 600 0
DWIDTH 24 0
BBX 24 24 0 -2
BITMAP
000100
1061C0
1FF180
186180
186180
186180
1FE18C
000FFE
20318C
3FF98C
30318C
32318C
33B18C
33318C
33330C
33330C
33330C
26A60C
06C60C
0C6C1C
1849F8
201070
402020
004000
ENDCHAR
STARTCHAR 52D0
ENCODING 21200
SWIDTH 600 0
DWIDTH 24 0
BBX 24 24 0 -2
BITMAP
000100
0031C0
3FF980
006180
004180
019180
7FF98C
0187FE
01818C
01818C
0F818C
03018C
22118C
3FF98C
24918C
24930C
24930C
24930C
24FE0C
27C61C
FC0CF8
601830
001020
002000
ENDCHAR
STARTCHAR 52D2
ENCODING 21202
SWIDTH 600 0
DWIDTH 24 0
BBX 24 24 0 -2
BITMAP
104100
1C71C0
186180
186980
7FFD80
186180
18618C
1FEFFE
13418C
03018C
23318C
3FF98C
33318C
33318C
33330C
3FF30C
23030C
03260C
FFF60C
030C1C
0309F8
031070
032020
024000
ENDCHAR
STARTCHAR 52D6
ENCODING 21206
SWIDTH 600 0
DWIDTH 24 0
BBX 24 24 0 -2
BITMAP
000080
2018E0
3FFCC0
3018C0
3098C0
37D8C0
3018CC
309BFE
27D0CC
0000CC
1030CC
1FF8CC
1830CC
1830CC
1FF18C
18318C
18318C
1FF30C
18330C
18321C
1FF6F8
183430
102820
001000
ENDCHAR
STARTCHAR 52D8
ENCODING 21208
SWIDTH 600 0
DWIDTH 24 0
BBX 24 24 0 -2
BITMAP
104100
1C71C0
186180
186980
7FFD80
186180
18618C
1FEFFE
18618C
18618C
1FE18C
18618C
18698C
FFFD8C
32418C
33318C
361B0C
34130C
38030C
30260C
7FF61C
200CF8
001830
002020
ENDCHAR
STARTCHAR 52DF
ENCODING 21215
SWIDTH 600 0
DWIDTH 24 0
BBX 24 24 0 -2
BITMAP
008200
00E380
00C30C
7FFFFE
00C300
040060
07FFF0
060060
07FFE0
060060
07FFE0
043040
00600C
7FFFFE
01A100
0338C0
0C3070
33FFDE
4060C8
00C0C0
0181C0
031F80
0C0700
300200
ENDCHAR
STARTCHAR 52E4
ENCODING 21220
SWIDTH 600 0
DWIDTH 24 0
BBX 24 24 0 -2
BITMAP
104100
1C71C0
186180
7FF980
186180
18618C
1FEFFE
03018C
23318C
3FF98C
33318C
33318C
3FF18C
23218C
03030C
3FF30C
03030C
03230C
3FF60C
03061C
03ECF8
7F1830
383020
004000
ENDCHAR
STARTCHAR 52F0
ENCODING 21232
SWIDTH 600 0
DWIDTH 24 0
BBX 24 24 0 -2
BITMAP
040000
07040C
0607FE
06664C
7FF64C
06664C
0C67FC
0C664C
18664C
33E64C
40C7FC
10860C
14A488
7FF240
14A368
14A364
24AB46
24AB03
252B03
453B0A
5D2B08
4AE3FC
8241F8
040000
ENDCHAR
STARTCHAR 52F9
ENCODING 21241
SWIDTH 600 0
DWIDTH 24 0
BBX 24 24 0 -2
BITMAP
020000
038000
030000
060030
0FFFF8
0C0030
180030
100030
200030
400030
000030
000030
000030
000030
000030
000030
000030
000030
000030
000030
000070
0007E0
0001C0
000080
ENDCHAR
STARTCHAR 52FA
ENCODING 21242
SWIDTH 600 0
DWIDTH 24 0
BBX 24 24 0 -2
BITMAP
010000
01C000
018000
030000
030030
07FFF8
060030
0C0030
080030
180030
110030
20C030
406030
003030
003830
001830
001030
000030
000030
000030
000070
000FE0
0001C0
000080
ENDCHAR
STARTCHAR 52FE
ENCODING 21246
SWIDTH 600 0
DWIDTH 24 0
BBX 24 24 0 -2
BITMAP
020000
038000
030000
060000
060018
07FFFC
0C0018
0C4018
187018
106018
20C018
40C018
018018
010818
030418
020618
060318
043F98
1FE198
0E0118
000038
0007F0
0000E0
000040
ENDCHAR
STARTCHAR 52FF
ENCODING 21247
SWIDTH 600 0
DWIDTH 24 0
BBX 24 24 0 -2
BITMAP
010000
01C000
018000
030000
030018
07FFFC
066318
0C6318
186318
106318
20C318
40C618
018618
018618
030C18
060C18
0C1818
103018
206018
018038
0607F0
1800E0
600040
000000
ENDCHAR
STARTCHAR 5300
ENCODING 21248
SWIDTH 600 0
DWIDTH 24 0
BBX 24 24 0 -2
BITMAP
010000
01C000
018000
030000
030018
07FFFC
060018
0C8018
186018
203018
403818
001818
001018
000018
000398
001E18
00F018
0F8018
060018
000038
0007F0
0000E0
000040
000000
ENDCHAR
STARTCHAR 5305
ENCODING 21253
SWIDTH 600 0
DWIDTH 24 0
BBX 24 24 0 -2
BITMAP
010000
01C000
018000
030000
030030
07FFF8
060030
0C0030
0C0C30
1FFE30
360C30
260C30
460C30
060C30
07FC30
060870
0603E0
0600C4
060084
060004
060006
07FFFE
03FFFC
000000
ENDCHAR
STARTCHAR 5306
ENCODING 21254
SWIDTH 600 0
DWIDTH 24 0
BBX 24 24 0 -2
BITMAP
010000
01C000
018000
030000
030018
07FFFC
066318
0C6318
186318
12C318
21C318
40E318
01B618
011E18
030C18
060E18
0C1B18
183118
206018
00C038
0183F0
0600E0
180040
000000
ENDCHAR
STARTCHAR 5308
ENCODING 21256
SWIDTH 600 0
DWIDTH 24 0
BBX 24 24 0 -2
BITMAP
020000
038000
030000
060018
07FFFC
0C0018
0C0818
180C18
191918
2C99D8
2C7198
4C3198
0C7198
0CD998
0C9998
0D0D98
0E0998
0C0198
1FFF98
080118
000038
0003F0
0000E0
000040
ENDCHAR
STARTCHAR 530D
ENCODING 21261
SWIDTH 600 0
DWIDTH 24 0
BBX 24 24 0 -2
BITMAP
040000
070000
06000C
07FFFE
0C220C
0C3B0C
18314C
1FFFEC
30300C
64318C
47FFCC
86318C
06318C
07FF8C
06318C
06318C
07FF8C
06318C
06318C
06378C
06231C
0402F8
000030
000020
ENDCHAR
STARTCHAR 530F
ENCODING 21263
SWIDTH 600 0
DWIDTH 24 0
BBX 24 24 0 -2
BITMAP
040200
070380
060300
064600
7FE40C
0E0FFE
19880C
30D00C
6048CC
408FEC
9FCCCC
000CCC
004CCC
7FEFCC
0C0C8C
18CC1C
3FECF8
10CC30
00CC24
00CC04
01CC06
1F8FFE
0707FC
020000
ENDCHAR
STARTCHAR 5310
ENCODING 21264
SWIDTH 600 0
DWIDTH 24 0
BBX 24 24 0 -2
BITMAP
040000
070000
06000C
0FFFFE
0C000C
1800CC
1FFFEC
30000C
47FF8C
86018C
06018C
07FF8C
00000C
0FFFCC
0C30CC
0C30CC
0FFFCC
0C30CC
0C30CC
0FFFCC
08001C
0001F8
000070
000020
ENDCHAR
STARTCHAR 5315
ENCODING 21269
SWIDTH 600 0
DWIDTH 24 0
BBX 24 24 0 -2
BITMAP
020000
038000
030000
030000
030040
0300F0
0301C0
030380
030E00
033800
03C000
030000
030000
030000
030000
030000
030008
030008
030008
03000C
03FFFC
01FFF8
000000
000000
ENDCHAR
STARTCHAR 5316
ENCODING 21270
SWIDTH 600 0
DWIDTH 24 0
BBX 24 24 0 -2
BITMAP
020800
038E00
030C00
030C00
030C00
060C20
060C38
060C60
0F0CC0
0E0D80
1E0F00
360E00
260C00
461C00
863C00
06CC04
070C04
060C04
060C04
060C06
060FFE
0607FC
060000
040000
ENDCHAR
STARTCHAR 5317
ENCODING 21271
SWIDTH 600 0
DWIDTH 24 0
BBX 24 24 0 -2
BITMAP
008400
00E700
00C600
00C600
00C610
00C61C
00C638
00C670
7FC6C0
00C700
00C600
00C600
00C600
00C600
00C600
00C604
00C604
07C604
FCC604
70C606
00C7FE
00C3FC
008000
000000
ENDCHAR
STARTCHAR 5319
ENCODING 21273
SWIDTH 600 0
DWIDTH 24 0
BBX 24 24 0 -2
BITMAP
000100
1061C0
1FF180
186180
186184
1FE18E
186198
1861B0
1FE1A0
1861C0
000180
001980
7FFD84
018184
118184
1D9186
19F9FE
1980FC
198000
358000
338000
61FFFE
40FFF8
800000
ENDCHAR
STARTCHAR 531A
ENCODING 21274
SWIDTH 600 0
DWIDTH 24 0
BBX 24 24 0 -2
BITMAP
000000
000000
100018
1FFFFC
180000
180000
180000
180000
180000
180000
180000
180000
180000
180000
180000
180000
180000
180000
180000
180000
18000C
3FFFFE
100000
000000
ENDCHAR
STARTCHAR 531D
ENCODING 21277
SWIDTH 600 0
DWIDTH 24 0
BBX 24 24 0 -2
BITMAP
000000
100018
1FFFFC
180800
180E00
180C00
190C30
19FFF8
198C30
198C30
198C30
198C30
198C30
198C30
198C30
198DF0
198C60
190C40
180C00
180C00
18080C
3FFFFE
100000
000000
ENDCHAR
STARTCHAR 5320
ENCODING 21280
SWIDTH 600 0
DWIDTH 24 0
BBX 24 24 0 -2
BITMAP
000000
100018
1FFFFC
180000
180040
1883E0
18FFF0
18C000
18C000
18C000
18C018
18FFFC
18C300
18C300
18C300
18C300
198300
198300
190300
1A0300
18020C
3FFFFE
100000
000000
ENDCHAR
STARTCHAR 5321
ENCODING 21281
SWIDTH 600 0
DWIDTH 24 0
BBX 24 24 0 -2
BITMAP
000000
200018
3FFFFC
300000
300000
300060
37FFF0
301800
301800
301800
301840
33FFE0
301800
301800
301800
301800
301830
37FFF8
300000
300000
30000C
7FFFFE
200000
000000
ENDCHAR
STARTCHAR 5323
ENCODING 21283
SWIDTH 600 0
DWIDTH 24 0
BBX 24 24 0 -2
BITMAP
000000
100018
1FFFFC
180000
180000
188030
18FFF8
18C630
18C630
18C630
18FFF0
18C630
18C630
18C630
18FFF0
18C630
188620
180600
180600
180600
18040C
3FFFFE
100000
000000
ENDCHAR
STARTCHAR 5326
ENCODING 21286
SWIDTH 600 0
DWIDTH 24 0
BBX 24 24 0 -2
BITMAP
000000
200018
3FFFFC
310400
31C700
319600
3FF600
330660
329FF0
36C660
34C660
3FF660
34C660
30C664
30F664
37C464
32CC66
30C87E
30D03C
30E000
30800C
7FFFFE
200000
000000
ENDCHAR
STARTCHAR 532A
ENCODING 21290
SWIDTH 600 0
DWIDTH 24 0
BBX 24 24 0 -2
BITMAP
000000
100018
1FFFFC
182200
183B80
183300
183318
1FF3FC
183300
183300
183330
1BF3F8
183300
183300
183318
1FF3FC
183300
183300
183300
183300
18220C
3FFFFE
100000
000000
ENDCHAR
STARTCHAR 532E
ENCODING 21294
SWIDTH 600 0
DWIDTH 24 0
BBX 24 24 0 -2
BITMAP
000000
100018
1FFFFC
180C00
190C60
19FFF0
198C60
198C60
19FFE0
180C08
1FFFFC
180000
19FFE0
198060
198860
198E60
198C40
191B00
1830E0
18C030
190014
3FFFFE
100000
000000
ENDCHAR
STARTCHAR 5339
ENCODING 21305
SWIDTH 600 0
DWIDTH 24 0
BBX 24 24 0 -2
BITMAP
000000
000000
200018
3FFFFC
30C600
30C600
30C600
30C600
30C600
30C600
30C600
30C610
318610
318610
310618
3307F8
3203F0
340000
380000
300018
7FFFFC
200000
000000
000000
ENDCHAR
STARTCHAR 533A
ENCODING 21306
SWIDTH 600 0
DWIDTH 24 0
BBX 24 24 0 -2
BITMAP
000000
000000
200030
3FFFF8
300000
300100
3001C0
310180
308300
306300
303600
301C00
301C00
303600
306300
30C180
3181C0
3200C0
340080
300000
300018
7FFFFC
200000
000000
ENDCHAR
STARTCHAR 533B
ENCODING 21307
SWIDTH 600 0
DWIDTH 24 0
BBX 24 24 0 -2
BITMAP
000000
200030
3FFFF8
308000
30E000
30C0C0
31FFE0
319800
331800
341800
301830
3FFFF8
301800
303800
303400
306300
30C180
3180C0
330060
3C0040
300018
7FFFFC
200000
000000
ENDCHAR
STARTCHAR 533E
ENCODING 21310
SWIDTH 600 0
DWIDTH 24 0
BBX 24 24 0 -2
BITMAP
000000
200018
3FFFFC
301800
300C00
310860
31FFF0
318060
318060
31FFE0
318040
31C030
31FFF8
334930
334930
327FF0
364930
344930
384830
3041F0
300064
7FFFFE
200000
000000
ENDCHAR
STARTCHAR 533F
ENCODING 21311
SWIDTH 600 0
DWIDTH 24 0
BBX 24 24 0 -2
BITMAP
000000
200018
3FFFFC
304100
3071C0
306190
37FFF8
306180
306980
304D00
301818
37FFFC
303000
30E060
30FFF0
31C060
32C060
34C060
30FFE0
30C060
30804C
7FFFFE
200000
000000
ENDCHAR
STARTCHAR 5341
ENCODING 21313
SWIDTH 600 0
DWIDTH 24 0
BBX 24 24 0 -2
BITMAP
001000
001C00
001800
001800
001800
001800
001800
001800
001800
00180C
7FFFFE
001800
001800
001800
001800
001800
001800
001800
001800
001800
001800
001800
001800
001000
ENDCHAR
STARTCHAR 5343
ENCODING 21315
SWIDTH 600 0
DWIDTH 24 0
BBX 24 24 0 -2
BITMAP
000000
0000E0
000FF0
00FE00
1FD800
001800
001800
001800
001800
00180C
7FFFFE
001800
001800
001800
001800
001800
001800
001800
001800
001800
001800
001800
001800
001000
ENDCHAR
STARTCHAR 5345
ENCODING 21317
SWIDTH 600 0
DWIDTH 24 0
BBX 24 24 0 -2
BITMAP
040040
071070
061C60
061860
061860
061860
061860
061860
061860
06186C
7FFFFE
061860
061860
061860
061860
061860
061860
0C1860
0C1860
0C1860
181860
101860
201060
400040
ENDCHAR
STARTCHAR 5347
ENCODING 21319
SWIDTH 600 0
DWIDTH 24 0
BBX 24 24 0 -2
BITMAP
000100
0021C0
007180
03F980
3F8180
018180
018180
018180
018180
018180
01818C
7FFFFE
018180
018180
030180
030180
030180
060180
060180
0C0180
180180
100180
200180
400100
ENDCHAR
STARTCHAR 5348
ENCODING 21320
SWIDTH 600 0
DWIDTH 24 0
BBX 24 24 0 -2
BITMAP
010000
01C000
018000
030000
030030
07FFF8
061800
0C1800
181800
101800
201800
00180C
7FFFFE
001800
001800
001800
001800
001800
001800
001800
001800
001800
001800
001000
ENDCHAR
STARTCHAR 5349
ENCODING 21321
SWIDTH 600 0
DWIDTH 24 0
BBX 24 24 0 -2
BITMAP
001000
001C00
001800
001800
001818
1FFFFC
001800
001800
011900
01D9C0
019980
019180
01818C
7FFFFE
018180
018180
018180
018180
030180
030180
060180
0C0180
300180
400100
ENDCHAR
STARTCHAR 534A
ENCODING 21322
SWIDTH 600 0
DWIDTH 24 0
BBX 24 24 0 -2
BITMAP
001000
001C00
001820
081838
061860
0318C0
019880
011900
001A18
3FFFFC
001800
001800
001800
00180C
7FFFFE
001800
001800
001800
001800
001800
001800
001800
001800
001000
ENDCHAR
STARTCHAR 534E
ENCODING 21326
SWIDTH 600 0
DWIDTH 24 0
BBX 24 24 0 -2
BITMAP
010400
01C700
018620
038638
030660
0606C0
078780
0F0604
1B0E04
333604
430606
0307FE
0303FC
021000
001C00
00180C
7FFFFE
001800
001800
001800
001800
001800
001800
001000
ENDCHAR
STARTCHAR 534F
ENCODING 21327
SWIDTH 600 0
DWIDTH 24 0
BBX 24 24 0 -2
BITMAP
100800
1C0E00
180C00
180C00
180C00
180C60
18FFF0
1B0C60
FF8C60
180C60
184C68
184C6C
184C66
18CC66
19D864
199860
181860
183060
183060
186060
18C0E0
188FC0
190380
120100
ENDCHAR
STARTCHAR 5351
ENCODING 21329
SWIDTH 600 0
DWIDTH 24 0
BBX 24 24 0 -2
BITMAP
002000
003800
003000
084030
0FFFF8
0C1830
0C1830
0C1830
0FFFF0
0C3030
0C3030
0C3030
0FFFF0
086820
00CE00
010C00
020C0C
7FFFFE
000C00
000C00
000C00
000C00
000C00
000800
ENDCHAR
STARTCHAR 5352
ENCODING 21330
SWIDTH 600 0
DWIDTH 24 0
BBX 24 24 0 -2
BITMAP
003000
001800
000C00
000818
3FFFFC
010100
01C1C0
018380
038300
034680
066C60
0C5830
082018
105C10
20180C
7FFFFE
001800
001800
001800
001800
001800
001800
001800
001000
ENDCHAR
STARTCHAR 5353
ENCODING 21331
SWIDTH 600 0
DWIDTH 24 0
BBX 24 24 0 -2
BITMAP
002000
003800
003030
003FF8
003000
003000
043060
07FFF0
060060
060060
07FFE0
060060
060060
07FFE0
061860
041840
00180C
7FFFFE
001800
001800
001800
001800
001800
001000
ENDCHAR
STARTCHAR 5355
ENCODING 21333
SWIDTH 600 0
DWIDTH 24 0
BBX 24 24 0 -2
BITMAP
020040
018070
00C0C0
006180
084230
0FFFF8
0C1830
0C1830
0C1830
0FFFF0
0C1830
0C1830
0C1830
0FFFF0
0C1830
081820
00180C
7FFFFE
001800
001800
001800
001800
001800
001000
ENDCHAR
STARTCHAR 5356
ENCODING 21334
SWIDTH 600 0
DWIDTH 24 0
BBX 24 24 0 -2
BITMAP
001000
001C00
001860
0FFFF0
001800
001800
00180C
3FFFFE
00000C
018418
00C720
006600
064600
030600
018C00
010C0C
7FFFFE
000C00
001E00
0031C0
00E070
03003C
1C000C
600004
ENDCHAR
STARTCHAR 5357
ENCODING 21335
SWIDTH 600 0
DWIDTH 24 0
BBX 24 24 0 -2
BITMAP
001000
001C00
001800
00180C
7FFFFE
001800
001800
101818
1FFFFC
188218
184318
186618
182498
1BFFD8
181818
181818
181898
1BFFD8
181818
181818
181818
1818F8
181030
100020
ENDCHAR
STARTCHAR 535A
ENCODING 21338
SWIDTH 600 0
DWIDTH 24 0
BBX 24 24 0 -2
BITMAP
100400
1C0760
180630
180614
19FFFE
180600
188630
18FFF8
1AC630
FFC630
18FFF0
18C630
18C630
18FFF0
18C630
1884A0
1800CC
19FFFE
1820C0
1818C0
1810C0
1807C0
100180
000100
ENDCHAR
STARTCHAR 535C
ENCODING 21340
SWIDTH 600 0
DWIDTH 24 0
BBX 24 24 0 -2
BITMAP
004000
007000
006000
006000
006000
006000
006000
006000
006C00
006380
0060C0
006070
006038
006018
006008
006000
006000
006000
006000
006000
006000
006000
006000
004000
ENDCHAR
STARTCHAR 535E
ENCODING 21342
SWIDTH 600 0
DWIDTH 24 0
BBX 24 24 0 -2
BITMAP
00C000
007000
003800
001800
00100C
7FFFFE
003000
003000
003000
003000
003C00
003300
0031C0
0030E0
003060
003040
003000
003000
003000
003000
003000
003000
003000
002000
ENDCHAR
STARTCHAR 535F
ENCODING 21343
SWIDTH 600 0
DWIDTH 24 0
BBX 24 24 0 -2
BITMAP
000400
000700
000600
20C600
3FE600
30C600
30C600
30C700
30C6C0
30C630
30C61C
30C60E
30C606
30C604
3FC600
30C600
308600
300600
200600
000600
000600
000600
000600
000400
ENDCHAR
STARTCHAR 5360
ENCODING 21344
SWIDTH 600 0
DWIDTH 24 0
BBX 24 24 0 -2
BITMAP
002000
003800
003000
003000
003000
00300C
003FFE
003000
003000
003000
003000
083030
0FFFF8
0C0030
0C0030
0C0030
0C0030
0C0030
0C0030
0C0030
0FFFF0
0C0030
0C0030
080020
ENDCHAR
STARTCHAR 5361
ENCODING 21345
SWIDTH 600 0
DWIDTH 24 0
BBX 24 24 0 -2
BITMAP
002000
003800
003000
003030
003FF8
003000
003000
003000
00300C
7FFFFE
002000
003800
003000
003700
0031C0
0030E0
003070
003030
003020
003000
003000
003000
003000
002000
ENDCHAR
STARTCHAR 5362
ENCODING 21346
SWIDTH 600 0
DWIDTH 24 0
BBX 24 24 0 -2
BITMAP
001000
001C00
001800
00180C
001FFE
001800
001800
081830
0FFFF8
0C0030
0C0030
0C0030
0C0030
0FFFF0
0C0030
0C0020
0C0000
0C0000
0C0000
180000
180000
300000
200000
400000
ENDCHAR
STARTCHAR 5363
ENCODING 21347
SWIDTH 600 0
DWIDTH 24 0
BBX 24 24 0 -2
BITMAP
002000
003800
003000
003018
003FFC
003000
003000
103030
1FFFF8
180030
180030
180C30
1FFE30
180C30
180C30
180C30
180C30
1FFC30
180830
180030
180030
1FFFF0
180030
100020
ENDCHAR
STARTCHAR 5364
ENCODING 21348
SWIDTH 600 0
DWIDTH 24 0
BBX 24 24 0 -2
BITMAP
002000
003800
003000
003018
003FFC
003000
003000
103030
1FFFF8
180030
1A0430
190730
18C630
186C30
183830
183830
186C30
18C630
190330
1A0230
180030
1FFFF0
180030
100020
ENDCHAR
STARTCHAR 5366
ENCODING 21350
SWIDTH 600 0
DWIDTH 24 0
BBX 24 24 0 -2
BITMAP
010080
01C0E0
0180C0
0180C0
0198C0
3FFCC0
0180C0
0180C0
018CE0
7FFED0
0100D8
01C0CC
0180C6
0198C6
3FFCC2
0180C0
0180C0
0180C0
01FCC0
7FC0C0
3800C0
0000C0
0000C0
000080
ENDCHAR
STARTCHAR 5367
ENCODING 21351
SWIDTH 600 0
DWIDTH 24 0
BBX 24 24 0 -2
BITMAP
000080
2018E0
3FFCC0
3180C0
3180C0
3180C0
3180C0
3198C0
3FFCE0
3018D8
3018CC
3018CE
3018C6
3FF8C4
3198C0
3190C0
3180C0
3180C0
3180C0
3198C0
7FFCC0
2000C0
0000C0
000080
ENDCHAR
STARTCHAR 5369
ENCODING 21353
SWIDTH 600 0
DWIDTH 24 0
BBX 24 24 0 -2
BITMAP
000000
000000
001030
001FF8
001830
001830
001830
001830
001830
001830
001830
001830
001830
001830
001830
001830
0019F0
001860
001840
001800
001800
001800
001800
001000
ENDCHAR
STARTCHAR 536B
ENCODING 21355
SWIDTH 600 0
DWIDTH 24 0
BBX 24 24 0 -2
BITMAP
000000
000030
1FFFF8
003030
003030
003030
003030
003030
003030
003030
003030
003030
003070
0037E0
0031C0
003080
003000
003000
003000
003000
00300C
7FFFFE
000000
000000
ENDCHAR
STARTCHAR 536E
ENCODING 21358
SWIDTH 600 0
DWIDTH 24 0
BBX 24 24 0 -2
BITMAP
000020
0001F0
083FF8
0FF000
0C0000
0C0000
0C000C
0FFFFE
0C0000
0C80C0
0CFFE0
0CC0C0
0CC0C0
0CC0C0
0CC0C0
0CCFC0
0CC388
18C108
18C008
10C008
30C00C
20FFFC
407FF8
000000
ENDCHAR
STARTCHAR 536F
ENCODING 21359
SWIDTH 600 0
DWIDTH 24 0
BBX 24 24 0 -2
BITMAP
000000
006000
13F418
1F07FC
180618
188618
18E618
18C618
18C618
18C618
18C618
18C618
18C618
1BC618
3CC618
18C618
10C6F8
018630
018620
030600
060600
0C0600
100600
000400
ENDCHAR
STARTCHAR 5370
ENCODING 21360
SWIDTH 600 0
DWIDTH 24 0
BBX 24 24 0 -2
BITMAP
000000
00C000
13E818
1E0FFC
180C18
180C18
180C18
180C18
18CC18
1FEC18
180C18
180C18
180C18
180C18
180C18
186C18
1B8CF8
1E0C30
380C20
100C00
000C00
000C00
000C00
000800
ENDCHAR
STARTCHAR 5371
ENCODING 21361
SWIDTH 600 0
DWIDTH 24 0
BBX 24 24 0 -2
BITMAP
010000
01C000
0380C0
03FFE0
0601C0
060300
0C0418
1FFFFC
360000
460000
064060
067FF0
066060
066060
066060
066060
0663E8
0C60C8
0C6088
186008
18600C
307FFC
203FF8
400000
ENDCHAR
STARTCHAR 5373
ENCODING 21363
SWIDTH 600 0
DWIDTH 24 0
BBX 24 24 0 -2
BITMAP
000000
20C418
3FE7FC
30C618
30C618
30C618
3FC618
30C618
30C618
30C618
3FC618
30C618
308618
320618
310618
318618
30C6F8
336630
3C6620
704600
200600
000600
000600
000400
ENDCHAR
STARTCHAR 5374
ENCODING 21364
SWIDTH 600 0
DWIDTH 24 0
BBX 24 24 0 -2
BITMAP
020000
038000
03020C
0303FE
03030C
03630C
3FF30C
03030C
03030C
03030C
03330C
7FFB0C
02030C
03030C
06030C
0C430C
08230C
10337C
7FDB18
3C1B10
001300
000300
000300
000200
ENDCHAR
STARTCHAR 5375
ENCODING 21365
SWIDTH 600 0
DWIDTH 24 0
BBX 24 24 0 -2
BITMAP
000000
006000
11F418
1E07FC
184618
187618
1C6618
1A6718
1B6698
1B66D8
1A66D8
186658
186618
19E618
1E6618
38C618
10C6F8
018630
030620
060600
0C0600
300600
400600
000400
ENDCHAR
STARTCHAR 5377
ENCODING 21367
SWIDTH 600 0
DWIDTH 24 0
BBX 24 24 0 -2
BITMAP
002000
0C3840
0630E0
033180
013100
006230
1FFFF8
006000
00C00C
7FFFFE
018100
018080
030360
07FFB8
0D831E
318308
418300
019F20
018620
018420
018030
01FFF0
00FFE0
000000
ENDCHAR
STARTCHAR 5378
ENCODING 21368
SWIDTH 600 0
DWIDTH 24 0
BBX 24 24 0 -2
BITMAP
040000
060000
0C020C
0C23FE
1FF30C
19830C
31830C
21830C
41B30C
9FFB0C
01830C
01830C
11930C
1DFB0C
19830C
19830C
19837C
19BB18
1FE310
7E0300
300300
000300
000300
000200
ENDCHAR
STARTCHAR 537A
ENCODING 21370
SWIDTH 600 0
DWIDTH 24 0
BBX 24 24 0 -2
BITMAP
000000
000040
0FFFE0
0000C0
001310
019C18
3FDA30
019940
0318C0
061870
0CF81E
3030C8
4FFFE0
000000
020180
03FFC0
030180
030190
030F90
030310
030018
03FFF8
01FFF0
000000
ENDCHAR
STARTCHAR 537F
ENCODING 21375
SWIDTH 600 0
DWIDTH 24 0
BBX 24 24 0 -2
BITMAP
000000
020000
27448C
387EFE
3064CC
3264CC
3364CC
327CCC
3264CC
3264CC
3264CC
327CCC
3264CC
3660CC
3A60CC
7268CC
2264FC
0466D8
046AD0
0872C0
08E0C0
1040C0
6000C0
000080
ENDCHAR
STARTCHAR 5382
ENCODING 21378
SWIDTH 600 0
DWIDTH 24 0
BBX 24 24 0 -2
BITMAP
000000
000000
080018
0FFFFC
0C0000
0C0000
0C0000
0C0000
0C0000
0C0000
0C0000
0C0000
0C0000
0C0000
0C0000
0C0000
0C0000
0C0000
0C0000
180000
180000
300000
200000
400000
ENDCHAR
STARTCHAR 5384
ENCODING 21380
SWIDTH 600 0
DWIDTH 24 0
BBX 24 24 0 -2
BITMAP
000000
08000C
0FFFFE
0C0000
0C0000
0C0000
0C4060
0C7FF0
0C6060
0C6060
0C6060
0C6060
0C6060
0C6060
0C63E0
0C60C0
0C6084
0C6004
186004
186004
306006
207FFE
403FFC
000000
ENDCHAR
STARTCHAR 5385
ENCODING 21381
SWIDTH 600 0
DWIDTH 24 0
BBX 24 24 0 -2
BITMAP
000000
000000
08000C
0FFFFE
0C0000
0C0000
0C0000
0C000C
0DFFFE
0C0300
0C0300
0C0300
0C0300
0C0300
0C0300
0C0300
0C0300
0C0300
0C0300
180300
180300
301F00
200600
400400
ENDCHAR
STARTCHAR 5386
ENCODING 21382
SWIDTH 600 0
DWIDTH 24 0
BBX 24 24 0 -2
BITMAP
000000
08000C
0FFFFE
0C0000
0C0800
0C0E00
0C0C00
0C0C00
0C0C18
0DFFFC
0C0C18
0C0C18
0C0C18
0C0C18
0C1818
0C1818
0C3018
183018
186018
18C038
3183F0
2200E0
440040
000000
ENDCHAR
STARTCHAR 5389
ENCODING 21385
SWIDTH 600 0
DWIDTH 24 0
BBX 24 24 0 -2
BITMAP
000000
100018
1FFFFC
180000
180000
180000
18000C
1BFFFE
181800
181800
181830
181FF8
181830
181830
181830
183030
183030
186030
306030
30C070
6187E0
4601C0
880080
000000
ENDCHAR
STARTCHAR 538B
ENCODING 21387
SWIDTH 600 0
DWIDTH 24 0
BBX 24 24 0 -2
BITMAP
000000
080018
0FFFFC
0C0000
0C0800
0C0E00
0C0C00
0C0C00
0C0C00
0C0C30
0DFFF8
0C0C00
0C0C00
0C0CC0
0C0C60
0C0C70
0C0C30
0C0C20
180C00
180C0C
37FFFE
200000
400000
000000
ENDCHAR
STARTCHAR 538C
ENCODING 21388
SWIDTH 600 0
DWIDTH 24 0
BBX 24 24 0 -2
BITMAP
000000
10000C
1FFFFE
180800
180E00
180CC0
180C60
180C30
180C20
180C0C
1BFFFE
180C00
180C00
181A00
181A00
183100
183100
186080
3060C0
30C060
618038
42001E
8C0008
000000
ENDCHAR
STARTCHAR 538D
ENCODING 21389
SWIDTH 600 0
DWIDTH 24 0
BBX 24 24 0 -2
BITMAP
000000
10000C
1FFFFE
181000
181C00
181800
183018
1BFFFC
186400
186700
18C600
188630
19FFF8
188600
180600
18060C
1BFFFE
180600
300600
300600
600600
400600
800600
000400
ENDCHAR
STARTCHAR 5395
ENCODING 21397
SWIDTH 600 0
DWIDTH 24 0
BBX 24 24 0 -2
BITMAP
000000
10000C
1FFFFE
180000
180010
19041C
19FE98
1904D8
192498
193498
192498
192498
192498
192498
192498
192498
192498
186098
305018
30C818
608C18
4106F8
860430
000020
ENDCHAR
STARTCHAR 5398
ENCODING 21400
SWIDTH 600 0
DWIDTH 24 0
BBX 24 24 0 -2
BITMAP
000000
08000C
0FFFFE
0C0000
0C8030
0CFFF8
0CC630
0CC630
0CC630
0CFFF0
0CC630
0CC630
0CC630
0CFFF0
0C8620
180600
180630
19FFF8
300600
300600
600600
40060C
87FFFE
000000
ENDCHAR
STARTCHAR 539A
ENCODING 21402
SWIDTH 600 0
DWIDTH 24 0
BBX 24 24 0 -2
BITMAP
000000
100018
1FFFFC
180000
190060
19FFF0
198060
198060
19FFE0
198060
198060
19FFE0
190000
180040
1BFFE0
1800C0
180300
180C0C
37FFFE
300C00
600C00
400C00
807C00
001800
ENDCHAR
STARTCHAR 539D
ENCODING 21405
SWIDTH 600 0
DWIDTH 24 0
BBX 24 24 0 -2
BITMAP
100018
1FFFFC
184100
1871C0
186180
186190
1BFFF8
186180
186180
186198
1FFFFC
180000
190060
19FFF0
198060
198060
198060
19FFE0
318060
318060
618060
41FFE0
818060
010040
ENDCHAR
STARTCHAR 539F
ENCODING 21407
SWIDTH 600 0
DWIDTH 24 0
BBX 24 24 0 -2
BITMAP
000000
10000C
1FFFFE
180800
180E00
180C00
188830
18FFF8
18C030
18C030
18FFF0
18C030
18C030
18FFF0
188620
184600
187640
186630
30C618
31860C
630606
443E04
800C00
000800
ENDCHAR
STARTCHAR 53A2
ENCODING 21410
SWIDTH 600 0
DWIDTH 24 0
BBX 24 24 0 -2
BITMAP
000000
10000C
1FFFFE
188000
18E000
18C20C
18C3FE
18D30C
1FFB0C
18C30C
19C3FC
19C30C
1BE30C
1AD30C
1ADBFC
1CCB0C
1CC30C
18C30C
30C30C
30C3FC
60C30C
40C30C
80C208
008000
ENDCHAR
STARTCHAR 53A3
ENCODING 21411
SWIDTH 600 0
DWIDTH 24 0
BBX 24 24 0 -2
BITMAP
000000
10000C
1FFFFE
1808C0
180E60
181C4C
1FFFFE
183100
1860E0
18C03E
1B0018
1DFFFC
198618
198618
19FFF8
198618
198618
19FFF8
318618
310610
600600
400600
800600
000400
ENDCHAR
STARTCHAR 53A5
ENCODING 21413
SWIDTH 600 0
DWIDTH 24 0
BBX 24 24 0 -2
BITMAP
000000
200018
3FFFFC
302100
3631C0
336180
324308
3093FC
3FFA08
308410
349500
3699C0
349180
349180
349180
349340
37F340
309660
610620
610C30
420818
C4101E
882008
104000
ENDCHAR
STARTCHAR 53A6
ENCODING 21414
SWIDTH 600 0
DWIDTH 24 0
BBX 24 24 0 -2
BITMAP
080018
0FFFFC
0C0000
0C0030
0DFFF8
0C0C00
0C8830
0CFFF8
0CC030
0CFFF0
0CC030
0CFFF0
0CC030
0CFFF0
0CB800
0C3030
0C7FF8
18E060
1990C0
130D80
340700
203DFE
41E078
0E0000
ENDCHAR
STARTCHAR 53A8
ENCODING 21416
SWIDTH 600 0
DWIDTH 24 0
BBX 24 24 0 -2
BITMAP
000000
10000C
1FFFFE
180000
180C20
1BFE38
180030
190C30
19FE34
198DFE
198C30
198C30
19FD30
1901B0
1808B0
190CB0
198830
18D830
30D030
30BE30
67F030
4301F0
800060
000040
ENDCHAR
STARTCHAR 53A9
ENCODING 21417
SWIDTH 600 0
DWIDTH 24 0
BBX 24 24 0 -2
BITMAP
000000
20000C
3FFFFE
300000
323008
33FBFC
333060
333260
33F360
333360
333260
333664
33F7FE
3302C0
3300C0
3320E0
331160
333964
33CA64
678664
630466
42087E
80103C
000000
ENDCHAR
STARTCHAR 53AE
ENCODING 21422
SWIDTH 600 0
DWIDTH 24 0
BBX 24 24 0 -2
BITMAP
000000
10000C
1FFFFE
180000
191018
19127C
1BFBE0
191300
191300
19F304
1913FE
191330
19F330
191330
191330
1FFF30
190330
19B330
331A30
321630
640430
480830
801030
000020
ENDCHAR
STARTCHAR 53B6
ENCODING 21430
SWIDTH 600 0
DWIDTH 24 0
BBX 24 24 0 -2
BITMAP
000000
000000
001000
001C00
001800
001800
003000
003000
006000
006000
00C000
00C400
018200
010100
030180
0600C0
040060
080030
3FFFF8
1FE018
080010
000000
000000
000000
ENDCHAR
STARTCHAR 53BB
ENCODING 21435
SWIDTH 600 0
DWIDTH 24 0
BBX 24 24 0 -2
BITMAP
001000
001C00
001800
001800
001800
001830
1FFFF8
001800
001800
001800
001800
00180C
7FFFFE
002000
003800
007000
00C080
018060
030030
060018
1FFFFC
0FE00C
040008
000000
ENDCHAR
STARTCHAR 53BF
ENCODING 21439
SWIDTH 600 0
DWIDTH 24 0
BBX 24 24 0 -2
BITMAP
000000
0200C0
03FFE0
0300C0
0300C0
0300C0
03FFC0
0300C0
0300C0
0300C0
03FFC0
0300C0
0300C0
0300C0
0300CC
7FFFFE
004000
00E200
018180
0200C0
040060
1FFFF0
0E0030
000020
ENDCHAR
STARTCHAR 53C1
ENCODING 21441
SWIDTH 600 0
DWIDTH 24 0
BBX 24 24 0 -2
BITMAP
002000
003800
006100
00C080
0180C0
020060
0FFFF0
071030
001820
00300C
7FFFFE
00C100
0180C0
030060
060138
0DFF9E
100008
6000C0
03FFE0
000000
000000
00000C
3FFFFE
000000
ENDCHAR
STARTCHAR 53C2
ENCODING 21442
SWIDTH 600 0
DWIDTH 24 0
BBX 24 24 0 -2
BITMAP
002000
003800
006300
00C0C0
030060
0FFFF0
079020
001800
00300C
7FFFFE
00C100
018880
031CC0
063070
0C623E
118718
660C00
083060
00C0F0
030380
0C0E00
003800
01C000
1E0000
ENDCHAR
STARTCHAR 53C8
ENCODING 21448
SWIDTH 600 0
DWIDTH 24 0
BBX 24 24 0 -2
BITMAP
000000
000000
000060
1FFFF0
0200E0
0200C0
0200C0
010180
010180
010300
008300
008600
004600
006C00
003C00
001800
003C00
006600
00C380
0301E0
04007E
180018
600000
000000
ENDCHAR
STARTCHAR 53C9
ENCODING 21449
SWIDTH 600 0
DWIDTH 24 0
BBX 24 24 0 -2
BITMAP
000000
000000
000060
1FFFF0
020060
022060
0230C0
0118C0
0118C0
011180
008180
008300
004300
006600
003C00
001800
003C00
006600
00C300
0301C0
0C00F0
30003E
C00018
000000
ENDCHAR
STARTCHAR 53CA
ENCODING 21450
SWIDTH 600 0
DWIDTH 24 0
BBX 24 24 0 -2
BITMAP
000000
0000C0
0FFFE0
00C0C0
00C0C0
00C180
00C180
00C180
00C318
00A7FC
01A238
019030
019060
018860
0308C0
0304C0
060780
060300
0C0780
181CC0
107070
21C03E
4E0018
000000
ENDCHAR
STARTCHAR 53CB
ENCODING 21451
SWIDTH 600 0
DWIDTH 24 0
BBX 24 24 0 -2
BITMAP
004000
007000
006000
006000
00600C
7FFFFE
00C000
00C000
00C000
00C0C0
00FFE0
01A0C0
01A0C0
031180
031180
060B00
060B00
0C0600
180F00
1019C0
2030F0
40C03E
030018
0C0000
ENDCHAR
STARTCHAR 53CC
ENCODING 21452
SWIDTH 600 0
DWIDTH 24 0
BBX 24 24 0 -2
BITMAP
000000
000000
018030
7FDFF8
018830
018830
018830
218830
130860
0B0460
0A0460
060460
0602C0
0F02C0
098180
198180
10C380
30C6C0
208C60
401830
806038
01801E
060008
000000
ENDCHAR
STARTCHAR 53CD
ENCODING 21453
SWIDTH 600 0
DWIDTH 24 0
BBX 24 24 0 -2
BITMAP
000000
0000F0
081FF8
0FFC00
0C0000
0C0000
0C0000
0C0060
0FFFF0
0C4060
0C4060
0C60C0
0C20C0
0C3180
0C1180
0C1B00
180E00
180E00
301B00
3031C0
60C0F0
43003E
9C0018
000000
ENDCHAR
STARTCHAR 53D1
ENCODING 21457
SWIDTH 600 0
DWIDTH 24 0
BBX 24 24 0 -2
BITMAP
002000
043980
0730C0
0C3060
0C3040
186000
18600C
3FFFFE
106000
00C000
00C060
00FFF0
01A060
01A0C0
0310C0
031180
060F00
0C0600
080F00
1019C0
203070
40C03E
030018
0C0000
ENDCHAR
STARTCHAR 53D4
ENCODING 21460
SWIDTH 600 0
DWIDTH 24 0
BBX 24 24 0 -2
BITMAP
020000
038000
030000
032018
03EFFC
030418
030418
030418
036418
7FF430
020230
038230
130230
1B6160
1B3160
3319C0
3318C0
6311C0
430360
830638
030C1E
1F1008
066000
040000
ENDCHAR
STARTCHAR 53D6
ENCODING 21462
SWIDTH 600 0
DWIDTH 24 0
BBX 24 24 0 -2
BITMAP
000000
003000
7FF800
18C018
18DFFC
18C418
18C418
1FC418
18C418
18C418
18C230
18C230
1FC230
18C160
18C160
18C1C0
18F8C0
1FC1C0
F8C360
60C630
00C438
00C81E
00D008
008000
ENDCHAR
STARTCHAR 53D7
ENCODING 21463
SWIDTH 600 0
DWIDTH 24 0
BBX 24 24 0 -2
BITMAP
000020
0001F0
001FF8
1FF800
042040
021060
0318C0
018C80
11090C
1FFFFE
30000C
300008
600040
07FFE0
0100C0
008180
004300
006600
003C00
003C00
006780
0181FE
0E0070
700000
ENDCHAR
STARTCHAR 53D8
ENCODING 21464
SWIDTH 600 0
DWIDTH 24 0
BBX 24 24 0 -2
BITMAP
003000
001800
000C00
00080C
7FFFFE
00C300
08C340
0EC330
0CC318
18C30C
18C306
308204
2000C0
47FFE0
0100C0
008180
004300
006600
003C00
003C00
006780
0181E0
0E007E
700018
ENDCHAR
STARTCHAR 53D9
ENCODING 21465
SWIDTH 600 0
DWIDTH 24 0
BBX 24 24 0 -2
BITMAP
020000
038000
070018
068FFC
0C4418
186418
183418
309430
2FC430
430630
830230
033260
7FFA60
030360
1301C0
1B4180
1321C0
3331C0
231360
430630
430C38
9F101F
06200C
044000
ENDCHAR
STARTCHAR 53DB
ENCODING 21467
SWIDTH 600 0
DWIDTH 24 0
BBX 24 24 0 -2
BITMAP
040000
070038
0650FC
467F80
26D800
369800
261800
069818
7FDFFC
061A18
061A18
061A18
065A18
FFF930
061930
061120
0C30E0
0C30C0
0821E0
1861B0
104338
20861E
410C08
801000
ENDCHAR
STARTCHAR 53DF
ENCODING 21471
SWIDTH 600 0
DWIDTH 24 0
BBX 24 24 0 -2
BITMAP
001000
001C00
009800
09D830
0E1BF8
0C1830
0C9830
0FDBF0
0C1830
0C1830
0FFFF0
0C1830
001800
001860
3FFFF0
0200C0
018180
00C300
006600
003C00
003F00
00E3E0
0F00FE
700018
ENDCHAR
STARTCHAR 53E0
ENCODING 21472
SWIDTH 600 0
DWIDTH 24 0
BBX 24 24 0 -2
BITMAP
000040
07FFE0
000180
01E300
001E00
01E380
020088
3FEFFC
00C018
198660
0701C0
0CE670
302814
1FFFFE
10000C
3200C8
63FFE0
0300C0
03FFC0
0300C0
03FFC0
0300CC
7FFFFE
000000
ENDCHAR
STARTCHAR 53E3
ENCODING 21475
SWIDTH 600 0
DWIDTH 24 0
BBX 24 24 0 -2
BITMAP
000000
000000
000000
000000
080030
0FFFF8
0C0030
0C0030
0C0030
0C0030
0C0030
0C0030
0C0030
0C0030
0C0030
0C0030
0C0030
0C0030
0FFFF0
0C0030
0C0030
080020
000000
000000
ENDCHAR
STARTCHAR 53E4
ENCODING 21476
SWIDTH 600 0
DWIDTH 24 0
BBX 24 24 0 -2
BITMAP
001000
001C00
001800
001800
001800
00180C
7FFFFE
001800
001800
001800
001800
041860
07FFF0
060060
060060
060060
060060
060060
060060
060060
07FFE0
060060
060060
040040
ENDCHAR
STARTCHAR 53E5
ENCODING 21477
SWIDTH 600 0
DWIDTH 24 0
BBX 24 24 0 -2
BITMAP
010000
01C000
038000
030000
06000C
07FFFE
0C000C
0C000C
18000C
32060C
23FF0C
43060C
03060C
03060C
03060C
03060C
03060C
03FE0C
03060C
02040C
00001C
0001F8
000070
000020
ENDCHAR
STARTCHAR 53E6
ENCODING 21478
SWIDTH 600 0
DWIDTH 24 0
BBX 24 24 0 -2
BITMAP
000000
040060
07FFF0
060060
060060
060060
060060
060060
07FFE0
062060
043840
003000
003030
3FFFF8
006030
006030
00C030
00C030
018030
030030
060070
180FE0
6001C0
000080
ENDCHAR
STARTCHAR 53E8
ENCODING 21480
SWIDTH 600 0
DWIDTH 24 0
BBX 24 24 0 -2
BITMAP
000000
000000
00000C
21BFFE
3FC60C
31860C
31860C
31860C
31860C
31860C
31860C
31860C
318C0C
318C0C
3F8C0C
31980C
31180C
20300C
00600C
00C01C
0181F8
060070
180020
000000
ENDCHAR
STARTCHAR 53E9
ENCODING 21481
SWIDTH 600 0
DWIDTH 24 0
BBX 24 24 0 -2
BITMAP
000000
00040C
20C7FE
3FE60C
30C60C
30C60C
30C60C
30C60C
30C60C
30C60C
30C60C
30C60C
30C60C
30C60C
3FC60C
30C60C
30867C
200618
000610
000600
000600
000600
000600
000400
ENDCHAR
STARTCHAR 53EA
ENCODING 21482
SWIDTH 600 0
DWIDTH 24 0
BBX 24 24 0 -2
BITMAP
000000
000000
040060
07FFF0
060060
060060
060060
060060
060060
060060
060060
07FFE0
060060
040040
008000
00E200
01C180
0180C0
030060
060030
0C0038
100018
200010
000000
ENDCHAR
STARTCHAR 53EB
ENCODING 21483
SWIDTH 600 0
DWIDTH 24 0
BBX 24 24 0 -2
BITMAP
000010
00001C
000018
218818
3FCE18
318C18
318C18
318C18
318C18
318C18
318C18
318C18
318C18
318C78
3F8F98
319E18
310818
200018
000018
000018
000018
000018
000018
000010
ENDCHAR
STARTCHAR 53EC
ENCODING 21484
SWIDTH 600 0
DWIDTH 24 0
BBX 24 24 0 -2
BITMAP
000000
000018
1FFFFC
007018
006018
006018
006018
00C018
00C038
0187F0
0300E0
060040
1A0030
63FFF8
030030
030030
030030
030030
030030
030030
03FFF0
030030
030030
020020
ENDCHAR
STARTCHAR 53ED
ENCODING 21485
SWIDTH 600 0
DWIDTH 24 0
BBX 24 24 0 -2
BITMAP
000000
000040
000860
230E70
3F8C60
330C40
330C40
330C40
330C40
330C40
330C40
331840
331860
331860
3F1820
333020
323030
206030
006018
00C018
01800C
03000F
040004
000000
ENDCHAR
STARTCHAR 53EE
ENCODING 21486
SWIDTH 600 0
DWIDTH 24 0
BBX 24 24 0 -2
BITMAP
000000
000000
00000C
219FFE
3FC0C0
3180C0
3180C0
3180C0
3180C0
3180C0
3180C0
3180C0
3180C0
3180C0
3F80C0
3180C0
3100C0
2000C0
0000C0
0000C0
0007C0
000180
000100
000000
ENDCHAR
STARTCHAR 53EF
ENCODING 21487
SWIDTH 600 0
DWIDTH 24 0
BBX 24 24 0 -2
BITMAP
000000
000000
00000C
7FFFFE
000060
000060
000060
041860
07FC60
061860
061860
061860
061860
061860
061860
07F860
061860
061060
040060
000060
000060
0003E0
0000C0
000080
ENDCHAR
STARTCHAR 53F0
ENCODING 21488
SWIDTH 600 0
DWIDTH 24 0
BBX 24 24 0 -2
BITMAP
002000
003800
007000
00E000
00C000
018100
0300C0
060070
080038
3FFFFC
1E000C
000008
000000
040060
07FFF0
060060
060060
060060
060060
060060
07FFE0
060060
060060
040040
ENDCHAR
STARTCHAR 53F1
ENCODING 21489
SWIDTH 600 0
DWIDTH 24 0
BBX 24 24 0 -2
BITMAP
000000
000400
000700
218600
3FC600
318608
31860E
318618
318630
318660
3186C0
318780
318700
318600
3F8E00
319E00
312604
200604
000604
000604
000606
0007FE
0003FC
000000
ENDCHAR
STARTCHAR 53F2
ENCODING 21490
SWIDTH 600 0
DWIDTH 24 0
BBX 24 24 0 -2
BITMAP
001000
001C00
001800
001800
081830
0FFFF8
0C1830
0C1830
0C1830
0C1830
0C1830
0FFFF0
0C1830
081820
011800
00D000
007000
003800
007E00
00C780
0381FE
0E0078
700000
000000
ENDCHAR
STARTCHAR 53F3
ENCODING 21491
SWIDTH 600 0
DWIDTH 24 0
BBX 24 24 0 -2
BITMAP
002000
003800
003000
003000
00600C
7FFFFE
006000
00C000
00C000
018000
018000
030030
03FFF8
078030
0D8030
198030
218030
418030
018030
018030
01FFF0
018030
018030
010020
ENDCHAR
STARTCHAR 53F5
ENCODING 21493
SWIDTH 600 0
DWIDTH 24 0
BBX 24 24 0 -2
BITMAP
000000
000000
100018
1FFFFC
180000
180000
180000
1840C0
187FE0
1860C0
1860C0
1860C0
1860C0
1860C0
1860C0
187FC0
1860C0
184080
180000
180000
180018
3FFFFC
100000
000000
ENDCHAR
STARTCHAR 53F6
ENCODING 21494
SWIDTH 600 0
DWIDTH 24 0
BBX 24 24 0 -2
BITMAP
000100
0001C0
000180
218180
3FC180
318180
318180
31818C
31BFFE
318180
318180
318180
318180
318180
3F8180
318180
310180
200180
000180
000180
000180
000180
000180
000100
ENDCHAR
STARTCHAR 53F7
ENCODING 21495
SWIDTH 600 0
DWIDTH 24 0
BBX 24 24 0 -2
BITMAP
000000
040060
07FFF0
060060
060060
060060
060060
060060
07FFE0
060060
00000C
7FFFFE
00C000
018000
030060
07FFF0
020060
000060
000060
000060
0000E0
003FC0
000780
000200
ENDCHAR
STARTCHAR 53F8
ENCODING 21496
SWIDTH 600 0
DWIDTH 24 0
BBX 24 24 0 -2
BITMAP
000000
000018
1FFFFC
000018
000018
000198
7FFFD8
000018
000018
080618
0FFF18
0C0618
0C0618
0C0618
0C0618
0C0618
0C0618
0FFE18
0C0618
080418
000018
0000F8
000030
000020
ENDCHAR
STARTCHAR 53F9
ENCODING 21497
SWIDTH 600 0
DWIDTH 24 0
BBX 24 24 0 -2
BITMAP
000000
000000
000018
21BFFC
3FC818
318818
318818
318830
318830
318830
318460
318460
3186C0
3182C0
3F8380
318180
3103C0
2006E0
000C70
001838
00601E
018008
020000
000000
ENDCHAR
STARTCHAR 53FB
ENCODING 21499
SWIDTH 600 0
DWIDTH 24 0
BBX 24 24 0 -2
BITMAP
000400
000700
000600
000600
218600
3FC600
318618
31BFFC
318618
318618
318618
318618
318618
318618
318C18
3F8C18
318C18
311818
201818
003018
006038
00C3F0
0100E0
060040
ENDCHAR
STARTCHAR 53FC
ENCODING 21500
SWIDTH 600 0
DWIDTH 24 0
BBX 24 24 0 -2
BITMAP
000000
00000C
001FFE
21800C
3FC00C
31800C
31800C
31801C
31802C
31804C
3180CC
31818C
31830C
318E0C
3F9C0C
31880C
31000C
20000C
00000C
00001C
0001F8
000070
000020
000000
ENDCHAR
STARTCHAR 53FD
ENCODING 21501
SWIDTH 600 0
DWIDTH 24 0
BBX 24 24 0 -2
BITMAP
000000
000860
000FF0
218C60
3FCC60
318C60
318C60
318C60
318C60
318C60
318C60
318C60
318C60
318C60
3F9860
319864
313064
203064
006064
00C066
01807E
02003C
040000
000000
ENDCHAR
STARTCHAR 5401
ENCODING 21505
SWIDTH 600 0
DWIDTH 24 0
BBX 24 24 0 -2
BITMAP
000000
000018
003FFC
218180
3FC180
318180
318180
318180
318180
318186
31FFFF
318180
318180
318180
3F8180
318180
310180
200180
000180
000180
000180
000F80
000300
000200
ENDCHAR
STARTCHAR 5403
ENCODING 21507
SWIDTH 600 0
DWIDTH 24 0
BBX 24 24 0 -2
BITMAP
000800
000E00
000C00
231800
3F9800
333018
333FFC
336000
334000
3380C0
333FE0
3300C0
330180
330300
3F0600
330C00
321804
201804
003004
003006
003FFE
001FFC
000000
000000
ENDCHAR
STARTCHAR 5404
ENCODING 21508
SWIDTH 600 0
DWIDTH 24 0
BBX 24 24 0 -2
BITMAP
008000
00E000
00C000
0180C0
03FFE0
0300C0
068180
044300
082600
103C00
203C00
006600
00C3C0
0300FE
0C0018
73FFC0
0300C0
0300C0
0300C0
0300C0
0300C0
03FFC0
0300C0
020080
ENDCHAR
STARTCHAR 5406
ENCODING 21510
SWIDTH 600 0
DWIDTH 24 0
BBX 24 24 0 -2
BITMAP
000100
0001C0
000180
218300
3FC300
318610
31861C
318C18
318C30
318830
319060
31BFE0
3190C0
318180
3F8300
318300
310620
200C10
000818
00100C
007FFC
00300C
000008
000000
ENDCHAR
STARTCHAR 5408
ENCODING 21512
SWIDTH 600 0
DWIDTH 24 0
BBX 24 24 0 -2
BITMAP
001000
001C00
003800
003400
006200
00C300
018180
0300C0
060260
0CFF38
30001E
600008
8200C0
03FFE0
0300C0
0300C0
0300C0
0300C0
0300C0
0300C0
03FFC0
0300C0
020080
000000
ENDCHAR
STARTCHAR 5409
ENCODING 21513
SWIDTH 600 0
DWIDTH 24 0
BBX 24 24 0 -2
BITMAP
001000
001C00
001800
001800
00180C
7FFFFE
001800
001800
001800
001830
1FFFF8
000000
000000
040060
07FFF0
060060
060060
060060
060060
060060
07FFE0
060060
060060
040040
ENDCHAR
STARTCHAR 540A
ENCODING 21514
SWIDTH 600 0
DWIDTH 24 0
BBX 24 24 0 -2
BITMAP
000000
040060
07FFF0
060060
060060
060060
060060
060060
07FFE0
041840
001800
101818
1FFFFC
181818
181818
181818
181818
181818
181818
1818F8
181830
101820
001800
001000
ENDCHAR
STARTCHAR 540C
ENCODING 21516
SWIDTH 600 0
DWIDTH 24 0
BBX 24 24 0 -2
BITMAP
000000
200018
3FFFFC
300018
300018
300198
37FFD8
300018
300018
310318
31FF98
318318
318318
318318
318318
318318
31FF18
310218
300018
300018
300018
3000F8
300030
200020
ENDCHAR
STARTCHAR 540D
ENCODING 21517
SWIDTH 600 0
DWIDTH 24 0
BBX 24 24 0 -2
BITMAP
004000
007000
006000
00C030
00FFF8
00C030
018060
0380C0
066180
0C3300
101600
200C00
003800
00E030
03FFF8
078030
198030
618030
018030
018030
018030
01FFF0
018030
010020
ENDCHAR
STARTCHAR 540E
ENCODING 21518
SWIDTH 600 0
DWIDTH 24 0
BBX 24 24 0 -2
BITMAP
000020
0001F0
083FF8
0FFC00
0C0000
0C0000
0C0000
0C000C
0FFFFE
0C0000
0C0000
0C0000
0C8030
0CFFF8
0CC030
0CC030
18C030
18C030
18C030
10C030
30FFF0
20C030
408020
000000
ENDCHAR
STARTCHAR 540F
ENCODING 21519
SWIDTH 600 0
DWIDTH 24 0
BBX 24 24 0 -2
BITMAP
001000
001C00
001800
00180C
7FFFFE
001800
001800
081830
0FFFF8
0C1830
0C1830
0C1830
0C1830
0FFFF0
0C1830
0A1820
011800
00B000
007000
00DC00
018F80
0603FE
180078
600010
ENDCHAR
STARTCHAR 5410
ENCODING 21520
SWIDTH 600 0
DWIDTH 24 0
BBX 24 24 0 -2
BITMAP
000100
0001C0
000180
218180
3FC180
318180
318180
318180
318198
31BFFC
318180
318180
318180
318180
318180
3F8180
318180
210180
000180
000180
000186
00FFFF
000000
000000
ENDCHAR
STARTCHAR 5411
ENCODING 21521
SWIDTH 600 0
DWIDTH 24 0
BBX 24 24 0 -2
BITMAP
004000
007000
006000
00C000
108018
1FFFFC
180018
180018
180018
188318
18FF98
18C318
18C318
18C318
18C318
18C318
18FF18
18C318
188218
180018
180018
1800F8
100030
000020
ENDCHAR
STARTCHAR 5412
ENCODING 21522
SWIDTH 600 0
DWIDTH 24 0
BBX 24 24 0 -2
BITMAP
000000
000010
000078
2181E0
3FC700
31BB00
318300
318300
318300
318300
31830C
3183FE
31FF00
318300
3F8300
318300
310300
200304
000304
000304
000306
0003FE
0001FC
000000
ENDCHAR
STARTCHAR 5413
ENCODING 21523
SWIDTH 600 0
DWIDTH 24 0
BBX 24 24 0 -2
BITMAP
000000
00000C
007FFE
218300
3FC300
318300
318300
318300
318380
318360
318330
318318
31831C
31830C
3F8308
318300
310300
200300
000300
000300
000300
000300
000300
000200
ENDCHAR
STARTCHAR 5415
ENCODING 21525
SWIDTH 600 0
DWIDTH 24 0
BBX 24 24 0 -2
BITMAP
000000
040060
07FFF0
060060
060060
060060
060060
060060
07FFE0
060060
040040
000000
100018
1FFFFC
180018
180018
180018
180018
180018
180018
1FFFF8
180018
100010
000000
ENDCHAR
STARTCHAR 5416
ENCODING 21526
SWIDTH 600 0
DWIDTH 24 0
BBX 24 24 0 -2
BITMAP
000000
002008
00180E
218C18
3FC630
318620
318440
318100
3181C0
318180
318180
318180
318180
318180
3F8180
318180
310180
200180
000180
000180
000180
000180
000180
000100
ENDCHAR
STARTCHAR 5417
ENCODING 21527
SWIDTH 600 0
DWIDTH 24 0
BBX 24 24 0 -2
BITMAP
000000
000030
003FF8
230030
3F8830
330E30
330C30
330C30
330C60
330C60
330C60
330C6C
331FFE
33080C
3F000C
3300CC
327FEC
20000C
00000C
00001C
0001F8
000070
000020
000000
ENDCHAR
STARTCHAR 541B
ENCODING 21531
SWIDTH 600 0
DWIDTH 24 0
BBX 24 24 0 -2
BITMAP
000000
000060
0FFFF0
00C060
00C060
00C066
7FFFFF
00C060
00C060
018060
1FFFE0
018040
030000
030030
07FFF8
058030
098030
118030
218030
418030
01FFF0
018030
010020
000000
ENDCHAR
STARTCHAR 541D
ENCODING 21533
SWIDTH 600 0
DWIDTH 24 0
BBX 24 24 0 -2
BITMAP
003000
001800
000C00
00080C
3FFFFE
0200E0
0101C0
008300
006600
001C00
003F00
00E3F0
03807F
0E00CC
73FFE0
0300C0
0300C0
0300C0
0300C0
0300C0
0300C0
03FFC0
0300C0
020080
ENDCHAR
STARTCHAR 541E
ENCODING 21534
SWIDTH 600 0
DWIDTH 24 0
BBX 24 24 0 -2
BITMAP
000000
000060
0FFFF0
003800
003000
003000
006018
3FFFFC
00C200
018100
0300C0
060060
0C0038
1BFFDF
3300CC
4300C0
0300C0
0300C0
0300C0
0300C0
0300C0
03FFC0
0300C0
020080
ENDCHAR
STARTCHAR 541F
ENCODING 21535
SWIDTH 600 0
DWIDTH 24 0
BBX 24 24 0 -2
BITMAP
000200
000380
000300
230700
3F8680
330C80
331840
331860
333038
33261E
334308
338180
330100
330060
3F3FF0
330060
320060
2000C0
0000C0
000180
000180
000300
000300
000600
ENDCHAR
STARTCHAR 5420
ENCODING 21536
SWIDTH 600 0
DWIDTH 24 0
BBX 24 24 0 -2
BITMAP
000400
000700
000640
218660
3FC630
318630
318620
31860C
31FFFE
318600
318D00
318D00
318D00
319980
3F9880
31B0C0
313040
206060
006030
00C030
018018
03001F
0C000C
100000
ENDCHAR
STARTCHAR 5421
ENCODING 21537
SWIDTH 600 0
DWIDTH 24 0
BBX 24 24 0 -2
BITMAP
000080
0020E0
0038C0
2330C0
3FB0C0
3330C0
3330C8
3330CC
3334D8
333ED0
3330E0
3330C0
3330C0
3330C0
3F30C0
3330C0
3230C0
2030C4
0032C4
0034C4
0038C6
0070FE
00207C
000000
ENDCHAR
STARTCHAR 5423
ENCODING 21539
SWIDTH 600 0
DWIDTH 24 0
BBX 24 24 0 -2
BITMAP
000000
000100
000080
2300C0
3F8060
330070
330430
330720
330600
330600
332610
332618
33260C
33260E
3F6606
336604
326600
20C610
00C610
000610
000618
0007F8
0003F0
000000
ENDCHAR
STARTCHAR 5426
ENCODING 21542
SWIDTH 600 0
DWIDTH 24 0
BBX 24 24 0 -2
BITMAP
000000
000000
00000C
7FFFFE
001800
003000
007C00
00DB80
0198E0
031838
06181C
0C180E
301806
441062
07FFF0
060060
060060
060060
060060
060060
07FFE0
060060
040040
000000
ENDCHAR
STARTCHAR 5427
ENCODING 21543
SWIDTH 600 0
DWIDTH 24 0
BBX 24 24 0 -2
BITMAP
000000
000000
00200C
233FFE
3FB18C
33318C
33318C
33318C
33318C
33318C
33318C
333FFC
33300C
333008
3F3000
333000
323004
203004
003004
003006
003FFE
001FFC
000000
000000
ENDCHAR
STARTCHAR 5428
ENCODING 21544
SWIDTH 600 0
DWIDTH 24 0
BBX 24 24 0 -2
BITMAP
000200
000380
230300
3F830C
337FFE
330300
330300
332320
333B38
333330
333330
333330
333330
333330
337FF0
3F2330
330320
320304
200304
000304
000306
0003FE
0001FC
000000
ENDCHAR
STARTCHAR 5429
ENCODING 21545
SWIDTH 600 0
DWIDTH 24 0
BBX 24 24 0 -2
BITMAP
000080
0008C0
000E80
230C80
3F8CC0
331840
331840
331060
333030
332038
33401E
337FE8
338C60
330C60
3F0C60
330C60
321860
201860
003060
0030E0
0067C0
00C180
030100
040000
ENDCHAR
STARTCHAR 542B
ENCODING 21547
SWIDTH 600 0
DWIDTH 24 0
BBX 24 24 0 -2
BITMAP
001000
001C00
003800
006400
00C600
018300
033180
0618E0
0C0878
30019F
47FFCC
800180
000300
000300
040660
07FFF0
060060
060060
060060
060060
060060
07FFE0
060060
040040
ENDCHAR
STARTCHAR 542C
ENCODING 21548
SWIDTH 600 0
DWIDTH 24 0
BBX 24 24 0 -2
BITMAP
000000
000038
0009FC
218F80
3FCC00
318C00
318C00
318C00
318C0C
318FFE
318C60
318C60
318C60
318C60
3F9860
319860
311860
203060
003060
006060
00C060
010060
020060
000040
ENDCHAR
STARTCHAR 542D
ENCODING 21549
SWIDTH 600 0
DWIDTH 24 0
BBX 24 24 0 -2
BITMAP
000C00
000600
000300
230300
3F8218
337FFC
330000
330000
3310C0
331FE0
3318C0
3318C0
3318C0
3318C0
3F18C0
3318C0
3218C4
2030C4
0030C4
0060C4
00C0C6
0300FE
0C007C
000000
ENDCHAR
STARTCHAR 542E
ENCODING 21550
SWIDTH 600 0
DWIDTH 24 0
BBX 24 24 0 -2
BITMAP
000400
000700
000E00
230C00
3F9840
333020
332030
334018
33FFFC
33700C
330008
331080
331CE0
3318C0
3F18C0
3318C0
3218C0
2030C4
0030C4
0060C4
00C0C6
0300FE
0C007C
000000
ENDCHAR
STARTCHAR 542F
ENCODING 21551
SWIDTH 600 0
DWIDTH 24 0
BBX 24 24 0 -2
BITMAP
003000
001800
000C00
080818
0FFFFC
0C0018
0C0018
0C0018
0C0018
0FFFF8
0C0010
0C0000
0C8018
0CFFFC
0CC018
0CC018
0CC018
18C018
18C018
30C018
20FFF8
40C018
808010
000000
ENDCHAR
STARTCHAR 5431
ENCODING 21553
SWIDTH 600 0
DWIDTH 24 0
BBX 24 24 0 -2
BITMAP
000200
000380
000300
230300
3F830C
337FFE
330300
330300
330300
330330
337FF8
331030
331030
330860
3F0860
3304C0
320780
200300
000780
000CC0
001870
00603E
018018
060000
ENDCHAR
STARTCHAR 5432
ENCODING 21554
SWIDTH 600 0
DWIDTH 24 0
BBX 24 24 0 -2
BITMAP
000008
00018E
007FCC
23018C
3F818C
33018C
33218C
333F8C
33310C
33300C
33300C
33318C
337FCC
33218C
3F018C
33018C
32018C
20018C
00018C
00018C
00038C
003F0C
000E0C
000408
ENDCHAR
STARTCHAR 5434
ENCODING 21556
SWIDTH 600 0
DWIDTH 24 0
BBX 24 24 0 -2
BITMAP
000000
040060
07FFF0
060060
060060
060060
060060
07FFE0
060060
040000
000030
1FFFF8
001800
001800
00180C
7FFFFE
003400
006200
006300
00C180
0180E0
060070
18003E
600018
ENDCHAR
STARTCHAR 5435
ENCODING 21557
SWIDTH 600 0
DWIDTH 24 0
BBX 24 24 0 -2
BITMAP
000100
0001C0
000180
230180
3F8180
3311A0
331D98
33198C
33318E
333186
332184
336180
334180
338190
3F019C
330138
320030
200060
0000C0
000180
000700
001C00
006000
018000
ENDCHAR
STARTCHAR 5438
ENCODING 21560
SWIDTH 600 0
DWIDTH 24 0
BBX 24 24 0 -2
BITMAP
000000
000030
237FF8
3F9830
331860
331860
3318C0
3318C0
331998
331BFC
331918
331818
333430
333430
3F3660
336260
3263C0
20C1C0
00C1C0
018360
030638
060C1E
083008
004000
ENDCHAR
STARTCHAR 5439
ENCODING 21561
SWIDTH 600 0
DWIDTH 24 0
BBX 24 24 0 -2
BITMAP
000400
000700
000600
218600
3FCC00
318C0C
318FFE
31980C
319A18
31B3A0
31A300
31C300
318300
318300
3F8680
318680
310CC0
200C40
001860
003030
006038
00C01F
03000C
040000
ENDCHAR
STARTCHAR 543B
ENCODING 21563
SWIDTH 600 0
DWIDTH 24 0
BBX 24 24 0 -2
BITMAP
001000
001C00
001800
231800
3FB00C
333FFE
3326CC
3366CC
3346CC
338CCC
330CCC
3318CC
33198C
33318C
3F318C
33630C
32430C
20860C
010C0C
00181C
0031F8
006070
008020
010000
ENDCHAR
STARTCHAR 543C
ENCODING 21564
SWIDTH 600 0
DWIDTH 24 0
BBX 24 24 0 -2
BITMAP
000040
000270
007F60
230660
3F8660
330460
331860
331860
331960
331E60
331C60
333860
33F860
335860
3F1860
331860
321860
201864
001864
001864
00F866
00307E
00203C
000000
ENDCHAR
STARTCHAR 543E
ENCODING 21566
SWIDTH 600 0
DWIDTH 24 0
BBX 24 24 0 -2
BITMAP
000000
000018
3FFFFC
006000
006000
0060C0
0FFFE0
00C0C0
00C0C0
0180C0
0180CC
7FFFFE
000000
000000
020060
03FFF0
030060
030060
030060
030060
030060
03FFE0
030060
020040
ENDCHAR
STARTCHAR 5440
ENCODING 21568
SWIDTH 600 0
DWIDTH 24 0
BBX 24 24 0 -2
BITMAP
000000
000018
007FFC
230060
3F9060
331C60
331860
331860
333060
33306C
337FFE
3321E0
330360
330360
3F0660
330C60
321860
203060
006060
00C060
018060
0603E0
0800C0
000080
ENDCHAR
STARTCHAR 5443
ENCODING 21571
SWIDTH 600 0
DWIDTH 24 0
BBX 24 24 0 -2
BITMAP
000000
00200C
003FFE
233000
3FB000
333218
3333FC
333318
333318
333318
333318
333318
333318
333318
3F3378
336330
326320
206304
00C304
00C306
0183FE
0301FC
040000
000000
ENDCHAR
STARTCHAR 5446
ENCODING 21574
SWIDTH 600 0
DWIDTH 24 0
BBX 24 24 0 -2
BITMAP
000000
040060
07FFF0
060060
060060
060060
060060
060060
07FFE0
061040
041C00
00180C
7FFFFE
007C00
00DA00
00DB00
019980
0318C0
061870
08183E
301818
401800
001800
001000
ENDCHAR
STARTCHAR 5448
ENCODING 21576
SWIDTH 600 0
DWIDTH 24 0
BBX 24 24 0 -2
BITMAP
000000
040060
07FFF0
060060
060060
060060
060060
060060
07FFE0
060060
040040
000018
3FFFFC
001800
001800
001830
1FFFF8
001800
001800
001800
00180C
7FFFFE
000000
000000
ENDCHAR
STARTCHAR 544A
ENCODING 21578
SWIDTH 600 0
DWIDTH 24 0
BBX 24 24 0 -2
BITMAP
001000
021C00
039800
031800
061830
07FFF8
0C1800
081800
101800
00180C
7FFFFE
000000
000000
040060
07FFF0
060060
060060
060060
060060
060060
07FFE0
060060
060060
040040
ENDCHAR
STARTCHAR 544B
ENCODING 21579
SWIDTH 600 0
DWIDTH 24 0
BBX 24 24 0 -2
BITMAP
000200
000380
000300
230300
3F8318
337FFC
330300
330300
330300
330300
33030C
33FFFE
330680
330680
3F0680
330C40
320C40
201860
001830
003038
00601E
018008
060000
000000
ENDCHAR
STARTCHAR 5450
ENCODING 21584
SWIDTH 600 0
DWIDTH 24 0
BBX 24 24 0 -2
BITMAP
000100
0001C0
000180
230180
3FA18C
333FFE
33318C
33318C
33318C
33318C
33318C
3333CC
33334C
33326C
3F362C
33342C
32380C
20300C
00300C
00300C
00307C
003018
002010
000000
ENDCHAR
STARTCHAR 5452
ENCODING 21586
SWIDTH 600 0
DWIDTH 24 0
BBX 24 24 0 -2
BITMAP
000000
000030
007FF8
230600
3F8600
330600
330600
330600
33060C
33FFFE
330D80
330D80
330D80
330D80
3F1980
331980
321984
203184
003184
006186
00C1FE
0080FC
010000
020000
ENDCHAR
STARTCHAR 5453
ENCODING 21587
SWIDTH 600 0
DWIDTH 24 0
BBX 24 24 0 -2
BITMAP
001080
001CE0
0018C0
2318CC
3FFFFE
3318C0
3318C0
331080
330060
333FF0
330060
3300C0
330180
330300
3F0600
330C00
321804
203004
003004
006004
006006
007FFE
003FFC
000000
ENDCHAR
STARTCHAR 5454
ENCODING 21588
SWIDTH 600 0
DWIDTH 24 0
BBX 24 24 0 -2
BITMAP
000400
000700
000600
230600
3F8600
330600
33060C
33FFFE
330D00
330D00
330D00
330D80
330C80
331880
3F18C0
331840
323060
203460
006630
006330
00C218
01801E
020008
040000
ENDCHAR
STARTCHAR 5455
ENCODING 21589
SWIDTH 600 0
DWIDTH 24 0
BBX 24 24 0 -2
BITMAP
000000
000000
00200C
233FFE
3FB000
333010
33341C
333218
333330
3331B0
3330E0
3330C0
3330E0
3331B0
3F3118
33331C
32320C
203408
003800
003000
00300C
007FFE
002000
000000
ENDCHAR
ENDFONT
